<svg width="51" height="21" viewBox="0 0 51 21" fill="none" xmlns="http://www.w3.org/2000/svg">
<path d="M0.0751953 20.3067L1.27159 15.2298H16.0556C16.5676 15.2298 16.9916 15.1052 17.3277 14.856C17.6851 14.6069 17.92 14.2435 18.0326 13.7659C18.15 13.2675 18.0912 12.8834 17.8561 12.6135C17.6473 12.3228 17.2869 12.1774 16.7749 12.1774H2.2149L3.19844 8.00373H17.4384C18.4411 8.00373 19.0574 7.51576 19.2874 6.53982C19.5125 5.58465 19.1237 5.10707 18.121 5.10707H3.65704L4.8461 0.0612793H20.0461C21.1554 0.0612793 22.073 0.196249 22.7987 0.466189C23.5244 0.736128 24.0763 1.10989 24.4544 1.58748C24.8326 2.06506 25.0607 2.63609 25.1388 3.30055C25.2217 3.94425 25.1751 4.63987 24.999 5.38739C24.7494 6.44638 24.3339 7.34964 23.7524 8.09717C23.1972 8.82393 22.5119 9.33266 21.6968 9.62336C22.47 9.87254 23.0279 10.402 23.3704 11.2119C23.7343 12.0217 23.7645 13.0703 23.4611 14.3577C23.0305 16.185 22.0906 17.6385 20.6415 18.7182C19.1973 19.7772 17.3552 20.3067 15.1152 20.3067H0.0751953Z" fill="#5A5A5A"/>
<path d="M24.7197 20.3067L29.4906 0.0612793H41.4586C43.0373 0.0612793 44.4399 0.310454 45.6664 0.808803C46.8979 1.28639 47.8884 1.97162 48.638 2.8645C49.4089 3.75737 49.9249 4.82675 50.186 6.07262C50.452 7.29773 50.4064 8.66819 50.0491 10.184C49.6919 11.6998 49.0892 13.0807 48.2409 14.3265C47.3927 15.5724 46.3727 16.6418 45.1809 17.5347C44.0154 18.4068 42.7019 19.092 41.2405 19.5904C39.784 20.0679 38.2664 20.3067 36.6877 20.3067H24.7197ZM38.3048 15.0741C39.0301 15.0741 39.7184 14.9599 40.3695 14.7314C41.0469 14.4823 41.6585 14.15 42.2044 13.7347C42.7552 13.2987 43.2188 12.7796 43.5954 12.1774C43.9933 11.5752 44.2779 10.9108 44.4491 10.184C44.6204 9.45725 44.649 8.79278 44.5349 8.19061C44.4421 7.58844 44.2231 7.06932 43.8779 6.63327C43.5326 6.19721 43.0776 5.86498 42.5128 5.63657C41.9741 5.38739 41.3422 5.2628 40.6168 5.2628H33.8648L31.5528 15.0741H38.3048Z" fill="#5A5A5A"/>
</svg>
