<svg width="145" height="16" viewBox="0 0 145 16" fill="none" xmlns="http://www.w3.org/2000/svg">
<path d="M13.8802 8.83977L14.3202 6.37977H6.60016L6.16016 8.83977H13.8802ZM13.3802 14.9998L13.9402 11.8798H3.82016L5.28016 3.57977H15.3802L15.9202 0.459765H2.72016L0.160156 14.9998H13.3802Z" fill="#5A5A5A"/>
<path d="M33.8955 14.9998L28.0555 1.25977C27.7955 0.659766 27.4155 0.259766 26.7355 0.259766C26.0555 0.259766 25.5155 0.659766 25.0555 1.25977L14.3755 14.9998H17.9155L25.8355 4.65977L27.7155 9.13977H24.4355L22.5755 11.5598H28.7155L30.1555 14.9998H33.8955Z" fill="#5A5A5A"/>
<path d="M46.2378 14.9998C49.8778 14.9998 51.8178 12.6798 51.8178 9.73977C51.8178 7.47977 50.3978 6.37977 47.7578 6.37977H41.2178C40.4778 6.37977 40.0178 5.97977 40.0178 5.23977C40.0178 4.21977 40.6978 3.57977 41.7178 3.57977H52.2378L52.7778 0.459765H42.2578C38.8378 0.459765 36.7778 2.65977 36.7778 5.33977C36.7778 7.39977 38.2178 8.83977 40.7378 8.83977H47.3178C48.2978 8.83977 48.8378 9.29977 48.8378 10.0998C48.8378 11.1798 48.0578 11.8798 46.7978 11.8798H35.8178L35.2578 14.9998H46.2378Z" fill="#5A5A5A"/>
<path d="M62.6141 14.9998L63.5541 9.71977L72.7741 0.459765H68.7141L62.5141 6.87977L58.5541 0.459765H54.4741L60.4341 9.71977L59.4941 14.9998H62.6141Z" fill="#5A5A5A"/>
<path d="M82.5873 14.9998C85.8473 14.9998 88.2673 12.8598 88.2673 9.83977C88.2673 8.59977 87.6473 7.65977 86.7873 7.25977C87.8473 6.79977 89.0673 5.73977 89.0673 3.63977C89.0673 1.53977 87.4073 0.459765 84.7673 0.459765H74.0673L71.5073 14.9998H82.5873ZM83.5673 8.83977C84.5473 8.83977 85.0673 9.29977 85.0673 10.0798C85.0673 11.3198 84.0473 11.8998 82.5673 11.8998H75.1673L76.6473 3.55977H83.8073C85.0073 3.55977 85.7273 3.83977 85.7273 4.71977C85.7273 5.77977 85.1473 6.37977 83.7873 6.37977H77.9473L77.5073 8.83977H83.5673Z" fill="#5A5A5A"/>
<path d="M106.786 14.9998L100.946 1.25977C100.686 0.659766 100.306 0.259766 99.6261 0.259766C98.9461 0.259766 98.4061 0.659766 97.9461 1.25977L87.2661 14.9998H90.8061L98.7261 4.65977L100.606 9.13977H97.3261L95.4661 11.5598H101.606L103.046 14.9998H106.786Z" fill="#5A5A5A"/>
<path d="M120.648 14.5998C120.988 15.0198 121.328 15.1998 121.808 15.1998C122.728 15.1998 123.508 14.4998 123.708 13.3398L125.988 0.319766H123.008L121.208 10.2798L113.408 0.859766C113.048 0.419766 112.708 0.279765 112.248 0.279765C111.288 0.279765 110.568 0.979766 110.368 2.11977L108.088 14.9998H111.048L112.788 5.03977L120.648 14.5998Z" fill="#5A5A5A"/>
<path d="M142.048 14.9998L134.408 7.63977L144.328 0.459765H139.588L131.948 6.13977C131.268 6.63977 130.888 7.31977 130.888 7.83977C130.888 8.15977 130.988 8.49977 131.328 8.83977L137.468 14.9998H142.048ZM128.788 14.9998L131.348 0.459765H128.228L125.668 14.9998H128.788Z" fill="#5A5A5A"/>
</svg>
