<svg width="100" height="100" viewBox="0 0 100 100" fill="none" xmlns="http://www.w3.org/2000/svg">
<path d="M37.8815 48.2154H61.9728C68.6794 48.2154 74.034 42.7561 74.034 36.0915V13.3744C74.034 6.9077 68.5193 2.05107 61.9728 0.973288C57.8279 0.291425 53.5317 -0.0209115 49.409 0.00108406C45.2864 0.0230797 41.346 0.36621 37.8815 0.973288C27.6749 2.75493 25.8203 6.48978 25.8203 13.3744V22.4674H49.9383V25.4984H16.7656C9.75656 25.4984 3.61922 29.6643 1.69797 37.596C-0.516805 46.6845 -0.614647 52.355 1.69797 61.8439C3.4102 68.9089 7.5062 73.9415 14.5152 73.9415H22.8095V63.0405C22.8095 55.166 29.6984 48.2198 37.8771 48.2198L37.8815 48.2154ZM36.3605 16.4054C33.8611 16.4054 31.8332 14.3774 31.8332 11.8743C31.8332 9.35801 33.8567 7.31242 36.3605 7.31242C38.8511 7.31242 40.8879 9.35801 40.8879 11.8743C40.8879 14.3818 38.8555 16.4054 36.3605 16.4054ZM98.1475 37.5916C96.4174 30.6893 93.1086 25.494 86.0863 25.494H77.0359V36.0871C77.0359 44.3002 69.9958 51.2156 61.9683 51.2156H37.8771C31.2772 51.2156 25.8159 56.8025 25.8159 63.3396V86.0566C25.8159 92.5234 31.4996 96.3242 37.8771 98.1806C45.5132 100.402 52.8335 100.802 61.9683 98.1806C68.039 96.443 74.0295 92.9413 74.0295 86.0566V76.9637H49.9383V73.9327H86.0907C93.0997 73.9327 95.7103 69.098 98.1519 61.8351C100.669 54.361 100.562 47.1772 98.1519 37.5872L98.1475 37.5916ZM63.4893 83.0301C65.9887 83.0301 68.0167 85.058 68.0167 87.5611C68.0167 90.0774 65.9887 92.123 63.4893 92.123C60.9988 92.123 58.9619 90.0774 58.9619 87.5611C58.9619 85.0536 60.9944 83.0301 63.4893 83.0301Z" fill="white"/>
</svg>
