<svg width="100" height="100" viewBox="0 0 100 100" fill="none" xmlns="http://www.w3.org/2000/svg">
<path d="M82.2201 34.5224C81.1827 34.1693 80.1078 33.8351 79.001 33.5191C79.1829 32.7848 79.3498 32.06 79.4983 31.3475C81.9351 19.6481 80.3418 10.223 74.9013 7.11986C69.6845 4.14436 61.1529 7.2468 52.5363 14.6636C51.7077 15.3768 50.8768 16.1319 50.0463 16.9233C49.4929 16.3997 48.9404 15.8937 48.3893 15.4098C39.3589 7.47919 30.3073 4.13714 24.8721 7.24926C19.6603 10.2334 18.1169 19.0939 20.3104 30.1815C20.5222 31.2524 20.7698 32.3461 21.0498 33.458C19.7687 33.8177 18.532 34.2011 17.3486 34.6091C6.76146 38.2599 0 43.9817 0 49.9167C0 56.0464 7.25843 62.1946 18.2858 65.9225C19.156 66.2167 20.059 66.4949 20.9896 66.759C20.6875 67.9616 20.4248 69.1401 20.2043 70.2896C18.1128 81.1847 19.7461 89.8359 24.944 92.8012C30.313 95.8635 39.3236 92.7158 48.0977 85.1299C48.7912 84.5303 49.4872 83.8944 50.1844 83.2278C51.0881 84.0886 51.9904 84.9032 52.8879 85.6673C61.3866 92.9008 69.7805 95.8217 74.9736 92.8482C80.3372 89.7771 82.0803 80.4837 79.8173 69.1767C79.6444 68.3132 79.4433 67.431 79.2174 66.5331C79.8502 66.3481 80.4714 66.157 81.0771 65.9585C92.5411 62.2016 100 56.1282 100 49.9167C100 43.9602 93.0205 38.1999 82.2201 34.5224ZM79.7336 61.9477C79.1868 62.1268 78.6257 62.2999 78.054 62.4676C76.7884 58.5048 75.0804 54.2909 72.9901 49.9373C74.9848 45.6873 76.6268 41.5273 77.857 37.5902C78.8799 37.883 79.8728 38.1918 80.8295 38.5177C90.0833 41.6685 95.728 46.3271 95.728 49.9167C95.728 53.7402 89.6319 58.7038 79.7336 61.9477ZM75.6265 69.9973C76.6272 74.9971 76.7701 79.5175 76.1072 83.0513C75.5117 86.2266 74.3139 88.3436 72.833 89.1915C69.6815 90.9957 62.9421 88.6505 55.6739 82.4643C54.8407 81.7551 54.0014 80.9979 53.1595 80.1965C55.9772 77.1485 58.7933 73.605 61.5418 69.6697C66.3761 69.2454 70.9433 68.5517 75.0852 67.6047C75.2892 68.4186 75.4704 69.2169 75.6265 69.9973ZM34.0923 88.8797C31.0132 89.9552 28.561 89.9861 27.0786 89.1406C23.9243 87.3412 22.6129 80.3951 24.4017 71.0776C24.6065 70.0105 24.8504 68.9144 25.1315 67.794C29.2279 68.6899 33.7617 69.3347 38.6076 69.7232C41.3745 73.5741 44.272 77.1136 47.1919 80.2129C46.5539 80.822 45.9185 81.402 45.2866 81.9484C41.4068 85.3028 37.5187 87.6827 34.0923 88.8797ZM19.6674 61.9243C14.7913 60.2759 10.7645 58.1335 8.00424 55.7957C5.52401 53.6948 4.27179 51.6091 4.27179 49.9167C4.27179 46.3151 9.70057 41.7213 18.7548 38.599C19.8534 38.2201 21.0035 37.8631 22.197 37.5277C23.4483 41.5537 25.0898 45.763 27.0707 50.0195C25.0642 54.3392 23.3993 58.6156 22.1357 62.6888C21.2849 62.4469 20.4606 62.1923 19.6674 61.9243ZM24.5028 29.37C22.6235 19.8705 23.8716 12.7043 27.0124 10.9061C30.3578 8.99044 37.7557 11.7218 45.5527 18.5694C46.0511 19.0071 46.5515 19.4652 47.0532 19.9391C44.1478 23.0248 41.2768 26.5378 38.5344 30.366C33.8313 30.7971 29.3294 31.4897 25.1902 32.4172C24.93 31.3818 24.6994 30.3646 24.5028 29.37ZM67.6382 39.905C66.6488 38.2145 65.6329 36.564 64.5973 34.9585C67.7879 35.3575 70.8449 35.887 73.7157 36.5351C72.8538 39.2671 71.7796 42.1236 70.5151 45.0519C69.608 43.3486 68.6486 41.6312 67.6382 39.905ZM50.0477 22.9588C52.0181 25.0702 53.9914 27.4276 55.9323 29.9853C53.9765 29.894 51.9964 29.8464 50 29.8464C48.0224 29.8464 46.057 29.8929 44.1132 29.9827C46.0561 27.4487 48.0465 25.0945 50.0477 22.9588ZM32.3445 39.9342C31.3561 41.6294 30.4145 43.3375 29.5216 45.0488C28.2776 42.1307 27.2133 39.2611 26.344 36.4904C29.1971 35.8589 32.2397 35.3425 35.41 34.9511C34.3598 36.5714 33.3356 38.2344 32.3445 39.9342ZM35.5013 65.1836C32.2258 64.8222 29.1375 64.3324 26.2851 63.7183C27.1683 60.8981 28.256 57.9673 29.5264 54.9864C30.4216 56.6964 31.3669 58.4052 32.3614 60.1041C33.3744 61.8349 34.424 63.5303 35.5013 65.1836ZM50.1659 77.1724C48.1412 75.0117 46.1216 72.6216 44.1492 70.0507C46.0639 70.125 48.016 70.163 50 70.163C52.0383 70.163 54.0532 70.1176 56.0365 70.0302C54.0892 72.6475 52.123 75.0413 50.1659 77.1724ZM70.5558 54.8344C71.8924 57.8476 73.0191 60.7631 73.9138 63.5352C71.0143 64.1894 67.8839 64.7164 64.5856 65.1079C65.6237 63.4808 66.6484 61.802 67.6553 60.075C68.674 58.3279 69.6413 56.5781 70.5558 54.8344ZM63.9549 57.9641C62.3917 60.6449 60.7869 63.2041 59.1577 65.6197C56.1903 65.8296 53.1246 65.9377 50 65.9377C46.888 65.9377 43.861 65.8421 40.9461 65.6549C39.2512 63.2076 37.6115 60.6409 36.0583 57.9872C34.5091 55.3408 33.0837 52.6719 31.7918 50.0181C33.0834 47.3581 34.5054 44.6863 36.0456 42.0446C37.5899 39.3958 39.2149 36.8421 40.8941 34.4101C43.8681 34.1878 46.9178 34.0717 49.9998 34.0717C53.0958 34.0717 56.1495 34.1886 59.1226 34.4129C60.7762 36.8272 62.3905 39.3731 63.9409 42.0222C65.5088 44.7011 66.9492 47.3551 68.2518 49.958C66.9531 52.6057 65.516 55.2865 63.9549 57.9641ZM72.7675 10.7804C76.1161 12.6904 77.4184 20.3935 75.3144 30.4947C75.1802 31.1392 75.0291 31.7957 74.865 32.461C70.7162 31.5142 66.211 30.8096 61.4943 30.372C58.7465 26.5017 55.8991 22.9833 53.0409 19.9372C53.8093 19.206 54.5767 18.5088 55.3408 17.8509C62.7235 11.4962 69.6236 8.98727 72.7675 10.7804ZM50 41.0845C54.9316 41.0845 58.9297 45.0387 58.9297 49.9167C58.9297 54.7945 54.9316 58.7488 50 58.7488C45.0684 58.7488 41.0703 54.7945 41.0703 49.9167C41.0703 45.0387 45.0684 41.0845 50 41.0845Z" fill="#fff"/>
</svg>
