<svg width="101" height="100" viewBox="0 0 101 100" fill="none" xmlns="http://www.w3.org/2000/svg">
<path d="M60.6751 43.1432L57.821 59.7694H68.4937C73.6547 59.7694 78.0339 55.5626 78.0339 50.1142C78.0339 46.0279 75.4144 43.1432 71.3478 43.1432H60.6751Z" fill="white"/>
<path fill-rule="evenodd" clip-rule="evenodd" d="M93.9141 25L51.4141 0L8.91406 25V75L51.4141 100L93.9141 75V25ZM48.4725 55.683C48.4725 61.7325 43.7024 66.0194 37.3299 66.0194H17.586L18.6804 59.7694H37.7207C40.3794 59.7694 42.1782 58.4074 42.1782 56.1239C42.1782 54.6012 41.2001 53.6796 39.2459 53.6796H26.539L27.3989 48.7518H39.6759C42.3345 48.7518 43.507 47.5501 43.507 45.4267C43.507 43.8244 42.3736 43.1029 40.184 43.1029H21.6517L22.7079 36.8932H41.631C46.7519 36.8932 49.9587 39.0568 49.9587 43.2631C49.9587 47.4699 47.6518 49.5933 45.5403 50.5148C47.2609 51.316 48.4725 53.2393 48.4725 55.683ZM84.2892 48.7921C84.2892 58.3273 76.5869 66.0194 67.3994 66.0194H50.6659L55.6705 36.8932H72.404C79.6363 36.8932 84.2892 41.7409 84.2892 48.7921Z" fill="white"/>
</svg>
