<svg width="100" height="100" viewBox="0 0 100 100" fill="none" xmlns="http://www.w3.org/2000/svg">
<path fill-rule="evenodd" clip-rule="evenodd" d="M36.1597 17C20.4131 17 7.13067 28.7255 5.17754 44.3505L2 69.7708C2 81.5988 16.8481 86.8811 24.3184 77.7107L33.3289 66.6494C35.1201 64.4506 37.8056 63.1745 40.6417 63.1745H59.4766C62.3126 63.1745 64.9981 64.4506 66.7893 66.6494L75.7999 77.7107C83.2701 86.8811 98.1183 81.5988 98.1183 69.7708L94.9407 44.3505C92.9876 28.7255 79.7052 17 63.9586 17H36.1597ZM24.6161 34.4333C24.6161 32.6117 26.0926 31.1351 27.9142 31.1351C29.7359 31.1351 31.2124 32.6117 31.2124 34.4333V37.7315H34.5106C36.3322 37.7315 37.8088 39.208 37.8088 41.0296C37.8088 42.8513 36.3322 44.3278 34.5106 44.3278H31.2124V47.626C31.2124 49.4476 29.7359 50.9242 27.9142 50.9242C26.0926 50.9242 24.6161 49.4476 24.6161 47.626V44.3278H21.3179C19.4963 44.3278 18.0197 42.8513 18.0197 41.0296C18.0197 39.208 19.4963 37.7315 21.3179 37.7315H24.6161V34.4333ZM73.1464 37.7315C71.3247 37.7315 69.8482 36.2549 69.8482 34.4333C69.8482 32.6117 71.3247 31.1351 73.1464 31.1351C74.968 31.1351 76.4445 32.6117 76.4445 34.4333C76.4445 36.2549 74.968 37.7315 73.1464 37.7315ZM69.8482 47.626C69.8482 49.4476 71.3247 50.9242 73.1464 50.9242C74.968 50.9242 76.4445 49.4476 76.4445 47.626C76.4445 45.8044 74.968 44.3278 73.1464 44.3278C71.3247 44.3278 69.8482 45.8044 69.8482 47.626ZM79.7427 44.3278C81.5644 44.3278 83.0409 42.8513 83.0409 41.0296C83.0409 39.208 81.5644 37.7315 79.7427 37.7315C77.9211 37.7315 76.4445 39.208 76.4445 41.0296C76.4445 42.8513 77.9211 44.3278 79.7427 44.3278ZM66.55 44.3278C68.3717 44.3278 69.8482 42.8513 69.8482 41.0296C69.8482 39.208 68.3717 37.7315 66.55 37.7315C64.7284 37.7315 63.2518 39.208 63.2518 41.0296C63.2518 42.8513 64.7284 44.3278 66.55 44.3278Z" fill="white"/>
</svg>
