<svg width="100" height="100" viewBox="0 0 100 100" fill="none" xmlns="http://www.w3.org/2000/svg">
<path d="M59.761 43.1432L56.907 59.7694H67.5797C72.7406 59.7694 77.1198 55.5626 77.1198 50.1142C77.1198 46.0279 74.5003 43.1432 70.4337 43.1432H59.761Z" fill="white"/>
<path fill-rule="evenodd" clip-rule="evenodd" d="M93 25L50.5 0L8 25V75L50.5 100L93 75V25ZM47.5585 55.683C47.5585 61.7325 42.7884 66.0194 36.4158 66.0194H16.672L17.7663 59.7694H36.8067C39.4653 59.7694 41.2641 58.4074 41.2641 56.1239C41.2641 54.6012 40.2861 53.6796 38.3319 53.6796H25.625L26.4848 48.7518H38.7618C41.4204 48.7518 42.593 47.5501 42.593 45.4267C42.593 43.8244 41.4595 43.1029 39.2699 43.1029H20.7376L21.7938 36.8932H40.7169C45.8378 36.8932 49.0446 39.0568 49.0446 43.2631C49.0446 47.4699 46.7377 49.5933 44.6263 50.5148C46.3469 51.316 47.5585 53.2392 47.5585 55.683ZM83.3751 48.7921C83.3751 58.3273 75.6728 66.0194 66.4853 66.0194H49.7518L54.7564 36.8932H71.4899C78.7223 36.8932 83.3751 41.7409 83.3751 48.7921Z" fill="white"/>
</svg>
