<svg width="100" height="100" viewBox="0 0 100 100" fill="none" xmlns="http://www.w3.org/2000/svg">
<path fill-rule="evenodd" clip-rule="evenodd" d="M0 100V0H100V100H0ZM76.1177 45.2942C79.1768 45.2942 81.7842 45.8823 83.9414 47.0588C86.0981 48.2354 87.9214 50.157 89.4116 52.8235L82.1177 57.5295C81.3335 56.1177 80.4707 55.0981 79.5293 54.4707C78.5884 53.8433 77.4512 53.5295 76.1177 53.5295C74.7842 53.5295 73.7061 53.9021 72.8823 54.6472C72.0591 55.3923 71.647 56.353 71.647 57.5295C71.647 58.8628 72.0786 59.9609 72.9414 60.8235C73.7256 61.5295 75.2158 62.353 77.4116 63.2942L79.7646 64.2354C84.0786 66.1177 87.1372 68.0393 88.9414 70C91.1372 72.353 92.2354 75.3726 92.2354 79.0588C92.2354 83.1372 90.7451 86.353 87.7646 88.7061C84.9414 90.9805 81.2158 92.1177 76.5884 92.1177C72.4316 92.1177 68.8628 91.2158 65.8823 89.4119C63.1372 87.6863 61.0195 85.3726 59.5293 82.4707L67.1768 78.1177C68.2744 79.9216 69.4902 81.2942 70.8237 82.2354C72.3921 83.2549 74.2744 83.7646 76.4707 83.7646C78.353 83.7646 79.8823 83.3335 81.0591 82.4707C82.2354 81.6079 82.8237 80.4707 82.8237 79.0588C82.8237 77.6472 82.2354 76.4707 81.0591 75.5295C80.1963 74.9021 78.5098 74.0393 76 72.9412L73.647 71.8823C69.8823 70.3137 67.1372 68.5491 65.4116 66.5884C63.3726 64.3137 62.353 61.3726 62.353 57.7649C62.353 54.157 63.6079 51.1765 66.1177 48.8235C68.6274 46.4707 71.9609 45.2942 76.1177 45.2942ZM45.0591 45.8823H54.4707V78C54.4707 82.7061 53.1372 86.2747 50.4707 88.7061C48.0391 90.9805 44.6665 92.1177 40.353 92.1177C36.8237 92.1177 33.8042 91.2942 31.2939 89.6472C29.1768 88.157 27.4902 86.1177 26.2354 83.5295L34 78.9412C34.8628 80.5884 35.647 81.7256 36.353 82.353C37.2939 83.2942 38.5098 83.7646 40 83.7646C41.647 83.7646 42.8628 83.3726 43.647 82.5884C44.5884 81.6472 45.0591 80.0786 45.0591 77.8823V45.8823Z" fill="white"/>
</svg>
