<svg width="100" height="100" viewBox="0 0 100 100" fill="none" xmlns="http://www.w3.org/2000/svg">
<path d="M0 0V100H100V0H0ZM76.1176 45.2941C79.1765 45.2941 81.7843 45.8824 83.9412 47.0588C86.098 48.2353 87.9216 50.1569 89.4118 52.8235L82.1176 57.5294C81.3333 56.1176 80.4706 55.098 79.5294 54.4706C78.5882 53.8431 77.451 53.5294 76.1176 53.5294C74.7843 53.5294 73.7059 53.902 72.8824 54.6471C72.0588 55.3922 71.6471 56.3529 71.6471 57.5294C71.6471 58.8627 72.0784 59.9608 72.9412 60.8235C73.7255 61.5294 75.2157 62.3529 77.4118 63.2941L79.7647 64.2353C84.0784 66.1177 87.1373 68.0392 88.9412 70C91.1373 72.3529 92.2353 75.3725 92.2353 79.0588C92.2353 83.1373 90.7451 86.3529 87.7647 88.7059C84.9412 90.9804 81.2157 92.1177 76.5882 92.1177C72.4314 92.1177 68.8627 91.2157 65.8824 89.4118C63.1373 87.6863 61.0196 85.3725 59.5294 82.4706L67.1765 78.1176C68.2745 79.9216 69.4902 81.2941 70.8235 82.2353C72.3922 83.2549 74.2745 83.7647 76.4706 83.7647C78.3529 83.7647 79.8824 83.3333 81.0588 82.4706C82.2353 81.6078 82.8235 80.4706 82.8235 79.0588C82.8235 77.6471 82.2353 76.4706 81.0588 75.5294C80.1961 74.902 78.5098 74.0392 76 72.9412L73.6471 71.8824C69.8824 70.3137 67.1373 68.549 65.4118 66.5882C63.3726 64.3137 62.3529 61.3725 62.3529 57.7647C62.3529 54.1569 63.6078 51.1765 66.1176 48.8235C68.6274 46.4706 71.9608 45.2941 76.1176 45.2941ZM45.0588 45.8824H54.4706V78C54.4706 82.7059 53.1373 86.2745 50.4706 88.7059C48.0392 90.9804 44.6667 92.1177 40.3529 92.1177C36.8235 92.1177 33.8039 91.2941 31.2941 89.6471C29.1765 88.1569 27.4902 86.1176 26.2353 83.5294L34 78.9412C34.8627 80.5882 35.6471 81.7255 36.3529 82.3529C37.2941 83.2941 38.5098 83.7647 40 83.7647C41.6471 83.7647 42.8627 83.3725 43.6471 82.5882C44.5882 81.6471 45.0588 80.0784 45.0588 77.8824V45.8824Z" fill="#fff"/>
</svg>
