<svg width="200" height="200" viewBox="0 0 200 200" fill="none" xmlns="http://www.w3.org/2000/svg">
<path fill-rule="evenodd" clip-rule="evenodd" d="M0 200V0H200V200H0ZM152.235 90.5884C158.354 90.5884 163.568 91.7646 167.883 94.1177C172.196 96.4707 175.843 100.314 178.823 105.647L164.235 115.059C162.667 112.235 160.941 110.196 159.059 108.941C157.177 107.687 154.902 107.059 152.235 107.059C149.568 107.059 147.412 107.804 145.765 109.294C144.118 110.785 143.294 112.706 143.294 115.059C143.294 117.726 144.157 119.922 145.883 121.647C147.451 123.059 150.432 124.706 154.823 126.588L159.529 128.471C168.157 132.235 174.274 136.079 177.883 140C182.274 144.706 184.471 150.745 184.471 158.118C184.471 166.274 181.49 172.706 175.529 177.412C169.883 181.961 162.432 184.235 153.177 184.235C144.863 184.235 137.726 182.432 131.765 178.824C126.274 175.373 122.039 170.745 119.059 164.941L134.354 156.235C136.549 159.843 138.98 162.588 141.647 164.471C144.784 166.51 148.549 167.529 152.941 167.529C156.706 167.529 159.765 166.667 162.118 164.941C164.471 163.216 165.647 160.941 165.647 158.118C165.647 155.294 164.471 152.941 162.118 151.059C160.393 149.804 157.02 148.079 152 145.882L147.294 143.765C139.765 140.627 134.274 137.098 130.823 133.177C126.745 128.627 124.706 122.745 124.706 115.53C124.706 108.314 127.216 102.353 132.235 97.647C137.255 92.9414 143.922 90.5884 152.235 90.5884ZM90.1182 91.7646H108.941V156C108.941 165.412 106.274 172.549 100.941 177.412C96.0781 181.961 89.333 184.235 80.7061 184.235C73.6475 184.235 67.6084 182.588 62.5879 179.294C58.3535 176.314 54.9805 172.235 52.4707 167.059L68 157.882C69.7256 161.177 71.2939 163.451 72.7061 164.706C74.5879 166.588 77.0195 167.529 80 167.529C83.2939 167.529 85.7256 166.745 87.2939 165.177C89.1768 163.294 90.1182 160.157 90.1182 155.765V91.7646Z" fill="white"/>
</svg>
