<svg width="101" height="101" viewBox="0 0 101 101" fill="none" xmlns="http://www.w3.org/2000/svg">
<path d="M28.2472 51.2355C29.4691 50.53 29.8878 48.9675 29.1823 47.7456C28.4768 46.5236 26.9143 46.1049 25.6923 46.8104C24.4704 47.5159 24.0517 49.0784 24.7572 50.3004C25.4627 51.5224 27.0252 51.941 28.2472 51.2355Z" fill="white"/>
<path d="M28.2472 58.0484C29.4691 57.3429 29.8878 55.7804 29.1823 54.5584C28.4768 53.3365 26.9143 52.9178 25.6923 53.6233C24.4704 54.3288 24.0517 55.8913 24.7572 57.1133C25.4627 58.3352 27.0252 58.7539 28.2472 58.0484Z" fill="white"/>
<path d="M35.9952 47.7456C36.7007 48.9675 36.282 50.53 35.06 51.2355C33.8381 51.941 32.2756 51.5224 31.5701 50.3004C30.8646 49.0784 31.2832 47.5159 32.5052 46.8104C33.7272 46.1049 35.2897 46.5236 35.9952 47.7456Z" fill="white"/>
<path d="M35.06 58.0484C36.282 57.3429 36.7007 55.7804 35.9952 54.5584C35.2897 53.3365 33.7272 52.9178 32.5052 53.6233C31.2832 54.3288 30.8646 55.8913 31.5701 57.1133C32.2756 58.3352 33.8381 58.7539 35.06 58.0484Z" fill="white"/>
<path d="M42.808 47.7456C43.5135 48.9675 43.0949 50.53 41.8729 51.2355C40.651 51.941 39.0884 51.5224 38.3829 50.3004C37.6775 49.0784 38.0961 47.5159 39.3181 46.8104C40.54 46.1049 42.1025 46.5236 42.808 47.7456Z" fill="white"/>
<path d="M41.8729 58.0484C43.0949 57.3429 43.5135 55.7804 42.808 54.5584C42.1025 53.3365 40.54 52.9178 39.3181 53.6233C38.0961 54.3288 37.6775 55.8913 38.3829 57.1133C39.0884 58.3352 40.651 58.7539 41.8729 58.0484Z" fill="white"/>
<path d="M62.8516 47.7456C63.5571 48.9675 63.1385 50.53 61.9165 51.2355C60.6946 51.941 59.132 51.5224 58.4265 50.3004C57.7211 49.0784 58.1397 47.5159 59.3617 46.8104C60.5836 46.1049 62.1461 46.5236 62.8516 47.7456Z" fill="white"/>
<path d="M61.9165 58.0484C63.1385 57.3429 63.5571 55.7804 62.8516 54.5584C62.1461 53.3365 60.5836 52.9178 59.3617 53.6233C58.1397 54.3288 57.7211 55.8913 58.4265 57.1133C59.132 58.3352 60.6946 58.7539 61.9165 58.0484Z" fill="white"/>
<path d="M69.6645 47.7456C70.37 48.9675 69.9513 50.53 68.7294 51.2355C67.5074 51.941 65.9449 51.5224 65.2394 50.3004C64.5339 49.0784 64.9526 47.5159 66.1746 46.8104C67.3965 46.1049 68.959 46.5236 69.6645 47.7456Z" fill="white"/>
<path d="M68.7294 58.0484C69.9513 57.3429 70.37 55.7804 69.6645 54.5584C68.959 53.3365 67.3965 52.9178 66.1746 53.6233C64.9526 54.3288 64.5339 55.8913 65.2394 57.1133C65.9449 58.3352 67.5074 58.7539 68.7294 58.0484Z" fill="white"/>
<path d="M76.4774 47.7456C77.1829 48.9675 76.7642 50.53 75.5423 51.2355C74.3203 51.941 72.7578 51.5224 72.0523 50.3004C71.3468 49.0784 71.7655 47.5159 72.9874 46.8104C74.2094 46.1049 75.7719 46.5236 76.4774 47.7456Z" fill="white"/>
<path d="M75.5423 58.0484C76.7642 57.3429 77.1829 55.7804 76.4774 54.5584C75.7719 53.3365 74.2094 52.9178 72.9874 53.6233C71.7655 54.3288 71.3468 55.8913 72.0523 57.1133C72.7578 58.3352 74.3203 58.7539 75.5423 58.0484Z" fill="white"/>
<path fill-rule="evenodd" clip-rule="evenodd" d="M29.8252 15.3623C14.7746 15.3623 2.57373 27.5632 2.57373 42.6138V52.068C2.57373 67.1186 14.7746 79.3195 29.8252 79.3195H32.8462C32.8463 83.0829 35.8971 86.1337 39.6605 86.1337H61.5727C65.3361 86.1337 68.3869 83.0829 68.387 79.3195H71.4082C86.4587 79.3195 98.6597 67.1186 98.6597 52.068V42.6138C98.6597 27.5632 86.4587 15.3623 71.4082 15.3623H29.8252ZM11.1265 51.105C11.1265 41.228 19.1333 33.2212 29.0103 33.2212H72.2223C82.0992 33.2212 90.1061 41.228 90.1061 51.105C90.1061 60.9819 82.0992 68.9888 72.2223 68.9888H29.0103C19.1333 68.9888 11.1265 60.9819 11.1265 51.105Z" fill="white"/>
</svg>
