<svg width="64" height="64" viewBox="0 0 64 64" fill="none" xmlns="http://www.w3.org/2000/svg">
<path d="M8.76489 0.565097C8.01143 -0.188366 6.78982 -0.188366 6.03636 0.565097L0.565099 6.03635C-0.188365 6.78982 -0.188367 8.01142 0.565096 8.76488L22.436 30.6357C23.1894 31.3892 23.1894 32.6108 22.436 33.3643L0.565098 55.2351C-0.188365 55.9886 -0.188365 57.2102 0.565099 57.9636L6.03636 63.4349C6.78982 64.1884 8.01143 64.1884 8.76489 63.4349L30.6357 41.5641C31.3892 40.8106 32.6108 40.8106 33.3643 41.5641L55.2351 63.4349C55.9886 64.1883 57.2102 64.1883 57.9636 63.4349L63.4349 57.9636C64.1884 57.2102 64.1884 55.9885 63.4349 55.2351L41.5641 33.3643C40.8106 32.6108 40.8106 31.3892 41.5641 30.6357L63.4349 8.76491C64.1884 8.01144 64.1884 6.78984 63.4349 6.03638L57.9636 0.565119C57.2102 -0.188344 55.9886 -0.188344 55.2351 0.56512L33.3643 22.4359C32.6108 23.1894 31.3892 23.1894 30.6357 22.4359L8.76489 0.565097Z" fill="#5A5A5A"/>
</svg>
