<svg width="100" height="100" viewBox="0 0 100 100" fill="none" xmlns="http://www.w3.org/2000/svg">
<path fill-rule="evenodd" clip-rule="evenodd" d="M4 20V75.9999H69.1V38.6666H92.35V20H4ZM48.5071 73.9999C49.6078 73.9999 50.5 73.1045 50.5 71.9999C50.5 70.8954 49.6078 69.9999 48.5071 69.9999C47.4065 69.9999 46.5143 70.8954 46.5143 71.9999C46.5143 73.1045 47.4065 73.9999 48.5071 73.9999Z" fill="white"/>
<path d="M31.8999 80.6666H64.4499V85.3333H31.8999V80.6666Z" fill="white"/>
<path fill-rule="evenodd" clip-rule="evenodd" d="M73.75 90V43.3334H97V90H73.75ZM87.7 86.6666C87.7 87.7711 86.8078 88.6666 85.7071 88.6666C84.6065 88.6666 83.7143 87.7711 83.7143 86.6666C83.7143 85.562 84.6065 84.6666 85.7071 84.6666C86.8078 84.6666 87.7 85.562 87.7 86.6666Z" fill="white"/>
</svg>
