<svg width="100" height="100" viewBox="0 0 100 100" fill="none" xmlns="http://www.w3.org/2000/svg">
<path d="M97.2683 15.5843C99.337 18.0521 97.9785 21.8765 94.2419 25.729C90.9274 29.2253 73.2571 47.5111 62.428 56.9433C55.5423 63.5752 48.955 68.6264 44.3363 69.4581C41.4159 69.9845 38.9893 69.3816 38.0525 68.2624L35.0319 64.6584C34.0939 63.5392 33.9265 61.0436 34.9555 58.2606C36.584 53.8588 42.7104 48.2597 50.446 42.6419C61.6286 33.6333 82.7281 19.4389 86.751 16.7884C91.1975 13.7827 95.2008 13.1164 97.2683 15.5843Z" fill="white"/>
<path d="M38.0095 73.051C38.8466 77.512 37.3175 82.281 33.5913 85.4034C24.6568 92.8899 9.468 92.3421 2.19556 86.1127C2.19556 86.1127 3.10238 85.5084 4.80272 83.3871C9.52495 77.5052 10.9985 70.4731 16.9233 65.5091C20.6509 62.3869 25.6147 61.7185 29.8583 63.3228L38.0095 73.051Z" fill="white"/>
</svg>
