<svg width="123" height="16" viewBox="0 0 123 16" fill="none" xmlns="http://www.w3.org/2000/svg">
<path d="M12.6616 14.5998C13.0016 15.0198 13.3416 15.1998 13.8216 15.1998C14.7416 15.1998 15.5216 14.4998 15.7216 13.3398L18.0016 0.319766H15.0216L13.2216 10.2798L5.42156 0.859766C5.06156 0.419766 4.72156 0.279765 4.26156 0.279765C3.30156 0.279765 2.58156 0.979766 2.38156 2.11977L0.101562 14.9998H3.06156L4.80156 5.03977L12.6616 14.5998Z" fill="#5A5A5A"/>
<path d="M36.2211 14.9998L30.3811 1.25977C30.1211 0.659766 29.7411 0.259766 29.0611 0.259766C28.3811 0.259766 27.8411 0.659766 27.3811 1.25977L16.7011 14.9998H20.2411L28.1611 4.65977L30.0411 9.13977H26.7611L24.9011 11.5598H31.0411L32.4811 14.9998H36.2211Z" fill="#5A5A5A"/>
<path d="M42.5662 14.9998L44.5863 3.57977H49.9263L50.4663 0.459765H36.6662L36.1263 3.57977H41.4663L39.4463 14.9998H42.5662Z" fill="#5A5A5A"/>
<path d="M59.3888 14.9998C64.1088 14.9998 68.0687 11.1598 68.0687 6.37977C68.0687 2.85977 65.7287 0.459765 61.9487 0.459765H58.3488C53.6888 0.459765 49.7887 3.89977 49.7887 8.77977C49.7887 12.3398 52.1487 14.9998 55.7887 14.9998H59.3888ZM56.3488 11.8798C54.2688 11.8798 52.9287 10.4398 52.9287 8.41977C52.9287 5.67977 55.1688 3.57977 57.8088 3.57977H61.4088C63.5288 3.57977 64.8688 5.01977 64.8688 7.03977C64.8688 9.77977 62.6687 11.8798 59.9487 11.8798H56.3488Z" fill="#5A5A5A"/>
<path d="M82.3219 8.57977C81.8619 11.1598 80.5619 12.1398 76.8419 12.1398C73.7219 12.1398 72.4819 11.8398 72.4819 9.91977C72.4819 9.53977 72.5219 9.09977 72.6219 8.57977L74.0419 0.459765H70.8219L69.4019 8.57977C69.2819 9.23977 69.2219 9.81977 69.2219 10.3798C69.2219 13.6398 71.3219 15.1998 76.2019 15.1998C81.9019 15.1998 84.5819 13.0798 85.3619 8.57977L86.7819 0.459765H83.7419L82.3219 8.57977Z" fill="#5A5A5A"/>
<path d="M103.714 14.9998L100.134 10.6198C102.474 9.75977 104.014 7.69977 104.014 4.83977C104.014 2.15977 102.394 0.459765 99.4339 0.459765H88.8739L86.3139 14.9998H89.4139L91.4339 3.57977H98.8939C100.174 3.57977 100.894 4.23977 100.894 5.45977C100.894 7.19977 99.8339 8.37977 98.0339 8.37977H92.3939L91.9339 11.0398H96.4539L99.2939 14.9998H103.714Z" fill="#5A5A5A"/>
<path d="M115.81 14.9998C119.45 14.9998 121.39 12.6798 121.39 9.73977C121.39 7.47977 119.97 6.37977 117.33 6.37977H110.79C110.05 6.37977 109.59 5.97977 109.59 5.23977C109.59 4.21977 110.27 3.57977 111.29 3.57977H121.81L122.35 0.459765H111.83C108.41 0.459765 106.35 2.65977 106.35 5.33977C106.35 7.39977 107.79 8.83977 110.31 8.83977H116.89C117.87 8.83977 118.41 9.29977 118.41 10.0998C118.41 11.1798 117.63 11.8798 116.37 11.8798H105.39L104.83 14.9998H115.81Z" fill="#5A5A5A"/>
</svg>
