<svg width="88" height="15" viewBox="0 0 88 15" fill="none" xmlns="http://www.w3.org/2000/svg">
<path d="M43.9112 0H48.3096L34.4515 14.2793H30.0513L43.9112 0Z" fill="#808080"/>
<path d="M38.8517 14.2793L52.7098 0H57.1099L43.2519 14.2793H38.8517Z" fill="#808080"/>
<path d="M0 4.43994L4.30957 0H0V4.43994Z" fill="#808080"/>
<path d="M13.1099 0L0 13.5068V8.97363L8.70978 0H13.1099Z" fill="#808080"/>
<path d="M8.05042 14.2793L21.9103 0H17.5101L3.65027 14.2793H8.05042Z" fill="#808080"/>
<path d="M30.7107 0L16.8508 14.2793H12.4506L26.3105 0H30.7107Z" fill="#808080"/>
<path d="M25.6511 14.2793L39.511 0H35.1108L21.2509 14.2793H25.6511Z" fill="#808080"/>
<path d="M87.9112 0H88V4.44189L78.4515 14.2793H74.0513L87.9112 0Z" fill="#808080"/>
<path d="M82.8517 14.2793L88 8.97559V13.5088L87.2519 14.2793H82.8517Z" fill="#808080"/>
<path d="M52.0504 14.2793L65.9103 0H61.5101L47.6502 14.2793H52.0504Z" fill="#808080"/>
<path d="M74.7107 0L60.8508 14.2793H56.4506L70.3105 0H74.7107Z" fill="#808080"/>
<path d="M69.6511 14.2793L83.511 0H79.1108L65.2509 14.2793H69.6511Z" fill="#808080"/>
</svg>
