<svg width="274" height="14" viewBox="0 0 274 14" fill="none" xmlns="http://www.w3.org/2000/svg">
<path d="M10.368 7.168L10.736 5.056H5.12L4.752 7.168H10.368ZM2.48 11.792L4.096 2.656H11.648L12.08 0.16H2.048L0 11.792H2.48Z" fill="#5A5A5A"/>
<path d="M21.2973 11.792L21.7453 9.296H14.2253L15.8252 0.16H13.3293L11.2812 11.792H21.2973Z" fill="#5A5A5A"/>
<path d="M33.5698 6.864L33.9217 4.896H27.7458L27.3937 6.864H33.5698ZM33.1698 11.792L33.6178 9.296H25.5217L26.6898 2.656H34.7698L35.2018 0.16H24.6418L22.5938 11.792H33.1698Z" fill="#5A5A5A"/>
<path d="M49.55 11.792L44.43 5.76L51.086 0.16H47.79L43.166 4.16L39.966 0.16H36.59L41.294 5.664L34.094 11.792H37.374L42.526 7.328L46.11 11.792H49.55Z" fill="#5A5A5A"/>
<path d="M59.6917 11.792C62.2998 11.792 64.2357 10.08 64.2357 7.664C64.2357 6.672 63.7397 5.92 63.0518 5.6C63.8997 5.232 64.8757 4.384 64.8757 2.704C64.8757 1.024 63.5477 0.16 61.4357 0.16H52.8758L50.8278 11.792H59.6917ZM60.4757 6.864C61.2598 6.864 61.6758 7.232 61.6758 7.856C61.6758 8.848 60.8598 9.312 59.6758 9.312H53.7557L54.9398 2.64H60.6678C61.6278 2.64 62.2038 2.864 62.2038 3.568C62.2038 4.416 61.7397 4.896 60.6517 4.896H55.9798L55.6278 6.864H60.4757Z" fill="#5A5A5A"/>
<path d="M73.4286 11.792C77.2046 11.792 80.3726 8.72 80.3726 4.896C80.3726 2.08 78.5006 0.16 75.4766 0.16H72.5966C68.8686 0.16 65.7486 2.912 65.7486 6.816C65.7486 9.664 67.6366 11.792 70.5486 11.792H73.4286ZM70.9966 9.296C69.3326 9.296 68.2606 8.144 68.2606 6.528C68.2606 4.336 70.0526 2.656 72.1646 2.656H75.0446C76.7406 2.656 77.8126 3.808 77.8126 5.424C77.8126 7.616 76.0526 9.296 73.8766 9.296H70.9966Z" fill="#5A5A5A"/>
<path d="M90.117 11.168C90.293 11.712 90.725 11.952 91.253 11.952C91.781 11.952 92.293 11.696 92.677 11.168L100.549 0.16H97.749L91.957 8.448L89.349 0.16H86.357L88.245 5.696L86.229 8.448L83.365 0.16H80.389L84.373 11.168C84.565 11.696 84.981 11.952 85.525 11.952C86.037 11.952 86.549 11.712 86.933 11.168L89.093 8.112L90.117 11.168Z" fill="#5A5A5A"/>
<path d="M98.5147 13.68L100.195 9.312H97.6827L96.8828 13.68H98.5147Z" fill="#5A5A5A"/>
<path d="M118.95 11.792L120.166 4.896H112.758L112.406 6.864H117.318L116.902 9.296H112.262C110.598 9.296 109.526 8.144 109.526 6.528C109.526 4.336 111.318 2.656 113.43 2.656H119.846L120.278 0.16H113.862C110.134 0.16 107.014 2.912 107.014 6.816C107.014 9.664 108.902 11.792 111.814 11.792H118.95Z" fill="#5A5A5A"/>
<path d="M134.576 11.792L131.712 8.288C133.584 7.6 134.816 5.952 134.816 3.664C134.816 1.52 133.52 0.16 131.152 0.16H122.704L120.656 11.792H123.136L124.752 2.656H130.72C131.744 2.656 132.32 3.184 132.32 4.16C132.32 5.552 131.472 6.496 130.032 6.496H125.52L125.152 8.624H128.768L131.04 11.792H134.576Z" fill="#5A5A5A"/>
<path d="M138.077 11.792L140.125 0.16H137.629L135.581 11.792H138.077Z" fill="#5A5A5A"/>
<path d="M146.895 11.792C150.655 11.792 153.807 8.72 153.807 4.912C153.807 2.096 151.903 0.16 148.943 0.16H142.095L140.047 11.792H146.895ZM142.975 9.296L144.143 2.656H148.511C150.175 2.656 151.247 3.808 151.247 5.44C151.247 7.616 149.455 9.296 147.343 9.296H142.975Z" fill="#5A5A5A"/>
<path d="M154.718 13.68L156.398 9.312H153.886L153.086 13.68H154.718Z" fill="#5A5A5A"/>
<path d="M171.457 11.792C174.065 11.792 176.001 10.08 176.001 7.664C176.001 6.672 175.505 5.92 174.817 5.6C175.665 5.232 176.641 4.384 176.641 2.704C176.641 1.024 175.313 0.16 173.201 0.16H164.641L162.593 11.792H171.457ZM172.241 6.864C173.025 6.864 173.441 7.232 173.441 7.856C173.441 8.848 172.625 9.312 171.441 9.312H165.521L166.705 2.64H172.433C173.393 2.64 173.969 2.864 173.969 3.568C173.969 4.416 173.505 4.896 172.417 4.896H167.745L167.393 6.864H172.241Z" fill="#5A5A5A"/>
<path d="M187.882 6.864L188.234 4.896H182.058L181.706 6.864H187.882ZM187.482 11.792L187.93 9.296H179.834L181.002 2.656H189.082L189.514 0.16H178.954L176.906 11.792H187.482Z" fill="#5A5A5A"/>
<path d="M205.863 11.792L204.934 1.024C204.87 0.352 204.534 0.0159998 203.926 0.0159998C203.398 0.0159998 202.934 0.320001 202.598 0.848001L197.766 8.24L195.686 0.848001C195.542 0.320001 195.111 0.0159998 194.583 0.0159998C193.943 0.0159998 193.479 0.352 193.191 1.024L188.439 11.792H190.887L194.15 4.448L195.99 11.024C196.15 11.616 196.502 11.952 197.094 11.952C197.702 11.952 198.134 11.616 198.518 11.024L202.87 4.448L203.398 11.792H205.863Z" fill="#5A5A5A"/>
<path d="M208.343 13.68L210.023 9.312H207.511L206.711 13.68H208.343Z" fill="#5A5A5A"/>
<path d="M225.018 11.792C227.93 11.792 229.482 9.936 229.482 7.584C229.482 5.776 228.346 4.896 226.234 4.896H221.002C220.41 4.896 220.042 4.576 220.042 3.984C220.042 3.168 220.586 2.656 221.402 2.656H229.818L230.25 0.16H221.834C219.098 0.16 217.45 1.92 217.45 4.064C217.45 5.712 218.602 6.864 220.618 6.864H225.882C226.666 6.864 227.098 7.232 227.098 7.872C227.098 8.736 226.474 9.296 225.466 9.296H216.682L216.234 11.792H225.018Z" fill="#5A5A5A"/>
<path d="M244.441 11.792L239.769 0.8C239.561 0.320001 239.257 0 238.713 0C238.169 0 237.737 0.320001 237.369 0.8L228.825 11.792H231.657L237.993 3.52L239.497 7.104H236.873L235.385 9.04H240.297L241.449 11.792H244.441Z" fill="#5A5A5A"/>
<path d="M254.315 11.792C257.227 11.792 258.779 9.936 258.779 7.584C258.779 5.776 257.643 4.896 255.531 4.896H250.299C249.707 4.896 249.339 4.576 249.339 3.984C249.339 3.168 249.883 2.656 250.699 2.656H259.115L259.547 0.16H251.131C248.395 0.16 246.747 1.92 246.747 4.064C246.747 5.712 247.899 6.864 249.915 6.864H255.179C255.963 6.864 256.395 7.232 256.395 7.872C256.395 8.736 255.771 9.296 254.763 9.296H245.979L245.531 11.792H254.315Z" fill="#5A5A5A"/>
<path d="M268.44 11.792C271.352 11.792 272.904 9.936 272.904 7.584C272.904 5.776 271.768 4.896 269.656 4.896H264.424C263.832 4.896 263.464 4.576 263.464 3.984C263.464 3.168 264.008 2.656 264.824 2.656H273.24L273.672 0.16H265.256C262.52 0.16 260.872 1.92 260.872 4.064C260.872 5.712 262.024 6.864 264.04 6.864H269.304C270.088 6.864 270.52 7.232 270.52 7.872C270.52 8.736 269.896 9.296 268.888 9.296H260.104L259.656 11.792H268.44Z" fill="#5A5A5A"/>
</svg>
