<svg width="98" height="21" viewBox="0 0 98 21" fill="none" xmlns="http://www.w3.org/2000/svg">
<path d="M16.4903 20.3067L18.3399 12.4577H10.2119L11.3789 7.50538H19.5069L21.2612 0.0612793H26.8612L22.0903 20.3067H16.4903ZM0.90625 20.3067L5.67715 0.0612793H11.2772L6.50625 20.3067H0.90625Z" fill="#5A5A5A"/>
<path d="M32.153 20.3067L35.6981 5.2628H28.0501L29.2759 0.0612793H50.1719L48.9461 5.2628H41.2981L37.753 20.3067H32.153Z" fill="#5A5A5A"/>
<path d="M70.137 20.3067L70.1331 7.28735L63.9041 18.3756C63.2167 19.663 62.1903 20.3067 60.825 20.3067H59.129C57.7637 20.3067 57.0407 19.663 56.9601 18.3756L56.0084 7.06932L49.817 20.3067H44.281L52.7328 2.36615C53.104 1.5148 53.5635 0.923009 54.1111 0.590776C54.6636 0.237778 55.2919 0.0612793 55.9959 0.0612793H58.3319C59.6972 0.0612793 60.4284 0.715363 60.5255 2.02353L61.4463 14.1397L68.0455 2.02353C68.7591 0.715363 69.7879 0.0612793 71.1319 0.0612793H73.4679C74.1719 0.0612793 74.717 0.237778 75.1031 0.590776C75.4942 0.923009 75.6854 1.5148 75.6768 2.36615L75.705 20.3067H70.137Z" fill="#5A5A5A"/>
<path d="M77.8438 20.3067L82.6147 0.0612793H88.2467L84.7088 15.0741H97.3808L96.1478 20.3067H77.8438Z" fill="#5A5A5A"/>
</svg>
