<svg width="124" height="21" viewBox="0 0 124 21" fill="none" xmlns="http://www.w3.org/2000/svg">
<path d="M16.6789 20.3067L13.7299 15.1675H8.80193L9.91758 10.4332H17.0856C17.8536 10.4332 18.5367 10.2048 19.1351 9.74795C19.7383 9.27037 20.1328 8.63705 20.3188 7.84799C20.5047 7.05894 20.4062 6.436 20.0232 5.97918C19.6451 5.5016 19.072 5.2628 18.304 5.2628H9.536L5.99085 20.3067H0.422852L5.19375 0.0612793H19.5298C20.7244 0.0612793 21.779 0.248161 22.6936 0.621923C23.6131 0.974921 24.3572 1.48365 24.926 2.14812C25.5161 2.81259 25.9037 3.61202 26.0888 4.54643C26.274 5.48083 26.2344 6.50868 25.9702 7.62997C25.6032 9.18731 24.8987 10.5474 23.8567 11.7102C22.8146 12.873 21.572 13.7555 20.1288 14.3577L23.9749 20.3067H16.6789Z" fill="#5A5A5A"/>
<path d="M35.2652 12.302L36.2854 7.97258H48.5734L47.5532 12.302H35.2652ZM25.9229 20.3067L30.6938 0.0612793H50.6618L49.436 5.2628H35.068L32.7559 15.0741H47.1559L45.9229 20.3067H25.9229Z" fill="#5A5A5A"/>
<path d="M69.2049 20.3067L68.2108 17.1921H58.4508L61.8391 12.8626H66.8631L64.8451 6.35294L53.9409 20.3067H47.7649L62.8074 1.55633C63.6183 0.559629 64.5678 0.0612793 65.6558 0.0612793H66.9358C68.0238 0.0612793 68.7383 0.559629 69.0794 1.55633L75.2849 20.3067H69.2049Z" fill="#5A5A5A"/>
<path d="M85.4464 20.3067C83.8463 20.3067 82.4306 20.0679 81.1992 19.5904C79.9726 19.092 78.9714 18.4068 78.1956 17.5347C77.446 16.6418 76.9407 15.5724 76.6796 14.3265C76.4185 13.0807 76.4666 11.6998 76.8238 10.184C77.181 8.66819 77.7813 7.29773 78.6247 6.07262C79.4729 4.82675 80.4823 3.75737 81.6527 2.8645C82.8444 1.97162 84.1686 1.28639 85.6251 0.808803C87.0865 0.310454 88.6173 0.0612793 90.2173 0.0612793H100.393L99.1675 5.2628H88.6075C87.8822 5.2628 87.1808 5.38739 86.5034 5.63657C85.8309 5.86498 85.2193 6.19721 84.6685 6.63327C84.1178 7.06932 83.6435 7.58844 83.2456 8.19061C82.8476 8.79278 82.5631 9.45725 82.3918 10.184C82.2205 10.9108 82.192 11.5752 82.3061 12.1774C82.4201 12.7796 82.6498 13.2987 82.9951 13.7347C83.3452 14.15 83.8002 14.4823 84.3602 14.7314C84.925 14.9599 85.5701 15.0741 86.2954 15.0741H96.8554L95.6224 20.3067H85.4464Z" fill="#5A5A5A"/>
<path d="M105.295 20.3067L108.84 5.2628H101.192L102.418 0.0612793H123.314L122.088 5.2628H114.44L110.895 20.3067H105.295Z" fill="#5A5A5A"/>
</svg>
