<svg width="151" height="21" viewBox="0 0 151 21" fill="none" xmlns="http://www.w3.org/2000/svg">
<path d="M9.25597 15.2921L10.3936 10.4643H17.1456C17.8923 10.4643 18.5672 10.2255 19.1705 9.74795C19.795 9.27037 20.1978 8.64743 20.3789 7.87914C20.5648 7.09009 20.458 6.45677 20.0586 5.97918C19.6805 5.5016 19.1181 5.2628 18.3714 5.2628H10.0194L6.47425 20.3067H0.90625L5.67715 0.0612793H19.5012C20.7172 0.0612793 21.7824 0.248161 22.697 0.621923C23.633 0.995685 24.3853 1.5148 24.954 2.17927C25.5441 2.84373 25.9317 3.64317 26.1169 4.57757C26.302 5.51198 26.26 6.55021 25.9909 7.69226C25.7267 8.81355 25.2818 9.84139 24.6562 10.7758C24.0307 11.7102 23.2639 12.52 22.3557 13.2053C21.4738 13.8697 20.4768 14.3888 19.3647 14.7626C18.2789 15.1156 17.128 15.2921 15.912 15.2921H9.25597Z" fill="#5A5A5A"/>
<path d="M31.465 20.3067L33.1458 13.1741L26.6999 0.0612793H33.2599L37.2469 8.12831L45.0679 0.0612793H51.3399L38.7458 13.1741L37.065 20.3067H31.465Z" fill="#5A5A5A"/>
<path d="M55.153 20.3067L58.6981 5.2628H51.0501L52.2759 0.0612793H73.1719L71.9462 5.2628H64.2981L60.753 20.3067H55.153Z" fill="#5A5A5A"/>
<path d="M86.3965 20.3067L88.2461 12.4577H80.1181L81.2852 7.50538H89.4132L91.1674 0.0612793H96.7674L91.9965 20.3067H86.3965ZM70.8125 20.3067L75.5834 0.0612793H81.1834L76.4125 20.3067H70.8125Z" fill="#5A5A5A"/>
<path d="M110.492 15.0741C111.218 15.0741 111.917 14.9599 112.589 14.7314C113.266 14.4823 113.878 14.15 114.424 13.7347C114.975 13.2987 115.438 12.7796 115.815 12.1774C116.213 11.5752 116.497 10.9108 116.669 10.184C116.84 9.45725 116.869 8.79278 116.754 8.19061C116.662 7.58844 116.443 7.06932 116.097 6.63327C115.752 6.19721 115.297 5.86498 114.732 5.63657C114.172 5.38739 113.53 5.2628 112.804 5.2628H109.028C108.303 5.2628 107.602 5.38739 106.924 5.63657C106.252 5.86498 105.64 6.19721 105.089 6.63327C104.539 7.06932 104.064 7.58844 103.666 8.19061C103.269 8.79278 102.984 9.45725 102.813 10.184C102.641 10.9108 102.602 11.5752 102.695 12.1774C102.809 12.7796 103.039 13.2987 103.384 13.7347C103.734 14.15 104.189 14.4823 104.749 14.7314C105.314 14.9599 105.97 15.0741 106.716 15.0741H110.492ZM105.867 20.3067C104.267 20.3067 102.852 20.0679 101.62 19.5904C100.394 19.092 99.3923 18.4068 98.6165 17.5347C97.8669 16.6418 97.3616 15.5724 97.1005 14.3265C96.8394 13.0807 96.8875 11.6998 97.2447 10.184C97.6019 8.66819 98.2022 7.29773 99.0456 6.07262C99.8938 4.82675 100.903 3.75737 102.074 2.8645C103.265 1.97162 104.589 1.28639 106.046 0.808803C107.507 0.310454 109.038 0.0612793 110.638 0.0612793H113.646C115.225 0.0612793 116.627 0.310454 117.854 0.808803C119.085 1.28639 120.076 1.97162 120.826 2.8645C121.596 3.75737 122.112 4.82675 122.374 6.07262C122.64 7.29773 122.594 8.66819 122.237 10.184C121.879 11.6998 121.277 13.0807 120.429 14.3265C119.58 15.5724 118.56 16.6418 117.368 17.5347C116.203 18.4068 114.89 19.092 113.428 19.5904C111.972 20.0679 110.454 20.3067 108.875 20.3067H105.867Z" fill="#5A5A5A"/>
<path d="M142.048 20.3067C141.301 20.3067 140.746 20.1718 140.383 19.9018C140.02 19.6319 139.643 19.1958 139.251 18.5937L131.188 7.3185L128.128 20.3067H122.688L126.915 2.36615C127.277 0.829568 128.322 0.0612793 130.05 0.0612793H131.394C131.821 0.0612793 132.187 0.0924264 132.492 0.154721C132.798 0.217013 133.064 0.310454 133.29 0.435042C133.517 0.559629 133.715 0.715363 133.884 0.902245C134.075 1.08913 134.258 1.30715 134.434 1.55633L141.829 11.8659L144.61 0.0612793H150.018L145.739 18.2199C145.411 19.6111 144.554 20.3067 143.167 20.3067H142.048Z" fill="#5A5A5A"/>
</svg>
