<svg width="218" height="36" viewBox="0 0 218 36" fill="none" xmlns="http://www.w3.org/2000/svg">
<mask id="path-1-outside-1_1258_11" maskUnits="userSpaceOnUse" x="-0.0859375" y="-1" width="218" height="37" fill="black">
<rect fill="#5A5A5A" x="-0.0859375" y="-1" width="218" height="37"/>
<path d="M35.9876 35H17.4743C7.93575 35 0.887557 27.4819 0.887557 17.5675C0.887557 7.51205 7.93575 0.839755 17.4743 0.839755H35.9876V6.80723H17.4743C11.3659 6.80723 6.85503 11.3651 6.85503 17.8494C6.85503 24.2867 11.3189 29.0325 17.4743 29.0325H35.9876V35ZM64.749 35H56.4321C46.8935 35 39.8453 27.4819 39.8453 17.5675C39.8453 7.51205 46.8935 0.839755 56.4321 0.839755H64.749C74.6164 0.839755 81.4767 7.65301 81.4767 17.5675C81.4767 27.4819 74.4755 35 64.749 35ZM56.4321 29.0325H64.749C71.0453 29.0325 75.5092 24.2867 75.5092 17.8494C75.5092 11.412 71.0453 6.80723 64.749 6.80723H56.4321C50.3237 6.80723 45.8128 11.3651 45.8128 17.8494C45.8128 24.2867 50.2767 29.0325 56.4321 29.0325ZM106.088 35H86.3058V0.839755H106.088C115.72 0.839755 122.721 7.65301 122.721 17.5675C122.721 27.4819 115.72 35 106.088 35ZM92.2263 29.0325H106.088C112.243 29.0325 116.754 24.2867 116.754 17.8494C116.754 11.412 112.243 6.80723 106.088 6.80723H92.2263V29.0325ZM133.9 35H127.933V0.839755H133.9V35ZM169.686 34.1542L145.675 10.0024V35H139.99V3.98795C139.99 1.77952 141.165 0.416864 143.044 0.416864C143.937 0.416864 144.689 0.745781 145.581 1.63855L169.686 25.5554V0.557828H175.372V31.8518C175.372 34.1072 174.15 35.4229 172.412 35.4229C171.425 35.4229 170.532 35 169.686 34.1542ZM217.381 35H196.754C187.215 35 180.167 27.4819 180.167 17.5675C180.167 7.51205 187.215 0.839755 196.754 0.839755H215.267V6.80723H196.754C190.645 6.80723 186.134 11.3651 186.134 17.8494C186.134 24.2867 190.598 29.0325 196.754 29.0325H211.367V20.1518H195.955V15.1241H217.381V35Z"/>
</mask>
<path d="M35.9876 35H17.4743C7.93575 35 0.887557 27.4819 0.887557 17.5675C0.887557 7.51205 7.93575 0.839755 17.4743 0.839755H35.9876V6.80723H17.4743C11.3659 6.80723 6.85503 11.3651 6.85503 17.8494C6.85503 24.2867 11.3189 29.0325 17.4743 29.0325H35.9876V35ZM64.749 35H56.4321C46.8935 35 39.8453 27.4819 39.8453 17.5675C39.8453 7.51205 46.8935 0.839755 56.4321 0.839755H64.749C74.6164 0.839755 81.4767 7.65301 81.4767 17.5675C81.4767 27.4819 74.4755 35 64.749 35ZM56.4321 29.0325H64.749C71.0453 29.0325 75.5092 24.2867 75.5092 17.8494C75.5092 11.412 71.0453 6.80723 64.749 6.80723H56.4321C50.3237 6.80723 45.8128 11.3651 45.8128 17.8494C45.8128 24.2867 50.2767 29.0325 56.4321 29.0325ZM106.088 35H86.3058V0.839755H106.088C115.72 0.839755 122.721 7.65301 122.721 17.5675C122.721 27.4819 115.72 35 106.088 35ZM92.2263 29.0325H106.088C112.243 29.0325 116.754 24.2867 116.754 17.8494C116.754 11.412 112.243 6.80723 106.088 6.80723H92.2263V29.0325ZM133.9 35H127.933V0.839755H133.9V35ZM169.686 34.1542L145.675 10.0024V35H139.99V3.98795C139.99 1.77952 141.165 0.416864 143.044 0.416864C143.937 0.416864 144.689 0.745781 145.581 1.63855L169.686 25.5554V0.557828H175.372V31.8518C175.372 34.1072 174.15 35.4229 172.412 35.4229C171.425 35.4229 170.532 35 169.686 34.1542ZM217.381 35H196.754C187.215 35 180.167 27.4819 180.167 17.5675C180.167 7.51205 187.215 0.839755 196.754 0.839755H215.267V6.80723H196.754C190.645 6.80723 186.134 11.3651 186.134 17.8494C186.134 24.2867 190.598 29.0325 196.754 29.0325H211.367V20.1518H195.955V15.1241H217.381V35Z" fill="#5A5A5A"/>
<path d="M35.9876 35V35.5H36.4876V35H35.9876ZM35.9876 0.839755H36.4876V0.339755H35.9876V0.839755ZM35.9876 6.80723V7.30723H36.4876V6.80723H35.9876ZM35.9876 29.0325H36.4876V28.5325H35.9876V29.0325ZM35.9876 34.5H17.4743V35.5H35.9876V34.5ZM17.4743 34.5C8.23707 34.5 1.38756 27.2317 1.38756 17.5675H0.387557C0.387557 27.7322 7.63443 35.5 17.4743 35.5V34.5ZM1.38756 17.5675C1.38756 12.6605 3.1049 8.61066 5.95576 5.78814C8.8077 2.96455 12.8238 1.33976 17.4743 1.33976V0.339755C12.5862 0.339755 8.30898 2.05111 5.25219 5.07751C2.19431 8.105 0.387557 12.419 0.387557 17.5675H1.38756ZM17.4743 1.33976H35.9876V0.339755H17.4743V1.33976ZM35.4876 0.839755V6.80723H36.4876V0.839755H35.4876ZM35.9876 6.30723H17.4743V7.30723H35.9876V6.30723ZM17.4743 6.30723C11.0754 6.30723 6.35503 11.1034 6.35503 17.8494H7.35503C7.35503 11.6267 11.6563 7.30723 17.4743 7.30723V6.30723ZM6.35503 17.8494C6.35503 24.5368 11.0174 29.5325 17.4743 29.5325V28.5325C11.6204 28.5325 7.35503 24.0367 7.35503 17.8494H6.35503ZM17.4743 29.5325H35.9876V28.5325H17.4743V29.5325ZM35.4876 29.0325V35H36.4876V29.0325H35.4876ZM64.749 34.5H56.4321V35.5H64.749V34.5ZM56.4321 34.5C47.1949 34.5 40.3453 27.2317 40.3453 17.5675H39.3453C39.3453 27.7322 46.5922 35.5 56.4321 35.5V34.5ZM40.3453 17.5675C40.3453 12.6605 42.0627 8.61066 44.9135 5.78814C47.7655 2.96455 51.7816 1.33976 56.4321 1.33976V0.339755C51.544 0.339755 47.2668 2.05111 44.21 5.07751C41.1521 8.105 39.3453 12.419 39.3453 17.5675H40.3453ZM56.4321 1.33976H64.749V0.339755H56.4321V1.33976ZM64.749 1.33976C69.5648 1.33976 73.615 3.0003 76.4599 5.8396C79.3047 8.67874 80.9767 12.7287 80.9767 17.5675H81.9767C81.9767 12.4918 80.2185 8.17788 77.1663 5.13178C74.1143 2.08584 69.8006 0.339755 64.749 0.339755V1.33976ZM80.9767 17.5675C80.9767 27.2297 74.176 34.5 64.749 34.5V35.5C74.775 35.5 81.9767 27.7341 81.9767 17.5675H80.9767ZM56.4321 29.5325H64.749V28.5325H56.4321V29.5325ZM64.749 29.5325C71.3426 29.5325 76.0092 24.5413 76.0092 17.8494H75.0092C75.0092 24.0322 70.7481 28.5325 64.749 28.5325V29.5325ZM76.0092 17.8494C76.0092 11.1489 71.3343 6.30723 64.749 6.30723V7.30723C70.7564 7.30723 75.0092 11.6752 75.0092 17.8494H76.0092ZM64.749 6.30723H56.4321V7.30723H64.749V6.30723ZM56.4321 6.30723C50.0332 6.30723 45.3128 11.1034 45.3128 17.8494H46.3128C46.3128 11.6267 50.6141 7.30723 56.4321 7.30723V6.30723ZM45.3128 17.8494C45.3128 24.5368 49.9752 29.5325 56.4321 29.5325V28.5325C50.5782 28.5325 46.3128 24.0367 46.3128 17.8494H45.3128ZM86.3058 35H85.8058V35.5H86.3058V35ZM86.3058 0.839755V0.339755H85.8058V0.839755H86.3058ZM92.2263 29.0325H91.7263V29.5325H92.2263V29.0325ZM92.2263 6.80723V6.30723H91.7263V6.80723H92.2263ZM106.088 34.5H86.3058V35.5H106.088V34.5ZM86.8058 35V0.839755H85.8058V35H86.8058ZM86.3058 1.33976H106.088V0.339755H86.3058V1.33976ZM106.088 1.33976C110.783 1.33976 114.811 2.99855 117.664 5.83995C120.516 8.68081 122.221 12.7315 122.221 17.5675H123.221C123.221 12.489 121.426 8.17581 118.37 5.13143C115.314 2.08759 111.025 0.339755 106.088 0.339755V1.33976ZM122.221 17.5675C122.221 27.2317 115.419 34.5 106.088 34.5V35.5C116.022 35.5 123.221 27.7322 123.221 17.5675H122.221ZM92.2263 29.5325H106.088V28.5325H92.2263V29.5325ZM106.088 29.5325C112.542 29.5325 117.254 24.5398 117.254 17.8494H116.254C116.254 24.0337 111.944 28.5325 106.088 28.5325V29.5325ZM117.254 17.8494C117.254 11.1504 112.534 6.30723 106.088 6.30723V7.30723C111.953 7.30723 116.254 11.6737 116.254 17.8494H117.254ZM106.088 6.30723H92.2263V7.30723H106.088V6.30723ZM91.7263 6.80723V29.0325H92.7263V6.80723H91.7263ZM133.9 35V35.5H134.4V35H133.9ZM127.933 35H127.433V35.5H127.933V35ZM127.933 0.839755V0.339755H127.433V0.839755H127.933ZM133.9 0.839755H134.4V0.339755H133.9V0.839755ZM133.9 34.5H127.933V35.5H133.9V34.5ZM128.433 35V0.839755H127.433V35H128.433ZM127.933 1.33976H133.9V0.339755H127.933V1.33976ZM133.4 0.839755V35H134.4V0.839755H133.4ZM169.686 34.1542L169.332 34.5067L169.333 34.5078L169.686 34.1542ZM145.675 10.0024L146.03 9.64989L145.175 8.79029V10.0024H145.675ZM145.675 35V35.5H146.175V35H145.675ZM139.99 35H139.49V35.5H139.99V35ZM145.581 1.63855L145.228 1.99211L145.229 1.99349L145.581 1.63855ZM169.686 25.5554L169.334 25.9104L170.186 26.7559V25.5554H169.686ZM169.686 0.557828V0.0578284H169.186V0.557828H169.686ZM175.372 0.557828H175.872V0.0578284H175.372V0.557828ZM170.041 33.8017L146.03 9.64989L145.321 10.3549L169.332 34.5067L170.041 33.8017ZM145.175 10.0024V35H146.175V10.0024H145.175ZM145.675 34.5H139.99V35.5H145.675V34.5ZM140.49 35V3.98795H139.49V35H140.49ZM140.49 3.98795C140.49 2.96822 140.761 2.20237 141.192 1.69964C141.615 1.2058 142.234 0.916864 143.044 0.916864V-0.0831364C141.975 -0.0831364 141.066 0.309251 140.433 1.04885C139.806 1.77955 139.49 2.79925 139.49 3.98795H140.49ZM143.044 0.916864C143.772 0.916864 144.403 1.1673 145.228 1.9921L145.935 1.285C144.974 0.324265 144.102 -0.0831364 143.044 -0.0831364V0.916864ZM145.229 1.99349L169.334 25.9104L170.038 25.2005L145.934 1.28362L145.229 1.99349ZM170.186 25.5554V0.557828H169.186V25.5554H170.186ZM169.686 1.05783H175.372V0.0578284H169.686V1.05783ZM174.872 0.557828V31.8518H175.872V0.557828H174.872ZM174.872 31.8518C174.872 32.8924 174.59 33.6595 174.164 34.158C173.743 34.6494 173.146 34.9229 172.412 34.9229V35.9229C173.415 35.9229 174.299 35.5386 174.924 34.8082C175.542 34.0851 175.872 33.0666 175.872 31.8518H174.872ZM172.412 34.9229C171.588 34.9229 170.816 34.5767 170.04 33.8007L169.333 34.5078C170.248 35.4233 171.262 35.9229 172.412 35.9229V34.9229ZM217.381 35V35.5H217.881V35H217.381ZM215.267 0.839755H215.767V0.339755H215.267V0.839755ZM215.267 6.80723V7.30723H215.767V6.80723H215.267ZM211.367 29.0325V29.5325H211.867V29.0325H211.367ZM211.367 20.1518H211.867V19.6518H211.367V20.1518ZM195.955 20.1518H195.455V20.6518H195.955V20.1518ZM195.955 15.1241V14.6241H195.455V15.1241H195.955ZM217.381 15.1241H217.881V14.6241H217.381V15.1241ZM217.381 34.5H196.754V35.5H217.381V34.5ZM196.754 34.5C187.516 34.5 180.667 27.2317 180.667 17.5675H179.667C179.667 27.7322 186.914 35.5 196.754 35.5V34.5ZM180.667 17.5675C180.667 12.6605 182.384 8.61066 185.235 5.78814C188.087 2.96455 192.103 1.33976 196.754 1.33976V0.339755C191.865 0.339755 187.588 2.05111 184.531 5.07751C181.474 8.105 179.667 12.419 179.667 17.5675H180.667ZM196.754 1.33976H215.267V0.339755H196.754V1.33976ZM214.767 0.839755V6.80723H215.767V0.839755H214.767ZM215.267 6.30723H196.754V7.30723H215.267V6.30723ZM196.754 6.30723C190.355 6.30723 185.634 11.1034 185.634 17.8494H186.634C186.634 11.6267 190.936 7.30723 196.754 7.30723V6.30723ZM185.634 17.8494C185.634 24.5368 190.297 29.5325 196.754 29.5325V28.5325C190.9 28.5325 186.634 24.0367 186.634 17.8494H185.634ZM196.754 29.5325H211.367V28.5325H196.754V29.5325ZM211.867 29.0325V20.1518H210.867V29.0325H211.867ZM211.367 19.6518H195.955V20.6518H211.367V19.6518ZM196.455 20.1518V15.1241H195.455V20.1518H196.455ZM195.955 15.6241H217.381V14.6241H195.955V15.6241ZM216.881 15.1241V35H217.881V15.1241H216.881Z" fill="#5A5A5A" mask="url(#path-1-outside-1_1258_11)"/>
</svg>
