<svg width="215" height="36" viewBox="0 0 215 36" fill="none" xmlns="http://www.w3.org/2000/svg">
<mask id="path-1-outside-1_1258_13" maskUnits="userSpaceOnUse" x="-0.0859375" y="-1" width="215" height="37" fill="black">
<rect fill="#5A5A5A" x="-0.0859375" y="-1" width="215" height="37"/>
<path d="M38.102 35H17.4743C7.93575 35 0.887557 27.4819 0.887557 17.5675C0.887557 7.51205 7.93575 0.839755 17.4743 0.839755H35.9876V6.80723H17.4743C11.3659 6.80723 6.85503 11.3651 6.85503 17.8494C6.85503 24.2867 11.3189 29.0325 17.4743 29.0325H32.0876V20.1518H16.6755V15.1241H38.102V35ZM86.3913 35H79.2022L74.0805 26.4012H57.9166L60.7359 21.5614H71.2142L63.6022 8.78072L48.0961 35H41.2829L60.9238 2.29638C61.6287 1.12169 62.5214 0.369876 63.8371 0.369876C65.1528 0.369876 65.9985 1.12169 66.7034 2.29638L86.3913 35ZM138.513 35H132.593L126.061 10.9892L116.382 33.2145C115.724 34.6711 114.784 35.4699 113.328 35.4699C111.918 35.4699 110.884 34.6711 110.273 33.2145L100.641 10.9892L94.1095 35H88.236L97.0227 2.86024C97.4456 1.21566 98.3854 0.416864 99.9829 0.416864C101.252 0.416864 102.426 1.12169 102.99 2.43735L113.515 26.5892L124.041 2.43735C124.605 1.12169 125.638 0.416864 126.907 0.416864C128.364 0.416864 129.303 1.21566 129.773 2.86024L138.513 35ZM173.013 35H142.471V0.839755H172.966V6.80723H148.392V29.0325H173.013V35ZM171.698 20.1518H152.761V15.1241H171.698V20.1518ZM203.733 35H178.125V29.0325H203.733C206.929 29.0325 208.714 27.247 208.714 24.5687C208.714 21.6554 206.929 20.1518 203.733 20.1518H188.039C181.602 20.1518 177.608 16.0639 177.608 10.4253C177.608 4.92771 181.32 0.839755 188.133 0.839755H212.661V6.80723H188.133C185.408 6.80723 183.811 8.40482 183.811 10.9892C183.811 13.5735 185.455 15.1241 188.086 15.1241H203.733C210.641 15.1241 214.353 18.3663 214.353 24.9916C214.353 30.7241 210.876 35 203.733 35Z"/>
</mask>
<path d="M38.102 35H17.4743C7.93575 35 0.887557 27.4819 0.887557 17.5675C0.887557 7.51205 7.93575 0.839755 17.4743 0.839755H35.9876V6.80723H17.4743C11.3659 6.80723 6.85503 11.3651 6.85503 17.8494C6.85503 24.2867 11.3189 29.0325 17.4743 29.0325H32.0876V20.1518H16.6755V15.1241H38.102V35ZM86.3913 35H79.2022L74.0805 26.4012H57.9166L60.7359 21.5614H71.2142L63.6022 8.78072L48.0961 35H41.2829L60.9238 2.29638C61.6287 1.12169 62.5214 0.369876 63.8371 0.369876C65.1528 0.369876 65.9985 1.12169 66.7034 2.29638L86.3913 35ZM138.513 35H132.593L126.061 10.9892L116.382 33.2145C115.724 34.6711 114.784 35.4699 113.328 35.4699C111.918 35.4699 110.884 34.6711 110.273 33.2145L100.641 10.9892L94.1095 35H88.236L97.0227 2.86024C97.4456 1.21566 98.3854 0.416864 99.9829 0.416864C101.252 0.416864 102.426 1.12169 102.99 2.43735L113.515 26.5892L124.041 2.43735C124.605 1.12169 125.638 0.416864 126.907 0.416864C128.364 0.416864 129.303 1.21566 129.773 2.86024L138.513 35ZM173.013 35H142.471V0.839755H172.966V6.80723H148.392V29.0325H173.013V35ZM171.698 20.1518H152.761V15.1241H171.698V20.1518ZM203.733 35H178.125V29.0325H203.733C206.929 29.0325 208.714 27.247 208.714 24.5687C208.714 21.6554 206.929 20.1518 203.733 20.1518H188.039C181.602 20.1518 177.608 16.0639 177.608 10.4253C177.608 4.92771 181.32 0.839755 188.133 0.839755H212.661V6.80723H188.133C185.408 6.80723 183.811 8.40482 183.811 10.9892C183.811 13.5735 185.455 15.1241 188.086 15.1241H203.733C210.641 15.1241 214.353 18.3663 214.353 24.9916C214.353 30.7241 210.876 35 203.733 35Z" fill="#5A5A5A"/>
<path d="M38.102 35V35.5H38.602V35H38.102ZM35.9876 0.839755H36.4876V0.339755H35.9876V0.839755ZM35.9876 6.80723V7.30723H36.4876V6.80723H35.9876ZM32.0876 29.0325V29.5325H32.5876V29.0325H32.0876ZM32.0876 20.1518H32.5876V19.6518H32.0876V20.1518ZM16.6755 20.1518H16.1755V20.6518H16.6755V20.1518ZM16.6755 15.1241V14.6241H16.1755V15.1241H16.6755ZM38.102 15.1241H38.602V14.6241H38.102V15.1241ZM38.102 34.5H17.4743V35.5H38.102V34.5ZM17.4743 34.5C8.23707 34.5 1.38756 27.2317 1.38756 17.5675H0.387557C0.387557 27.7322 7.63443 35.5 17.4743 35.5V34.5ZM1.38756 17.5675C1.38756 12.6605 3.1049 8.61066 5.95576 5.78814C8.8077 2.96455 12.8238 1.33976 17.4743 1.33976V0.339755C12.5862 0.339755 8.30898 2.05111 5.25219 5.07751C2.19431 8.105 0.387557 12.419 0.387557 17.5675H1.38756ZM17.4743 1.33976H35.9876V0.339755H17.4743V1.33976ZM35.4876 0.839755V6.80723H36.4876V0.839755H35.4876ZM35.9876 6.30723H17.4743V7.30723H35.9876V6.30723ZM17.4743 6.30723C11.0754 6.30723 6.35503 11.1034 6.35503 17.8494H7.35503C7.35503 11.6267 11.6563 7.30723 17.4743 7.30723V6.30723ZM6.35503 17.8494C6.35503 24.5368 11.0174 29.5325 17.4743 29.5325V28.5325C11.6204 28.5325 7.35503 24.0367 7.35503 17.8494H6.35503ZM17.4743 29.5325H32.0876V28.5325H17.4743V29.5325ZM32.5876 29.0325V20.1518H31.5876V29.0325H32.5876ZM32.0876 19.6518H16.6755V20.6518H32.0876V19.6518ZM17.1755 20.1518V15.1241H16.1755V20.1518H17.1755ZM16.6755 15.6241H38.102V14.6241H16.6755V15.6241ZM37.602 15.1241V35H38.602V15.1241H37.602ZM86.3913 35V35.5H87.2759L86.8197 34.7421L86.3913 35ZM79.2022 35L78.7726 35.2559L78.918 35.5H79.2022V35ZM74.0805 26.4012L74.51 26.1453L74.3646 25.9012H74.0805V26.4012ZM57.9166 26.4012L57.4846 26.1495L57.0467 26.9012H57.9166V26.4012ZM60.7359 21.5614V21.0614H60.4485L60.3039 21.3098L60.7359 21.5614ZM71.2142 21.5614V22.0614H72.094L71.6438 21.3056L71.2142 21.5614ZM63.6022 8.78072L64.0317 8.52487L63.6006 7.80105L63.1718 8.5262L63.6022 8.78072ZM48.0961 35V35.5H48.3813L48.5265 35.2545L48.0961 35ZM41.2829 35L40.8542 34.7426L40.3994 35.5H41.2829V35ZM60.9238 2.29638L61.3525 2.55381L61.3526 2.55363L60.9238 2.29638ZM66.7034 2.29638L66.2746 2.55363L66.275 2.55426L66.7034 2.29638ZM86.3913 34.5H79.2022V35.5H86.3913V34.5ZM79.6317 34.7441L74.51 26.1453L73.6509 26.6571L78.7726 35.2559L79.6317 34.7441ZM74.0805 25.9012H57.9166V26.9012H74.0805V25.9012ZM58.3487 26.6529L61.1679 21.8131L60.3039 21.3098L57.4846 26.1495L58.3487 26.6529ZM60.7359 22.0614H71.2142V21.0614H60.7359V22.0614ZM71.6438 21.3056L64.0317 8.52487L63.1726 9.03657L70.7846 21.8173L71.6438 21.3056ZM63.1718 8.5262L47.6658 34.7455L48.5265 35.2545L64.0325 9.03524L63.1718 8.5262ZM48.0961 34.5H41.2829V35.5H48.0961V34.5ZM41.7115 35.2574L61.3525 2.55381L60.4952 2.03895L40.8542 34.7426L41.7115 35.2574ZM61.3526 2.55363C62.009 1.45968 62.7655 0.869876 63.8371 0.869876V-0.130124C62.2773 -0.130124 61.2484 0.783693 60.4951 2.03913L61.3526 2.55363ZM63.8371 0.869876C64.9013 0.869876 65.6128 1.45054 66.2746 2.55363L67.1321 2.03913C66.3843 0.792835 65.4042 -0.130124 63.8371 -0.130124V0.869876ZM66.275 2.55426L85.963 35.2579L86.8197 34.7421L67.1317 2.0385L66.275 2.55426ZM138.513 35V35.5H139.167L138.996 34.8688L138.513 35ZM132.593 35L132.11 35.1312L132.21 35.5H132.593V35ZM126.061 10.9892L126.544 10.8579L126.171 9.486L125.603 10.7895L126.061 10.9892ZM116.382 33.2145L116.837 33.4203L116.84 33.4141L116.382 33.2145ZM110.273 33.2145L110.734 33.0211L110.732 33.0156L110.273 33.2145ZM100.641 10.9892L101.1 10.7903L100.533 9.4821L100.158 10.8579L100.641 10.9892ZM94.1095 35V35.5H94.4916L94.5919 35.1312L94.1095 35ZM88.236 35L87.7537 34.8681L87.5809 35.5H88.236V35ZM97.0227 2.86024L97.5051 2.99211L97.507 2.98476L97.0227 2.86024ZM102.99 2.43735L102.531 2.63431L102.532 2.6371L102.99 2.43735ZM113.515 26.5892L113.057 26.7889L113.515 27.8407L113.974 26.7889L113.515 26.5892ZM124.041 2.43735L124.499 2.63711L124.5 2.63431L124.041 2.43735ZM129.773 2.86024L130.256 2.72903L130.254 2.72288L129.773 2.86024ZM138.513 34.5H132.593V35.5H138.513V34.5ZM133.075 34.8688L126.544 10.8579L125.579 11.1204L132.11 35.1312L133.075 34.8688ZM125.603 10.7895L115.923 33.0148L116.84 33.4141L126.52 11.1888L125.603 10.7895ZM115.926 33.0087C115.618 33.6904 115.263 34.1759 114.85 34.4912C114.447 34.8001 113.957 34.9699 113.328 34.9699V35.9699C114.155 35.9699 114.863 35.7403 115.458 35.2856C116.044 34.8373 116.487 34.1951 116.837 33.4203L115.926 33.0087ZM113.328 34.9699C112.723 34.9699 112.219 34.8006 111.8 34.4879C111.377 34.1716 111.014 33.688 110.734 33.0211L109.812 33.4078C110.143 34.1975 110.603 34.8417 111.202 35.289C111.805 35.7397 112.522 35.9699 113.328 35.9699V34.9699ZM110.732 33.0156L101.1 10.7903L100.182 11.188L109.815 33.4133L110.732 33.0156ZM100.158 10.8579L93.627 34.8688L94.5919 35.1312L101.123 11.1204L100.158 10.8579ZM94.1095 34.5H88.236V35.5H94.1095V34.5ZM88.7183 35.1319L97.505 2.9921L96.5404 2.72838L87.7537 34.8681L88.7183 35.1319ZM97.507 2.98476C97.7019 2.22673 98.0007 1.72326 98.3819 1.40632C98.7583 1.09349 99.2697 0.916864 99.9829 0.916864V-0.0831364C99.0986 -0.0831364 98.3414 0.13964 97.7427 0.637344C97.1489 1.13095 96.7664 1.84917 96.5385 2.73572L97.507 2.98476ZM99.9829 0.916864C101.056 0.916864 102.047 1.50643 102.531 2.63431L103.45 2.24039C102.805 0.736942 101.447 -0.0831364 99.9829 -0.0831364V0.916864ZM102.532 2.6371L113.057 26.7889L113.974 26.3894L103.449 2.23759L102.532 2.6371ZM113.974 26.7889L124.499 2.6371L123.582 2.23759L113.057 26.3894L113.974 26.7889ZM124.5 2.63431C124.994 1.48229 125.859 0.916864 126.907 0.916864V-0.0831364C125.417 -0.0831364 124.215 0.761078 123.581 2.24039L124.5 2.63431ZM126.907 0.916864C127.538 0.916864 128.016 1.08731 128.386 1.40246C128.763 1.72399 129.075 2.23558 129.293 2.9976L130.254 2.72288C130.002 1.84032 129.608 1.13022 129.034 0.641213C128.453 0.145812 127.732 -0.0831364 126.907 -0.0831364V0.916864ZM129.291 2.99144L138.031 35.1312L138.996 34.8688L130.256 2.72904L129.291 2.99144ZM173.013 35V35.5H173.513V35H173.013ZM142.471 35H141.971V35.5H142.471V35ZM142.471 0.839755V0.339755H141.971V0.839755H142.471ZM172.966 0.839755H173.466V0.339755H172.966V0.839755ZM172.966 6.80723V7.30723H173.466V6.80723H172.966ZM148.392 6.80723V6.30723H147.892V6.80723H148.392ZM148.392 29.0325H147.892V29.5325H148.392V29.0325ZM173.013 29.0325H173.513V28.5325H173.013V29.0325ZM171.698 20.1518V20.6518H172.198V20.1518H171.698ZM152.761 20.1518H152.261V20.6518H152.761V20.1518ZM152.761 15.1241V14.6241H152.261V15.1241H152.761ZM171.698 15.1241H172.198V14.6241H171.698V15.1241ZM173.013 34.5H142.471V35.5H173.013V34.5ZM142.971 35V0.839755H141.971V35H142.971ZM142.471 1.33976H172.966V0.339755H142.471V1.33976ZM172.466 0.839755V6.80723H173.466V0.839755H172.466ZM172.966 6.30723H148.392V7.30723H172.966V6.30723ZM147.892 6.80723V29.0325H148.892V6.80723H147.892ZM148.392 29.5325H173.013V28.5325H148.392V29.5325ZM172.513 29.0325V35H173.513V29.0325H172.513ZM171.698 19.6518H152.761V20.6518H171.698V19.6518ZM153.261 20.1518V15.1241H152.261V20.1518H153.261ZM152.761 15.6241H171.698V14.6241H152.761V15.6241ZM171.198 15.1241V20.1518H172.198V15.1241H171.198ZM178.125 35H177.625V35.5H178.125V35ZM178.125 29.0325V28.5325H177.625V29.0325H178.125ZM212.661 0.839755H213.161V0.339755H212.661V0.839755ZM212.661 6.80723V7.30723H213.161V6.80723H212.661ZM203.733 34.5H178.125V35.5H203.733V34.5ZM178.625 35V29.0325H177.625V35H178.625ZM178.125 29.5325H203.733V28.5325H178.125V29.5325ZM203.733 29.5325C205.422 29.5325 206.8 29.0597 207.761 28.1723C208.726 27.281 209.214 26.0228 209.214 24.5687H208.214C208.214 25.7929 207.809 26.7666 207.083 27.4377C206.352 28.1126 205.24 28.5325 203.733 28.5325V29.5325ZM209.214 24.5687C209.214 23.0065 208.732 21.7493 207.751 20.8915C206.782 20.0435 205.401 19.6518 203.733 19.6518V20.6518C205.261 20.6518 206.37 21.0119 207.093 21.6441C207.804 22.2664 208.214 23.2176 208.214 24.5687H209.214ZM203.733 19.6518H188.039V20.6518H203.733V19.6518ZM188.039 19.6518C184.928 19.6518 182.451 18.6657 180.756 17.0419C179.061 15.419 178.108 13.1228 178.108 10.4253H177.108C177.108 13.3663 178.152 15.9334 180.064 17.7641C181.975 19.5939 184.714 20.6518 188.039 20.6518V19.6518ZM178.108 10.4253C178.108 7.79141 178.995 5.53271 180.662 3.93155C182.33 2.32971 184.828 1.33976 188.133 1.33976V0.339755C184.626 0.339755 181.861 1.39378 179.969 3.21031C178.077 5.02752 177.108 7.5616 177.108 10.4253H178.108ZM188.133 1.33976H212.661V0.339755H188.133V1.33976ZM212.161 0.839755V6.80723H213.161V0.839755H212.161ZM212.661 6.30723H188.133V7.30723H212.661V6.30723ZM188.133 6.30723C186.674 6.30723 185.456 6.73674 184.601 7.57128C183.745 8.40711 183.311 9.59268 183.311 10.9892H184.311C184.311 9.80129 184.675 8.8959 185.299 8.28685C185.925 7.67651 186.868 7.30723 188.133 7.30723V6.30723ZM183.311 10.9892C183.311 12.39 183.759 13.564 184.615 14.3864C185.469 15.2063 186.673 15.6241 188.086 15.6241V14.6241C186.868 14.6241 185.934 14.2666 185.308 13.6651C184.684 13.0662 184.311 12.1726 184.311 10.9892H183.311ZM188.086 15.6241H203.733V14.6241H188.086V15.6241ZM203.733 15.6241C207.117 15.6241 209.631 16.419 211.296 17.9423C212.953 19.4582 213.853 21.7714 213.853 24.9916H214.853C214.853 21.5864 213.896 18.9659 211.971 17.2044C210.053 15.4503 207.257 14.6241 203.733 14.6241V15.6241ZM213.853 24.9916C213.853 27.7579 213.015 30.1226 211.366 31.7943C209.718 33.4637 207.203 34.5 203.733 34.5V35.5C207.406 35.5 210.201 34.3983 212.077 32.4967C213.952 30.5973 214.853 27.9578 214.853 24.9916H213.853Z" fill="#5A5A5A" mask="url(#path-1-outside-1_1258_13)"/>
</svg>
