<svg width="305" height="21" viewBox="0 0 305 21" fill="none" xmlns="http://www.w3.org/2000/svg">
<path d="M9.24266 20.3067C7.64266 20.3067 6.22693 20.0679 4.99547 19.5904C3.76891 19.092 2.76772 18.4068 1.9919 17.5347C1.24231 16.6418 0.736979 15.5724 0.475907 14.3265C0.214834 13.0807 0.262901 11.6998 0.620107 10.184C0.977313 8.66819 1.5776 7.29773 2.42097 6.07262C3.26923 4.82675 4.27856 3.75737 5.44897 2.8645C6.64071 1.97162 7.96486 1.28639 9.4214 0.808803C10.8828 0.310454 12.4136 0.0612793 14.0136 0.0612793H25.1496L23.9238 5.2628H12.4038C11.6785 5.2628 10.9771 5.38739 10.2997 5.63657C9.62723 5.86498 9.01561 6.19721 8.46485 6.63327C7.91409 7.06932 7.43976 7.58844 7.04186 8.19061C6.64395 8.79278 6.35937 9.45725 6.18811 10.184C6.01684 10.9108 5.98826 11.5752 6.10236 12.1774C6.21645 12.7796 6.44612 13.2987 6.79136 13.7347C7.1415 14.15 7.59654 14.4823 8.15649 14.7314C8.72133 14.9599 9.36642 15.0741 10.0918 15.0741H16.2998L16.953 12.302H10.201L11.2212 7.97258H23.2852L20.3787 20.3067H9.24266Z" fill="#5A5A5A"/>
<path d="M40.1627 20.3067L37.2137 15.1675H32.2857L33.4014 10.4332H40.5694C41.3374 10.4332 42.0205 10.2048 42.6189 9.74795C43.2221 9.27037 43.6167 8.63705 43.8026 7.84799C43.9885 7.05894 43.89 6.436 43.507 5.97918C43.1289 5.5016 42.5558 5.2628 41.7878 5.2628H33.0198L29.4747 20.3067H23.9067L28.6776 0.0612793H43.0136C44.2082 0.0612793 45.2629 0.248161 46.1774 0.621923C47.0969 0.974921 47.841 1.48365 48.4098 2.14812C48.9999 2.81259 49.3875 3.61202 49.5726 4.54643C49.7578 5.48083 49.7182 6.50868 49.454 7.62997C49.087 9.18731 48.3825 10.5474 47.3405 11.7102C46.2984 12.873 45.0558 13.7555 43.6126 14.3577L47.4587 20.3067H40.1627Z" fill="#5A5A5A"/>
<path d="M69.9387 20.3067L68.9446 17.1921H59.1846L62.5729 12.8626H67.5969L65.5789 6.35294L54.6747 20.3067H48.4987L63.5412 1.55633C64.3521 0.559629 65.3016 0.0612793 66.3896 0.0612793H67.6696C68.7576 0.0612793 69.4721 0.559629 69.8132 1.55633L76.0187 20.3067H69.9387Z" fill="#5A5A5A"/>
<path d="M86.4439 15.2921L87.5816 10.4643H94.3335C95.0802 10.4643 95.7552 10.2255 96.3584 9.74795C96.9829 9.27037 97.3857 8.64743 97.5668 7.87914C97.7527 7.09009 97.6459 6.45677 97.2465 5.97918C96.8684 5.5016 96.306 5.2628 95.5593 5.2628H87.2073L83.6622 20.3067H78.0942L82.8651 0.0612793H96.6891C97.9051 0.0612793 98.9704 0.248161 99.8849 0.621923C100.821 0.995685 101.573 1.5148 102.142 2.17927C102.732 2.84373 103.12 3.64317 103.305 4.57757C103.49 5.51198 103.448 6.55021 103.179 7.69226C102.915 8.81355 102.47 9.84139 101.844 10.7758C101.219 11.7102 100.452 12.52 99.5436 13.2053C98.6617 13.8697 97.6647 14.3888 96.5527 14.7626C95.4668 15.1156 94.3159 15.2921 93.0999 15.2921H86.4439Z" fill="#5A5A5A"/>
<path d="M118.553 20.3067L120.403 12.4577H112.275L113.442 7.50538H121.57L123.324 0.0612793H128.924L124.153 20.3067H118.553ZM102.969 20.3067L107.74 0.0612793H113.34L108.569 20.3067H102.969Z" fill="#5A5A5A"/>
<path d="M127.688 20.3067L132.459 0.0612793H138.059L133.288 20.3067H127.688Z" fill="#5A5A5A"/>
<path d="M147.149 20.3067C145.549 20.3067 144.133 20.0679 142.902 19.5904C141.675 19.092 140.674 18.4068 139.898 17.5347C139.149 16.6418 138.643 15.5724 138.382 14.3265C138.121 13.0807 138.169 11.6998 138.526 10.184C138.884 8.66819 139.484 7.29773 140.327 6.07262C141.175 4.82675 142.185 3.75737 143.355 2.8645C144.547 1.97162 145.871 1.28639 147.328 0.808803C148.789 0.310454 150.32 0.0612793 151.92 0.0612793H162.096L160.87 5.2628H150.31C149.585 5.2628 148.883 5.38739 148.206 5.63657C147.533 5.86498 146.922 6.19721 146.371 6.63327C145.82 7.06932 145.346 7.58844 144.948 8.19061C144.55 8.79278 144.266 9.45725 144.094 10.184C143.923 10.9108 143.895 11.5752 144.009 12.1774C144.123 12.7796 144.352 13.2987 144.698 13.7347C145.048 14.15 145.503 14.4823 146.063 14.7314C146.628 14.9599 147.273 15.0741 147.998 15.0741H158.558L157.325 20.3067H147.149Z" fill="#5A5A5A"/>
<path d="M169.063 20.3067L173.834 0.0612793H185.802C187.38 0.0612793 188.783 0.310454 190.01 0.808803C191.241 1.28639 192.232 1.97162 192.981 2.8645C193.752 3.75737 194.268 4.82675 194.529 6.07262C194.795 7.29773 194.75 8.66819 194.392 10.184C194.035 11.6998 193.432 13.0807 192.584 14.3265C191.736 15.5724 190.716 16.6418 189.524 17.5347C188.359 18.4068 187.045 19.092 185.584 19.5904C184.127 20.0679 182.61 20.3067 181.031 20.3067H169.063ZM182.648 15.0741C183.373 15.0741 184.062 14.9599 184.713 14.7314C185.39 14.4823 186.002 14.15 186.548 13.7347C187.098 13.2987 187.562 12.7796 187.939 12.1774C188.337 11.5752 188.621 10.9108 188.792 10.184C188.964 9.45725 188.992 8.79278 188.878 8.19061C188.785 7.58844 188.566 7.06932 188.221 6.63327C187.876 6.19721 187.421 5.86498 186.856 5.63657C186.317 5.38739 185.685 5.2628 184.96 5.2628H178.208L175.896 15.0741H182.648Z" fill="#5A5A5A"/>
<path d="M204.218 12.302L205.238 7.97258H217.526L216.506 12.302H204.218ZM194.875 20.3067L199.646 0.0612793H219.614L218.389 5.2628H204.021L201.708 15.0741H216.109L214.875 20.3067H194.875Z" fill="#5A5A5A"/>
<path d="M217.613 20.3067L218.846 15.0741H234.398C234.804 15.0741 235.161 14.9599 235.471 14.7314C235.786 14.4823 235.995 14.1397 236.097 13.7036C236.2 13.2675 236.153 12.9249 235.956 12.6758C235.758 12.4266 235.457 12.302 235.052 12.302H225.9C224.94 12.302 224.078 12.1566 223.314 11.8659C222.577 11.5545 221.971 11.1392 221.496 10.6201C221.047 10.0802 220.74 9.43648 220.575 8.68896C220.431 7.94143 220.467 7.11085 220.682 6.19721C220.898 5.28357 221.253 4.45299 221.75 3.70546C222.272 2.93717 222.885 2.28309 223.588 1.74321C224.313 1.20333 225.114 0.788039 225.994 0.497335C226.894 0.206631 227.824 0.0612793 228.784 0.0612793H244.592L243.367 5.2628H227.815C227.409 5.2628 227.052 5.37701 226.742 5.60542C226.453 5.83383 226.258 6.16606 226.155 6.60212C226.057 7.01741 226.096 7.34964 226.272 7.59882C226.469 7.84799 226.771 7.97258 227.176 7.97258H236.328C237.309 7.97258 238.169 8.12832 238.906 8.43978C239.648 8.73049 240.254 9.14578 240.724 9.68566C241.194 10.2255 241.499 10.8796 241.638 11.6479C241.803 12.3954 241.78 13.2156 241.57 14.1085C241.35 15.0429 240.979 15.8943 240.456 16.6626C239.96 17.4101 239.347 18.0642 238.618 18.6248C237.893 19.1647 237.091 19.58 236.212 19.8707C235.333 20.1614 234.403 20.3067 233.421 20.3067H217.613Z" fill="#5A5A5A"/>
<path d="M242.875 20.3067L247.646 0.0612793H253.246L248.475 20.3067H242.875Z" fill="#5A5A5A"/>
<path d="M262.336 20.3067C260.736 20.3067 259.321 20.0679 258.089 19.5904C256.863 19.092 255.861 18.4068 255.086 17.5347C254.336 16.6418 253.831 15.5724 253.57 14.3265C253.309 13.0807 253.357 11.6998 253.714 10.184C254.071 8.66819 254.671 7.29773 255.515 6.07262C256.363 4.82675 257.372 3.75737 258.543 2.8645C259.734 1.97162 261.059 1.28639 262.515 0.808803C263.977 0.310454 265.507 0.0612793 267.107 0.0612793H278.243L277.018 5.2628H265.498C264.772 5.2628 264.071 5.38739 263.393 5.63657C262.721 5.86498 262.109 6.19721 261.559 6.63327C261.008 7.06932 260.534 7.58844 260.136 8.19061C259.738 8.79278 259.453 9.45725 259.282 10.184C259.111 10.9108 259.082 11.5752 259.196 12.1774C259.31 12.7796 259.54 13.2987 259.885 13.7347C260.235 14.15 260.69 14.4823 261.25 14.7314C261.815 14.9599 262.46 15.0741 263.186 15.0741H269.393L270.047 12.302H263.295L264.315 7.97258H276.379L273.472 20.3067H262.336Z" fill="#5A5A5A"/>
<path d="M296.36 20.3067C295.614 20.3067 295.059 20.1718 294.696 19.9018C294.333 19.6319 293.956 19.1958 293.564 18.5937L285.501 7.3185L282.44 20.3067H277L281.228 2.36615C281.59 0.829568 282.635 0.0612793 284.363 0.0612793H285.707C286.134 0.0612793 286.5 0.0924264 286.805 0.154721C287.111 0.217013 287.377 0.310454 287.603 0.435042C287.83 0.559629 288.028 0.715363 288.197 0.902245C288.388 1.08913 288.571 1.30715 288.747 1.55633L296.142 11.8659L298.923 0.0612793H304.331L300.052 18.2199C299.724 19.6111 298.867 20.3067 297.48 20.3067H296.36Z" fill="#5A5A5A"/>
</svg>
