<svg width="226" height="21" viewBox="0 0 226 21" fill="none" xmlns="http://www.w3.org/2000/svg">
<path d="M0.787109 20.3067L2.0202 15.0741H9.1882C11.2149 15.0741 12.7487 14.7211 13.7898 14.0151C14.8357 13.2883 15.5446 12.1359 15.9165 10.5578L18.39 0.0612793H24.022L21.4237 11.0873C20.6799 14.2435 19.2679 16.5691 17.1876 18.0642C15.1286 19.5592 12.2431 20.3067 8.53111 20.3067H0.787109Z" fill="#5A5A5A"/>
<path d="M40.4079 20.3067L39.4138 17.1921H29.6538L33.0421 12.8626H38.0661L36.0481 6.35294L25.1439 20.3067H18.9679L34.0104 1.55633C34.8213 0.559629 35.7708 0.0612793 36.8588 0.0612793H38.1388C39.2268 0.0612793 39.9413 0.559629 40.2824 1.55633L46.4879 20.3067H40.4079Z" fill="#5A5A5A"/>
<path d="M54.6191 20.3067C53.4884 20.3067 52.7739 19.8084 52.4754 18.8117L46.27 0.0612793H52.574L56.8005 13.7659L67.486 0.0612793H73.79L58.7154 18.8117C57.9259 19.8084 56.9871 20.3067 55.8991 20.3067H54.6191Z" fill="#5A5A5A"/>
<path d="M85.4704 20.3067L84.4763 17.1921H74.7163L78.1046 12.8626H83.1286L81.1106 6.35294L70.2064 20.3067H64.0304L79.073 1.55633C79.8838 0.559629 80.8333 0.0612793 81.9213 0.0612793H83.2013C84.2893 0.0612793 85.0038 0.559629 85.3449 1.55633L91.5504 20.3067H85.4704Z" fill="#5A5A5A"/>
<path d="M93.1139 20.3067L94.347 15.0741H109.899C110.304 15.0741 110.662 14.9599 110.972 14.7314C111.286 14.4823 111.495 14.1397 111.598 13.7036C111.701 13.2675 111.653 12.9249 111.456 12.6758C111.259 12.4266 110.958 12.302 110.552 12.302H101.4C100.44 12.302 99.5785 12.1566 98.815 11.8659C98.0777 11.5545 97.4716 11.1392 96.9966 10.6201C96.5478 10.0802 96.2408 9.43648 96.0756 8.68896C95.9318 7.94143 95.9675 7.11085 96.1828 6.19721C96.3981 5.28357 96.7538 4.45299 97.25 3.70546C97.7724 2.93717 98.3852 2.28309 99.0884 1.74321C99.813 1.20333 100.615 0.788039 101.494 0.497335C102.395 0.206631 103.325 0.0612793 104.285 0.0612793H120.093L118.867 5.2628H103.315C102.91 5.2628 102.552 5.37701 102.242 5.60542C101.954 5.83383 101.758 6.16606 101.655 6.60212C101.558 7.01741 101.597 7.34964 101.773 7.59882C101.97 7.84799 102.271 7.97258 102.676 7.97258H111.828C112.81 7.97258 113.669 8.12832 114.406 8.43978C115.149 8.73049 115.755 9.14578 116.225 9.68566C116.695 10.2255 116.999 10.8796 117.138 11.6479C117.304 12.3954 117.281 13.2156 117.07 14.1085C116.85 15.0429 116.479 15.8943 115.957 16.6626C115.46 17.4101 114.848 18.0642 114.118 18.6248C113.394 19.1647 112.592 19.58 111.713 19.8707C110.833 20.1614 109.903 20.3067 108.922 20.3067H93.1139Z" fill="#5A5A5A"/>
<path d="M128.524 20.3067C126.924 20.3067 125.509 20.0679 124.277 19.5904C123.051 19.092 122.049 18.4068 121.274 17.5347C120.524 16.6418 120.019 15.5724 119.758 14.3265C119.497 13.0807 119.545 11.6998 119.902 10.184C120.259 8.66819 120.859 7.29773 121.703 6.07262C122.551 4.82675 123.56 3.75737 124.731 2.8645C125.922 1.97162 127.247 1.28639 128.703 0.808803C130.165 0.310454 131.695 0.0612793 133.295 0.0612793H143.471L142.246 5.2628H131.686C130.96 5.2628 130.259 5.38739 129.581 5.63657C128.909 5.86498 128.297 6.19721 127.747 6.63327C127.196 7.06932 126.721 7.58844 126.324 8.19061C125.926 8.79278 125.641 9.45725 125.47 10.184C125.299 10.9108 125.27 11.5752 125.384 12.1774C125.498 12.7796 125.728 13.2987 126.073 13.7347C126.423 14.15 126.878 14.4823 127.438 14.7314C128.003 14.9599 128.648 15.0741 129.373 15.0741H139.933L138.7 20.3067H128.524Z" fill="#5A5A5A"/>
<path d="M158.101 20.3067L155.152 15.1675H150.224L151.339 10.4332H158.507C159.275 10.4332 159.959 10.2048 160.557 9.74795C161.16 9.27037 161.555 8.63705 161.741 7.84799C161.926 7.05894 161.828 6.436 161.445 5.97918C161.067 5.5016 160.494 5.2628 159.726 5.2628H150.958L147.413 20.3067H141.845L146.616 0.0612793H160.952C162.146 0.0612793 163.201 0.248161 164.115 0.621923C165.035 0.974921 165.779 1.48365 166.348 2.14812C166.938 2.81259 167.325 3.61202 167.511 4.54643C167.696 5.48083 167.656 6.50868 167.392 7.62997C167.025 9.18731 166.32 10.5474 165.278 11.7102C164.236 12.873 162.994 13.7555 161.551 14.3577L165.397 20.3067H158.101Z" fill="#5A5A5A"/>
<path d="M167.345 20.3067L172.116 0.0612793H177.716L172.945 20.3067H167.345Z" fill="#5A5A5A"/>
<path d="M184.819 15.2921L185.957 10.4643H192.709C193.456 10.4643 194.131 10.2255 194.734 9.74795C195.358 9.27037 195.761 8.64743 195.942 7.87914C196.128 7.09009 196.021 6.45677 195.622 5.97918C195.244 5.5016 194.681 5.2628 193.935 5.2628H185.583L182.038 20.3067H176.47L181.241 0.0612793H195.065C196.281 0.0612793 197.346 0.248161 198.26 0.621923C199.196 0.995685 199.949 1.5148 200.517 2.17927C201.107 2.84373 201.495 3.64317 201.68 4.57757C201.865 5.51198 201.823 6.55021 201.554 7.69226C201.29 8.81355 200.845 9.84139 200.22 10.7758C199.594 11.7102 198.827 12.52 197.919 13.2053C197.037 13.8697 196.04 14.3888 194.928 14.7626C193.842 15.1156 192.691 15.2921 191.475 15.2921H184.819Z" fill="#5A5A5A"/>
<path d="M207.341 20.3067L210.887 5.2628H203.239L204.464 0.0612793H225.36L224.135 5.2628H216.487L212.941 20.3067H207.341Z" fill="#5A5A5A"/>
</svg>
