<svg width="74" height="21" viewBox="0 0 74 21" fill="none" xmlns="http://www.w3.org/2000/svg">
<path d="M9.24266 20.3067C7.64266 20.3067 6.22693 20.0679 4.99547 19.5904C3.76891 19.092 2.76772 18.4068 1.9919 17.5347C1.24231 16.6418 0.736979 15.5724 0.475907 14.3265C0.214834 13.0807 0.262901 11.6998 0.620107 10.184C0.977313 8.66819 1.5776 7.29773 2.42097 6.07262C3.26923 4.82675 4.27856 3.75737 5.44897 2.8645C6.64071 1.97162 7.96486 1.28639 9.4214 0.808803C10.8828 0.310454 12.4136 0.0612793 14.0136 0.0612793H24.1896L22.9638 5.2628H12.4038C11.6785 5.2628 10.9771 5.38739 10.2997 5.63657C9.62723 5.86498 9.01561 6.19721 8.46485 6.63327C7.91409 7.06932 7.43976 7.58844 7.04186 8.19061C6.64395 8.79278 6.35937 9.45725 6.18811 10.184C6.01684 10.9108 5.98826 11.5752 6.10236 12.1774C6.21645 12.7796 6.44612 13.2987 6.79136 13.7347C7.1415 14.15 7.59654 14.4823 8.15649 14.7314C8.72133 14.9599 9.36642 15.0741 10.0918 15.0741H20.6518L19.4187 20.3067H9.24266Z" fill="#5A5A5A"/>
<path d="M21.9572 20.3067L23.1903 15.0741H38.7423C39.1476 15.0741 39.5052 14.9599 39.815 14.7314C40.1297 14.4823 40.3384 14.1397 40.4412 13.7036C40.544 13.2675 40.4967 12.9249 40.2994 12.6758C40.1021 12.4266 39.8008 12.302 39.3955 12.302H30.2435C29.2835 12.302 28.4217 12.1566 27.6583 11.8659C26.921 11.5545 26.3149 11.1392 25.8398 10.6201C25.3911 10.0802 25.0841 9.43648 24.9189 8.68896C24.7751 7.94143 24.8108 7.11085 25.0261 6.19721C25.2414 5.28357 25.5971 4.45299 26.0933 3.70546C26.6157 2.93717 27.2285 2.28309 27.9317 1.74321C28.6563 1.20333 29.4581 0.788039 30.3373 0.497335C31.2378 0.206631 32.1681 0.0612793 33.1281 0.0612793H48.9361L47.7103 5.2628H32.1583C31.753 5.2628 31.3954 5.37701 31.0856 5.60542C30.7971 5.83383 30.6014 6.16606 30.4987 6.60212C30.4008 7.01741 30.4399 7.34964 30.6158 7.59882C30.8131 7.84799 31.1144 7.97258 31.5197 7.97258H40.6717C41.6531 7.97258 42.5124 8.12832 43.2496 8.43978C43.9918 8.73049 44.5979 9.14578 45.068 9.68566C45.5382 10.2255 45.8427 10.8796 45.9816 11.6479C46.1468 12.3954 46.1242 13.2156 45.9138 14.1085C45.6936 15.0429 45.3223 15.8943 44.7999 16.6626C44.3038 17.4101 43.691 18.0642 42.9615 18.6248C42.237 19.1647 41.4351 19.58 40.5559 19.8707C39.6767 20.1614 38.7465 20.3067 37.7652 20.3067H21.9572Z" fill="#5A5A5A"/>
<path d="M46.7072 20.3067L47.9403 15.0741H63.4923C63.8976 15.0741 64.2552 14.9599 64.565 14.7314C64.8797 14.4823 65.0885 14.1397 65.1912 13.7036C65.294 13.2675 65.2467 12.9249 65.0494 12.6758C64.8521 12.4266 64.5508 12.302 64.1455 12.302H54.9935C54.0335 12.302 53.1718 12.1566 52.4083 11.8659C51.671 11.5545 51.0649 11.1392 50.5898 10.6201C50.1411 10.0802 49.8341 9.43648 49.6689 8.68896C49.5251 7.94143 49.5608 7.11085 49.7761 6.19721C49.9914 5.28357 50.3471 4.45299 50.8433 3.70546C51.3657 2.93717 51.9785 2.28309 52.6817 1.74321C53.4063 1.20333 54.2081 0.788039 55.0873 0.497335C55.9878 0.206631 56.9181 0.0612793 57.8781 0.0612793H73.6861L72.4603 5.2628H56.9083C56.503 5.2628 56.1454 5.37701 55.8356 5.60542C55.5471 5.83383 55.3514 6.16606 55.2487 6.60212C55.1508 7.01741 55.1899 7.34964 55.3658 7.59882C55.5631 7.84799 55.8644 7.97258 56.2697 7.97258H65.4217C66.4031 7.97258 67.2624 8.12832 67.9996 8.43978C68.7418 8.73049 69.3479 9.14578 69.818 9.68566C70.2882 10.2255 70.5927 10.8796 70.7316 11.6479C70.8968 12.3954 70.8742 13.2156 70.6638 14.1085C70.4436 15.0429 70.0723 15.8943 69.5499 16.6626C69.0538 17.4101 68.441 18.0642 67.7115 18.6248C66.987 19.1647 66.1851 19.58 65.3059 19.8707C64.4267 20.1614 63.4965 20.3067 62.5152 20.3067H46.7072Z" fill="#5A5A5A"/>
</svg>
