<svg width="135" height="36" viewBox="0 0 135 36" fill="none" xmlns="http://www.w3.org/2000/svg">
<mask id="path-1-outside-1_1261_12" maskUnits="userSpaceOnUse" x="-1.08594" y="0" width="137" height="36" fill="black">
<rect fill="#5A5A5A" x="-1.08594" width="137" height="36"/>
<path d="M34.9671 33.5904L29.7044 23.5819L24.3948 33.5904C23.737 34.859 22.5623 35.4699 21.3406 35.4699C20.0249 35.4699 18.9442 34.859 18.2394 33.5904L0.571894 0.839755H7.71406L21.5285 27.106L26.6972 17.8024L17.8165 0.839755H25.0056L38.2092 27.106L52.1177 0.839755H58.79L41.1225 33.5904C40.4177 34.859 39.29 35.4699 38.0213 35.4699C36.7526 35.4699 35.6249 34.859 34.9671 33.5904ZM92.9774 35H62.4352V0.839755H92.9304V6.80723H68.3557V29.0325H92.9774V35ZM91.6617 20.1518H72.7256V15.1241H91.6617V20.1518ZM123.745 35H98.0422V0.839755H123.04C129.712 0.839755 134.129 3.84698 134.129 9.67349C134.129 13.9964 131.92 16.1578 129.383 16.9566C132.484 17.9434 134.74 20.6687 134.74 24.6626C134.74 30.912 130.417 35 123.745 35ZM123.51 20.1518H108.333V15.1241H123.087C126.47 15.1241 128.067 13.9494 128.067 10.9892C128.067 7.37108 125.201 6.80723 120.784 6.80723H104.01V29.0795H121.301C125.577 29.0795 128.678 27.9048 128.678 24.5687C128.678 21.7494 126.846 20.1518 123.51 20.1518Z"/>
</mask>
<path d="M34.9671 33.5904L29.7044 23.5819L24.3948 33.5904C23.737 34.859 22.5623 35.4699 21.3406 35.4699C20.0249 35.4699 18.9442 34.859 18.2394 33.5904L0.571894 0.839755H7.71406L21.5285 27.106L26.6972 17.8024L17.8165 0.839755H25.0056L38.2092 27.106L52.1177 0.839755H58.79L41.1225 33.5904C40.4177 34.859 39.29 35.4699 38.0213 35.4699C36.7526 35.4699 35.6249 34.859 34.9671 33.5904ZM92.9774 35H62.4352V0.839755H92.9304V6.80723H68.3557V29.0325H92.9774V35ZM91.6617 20.1518H72.7256V15.1241H91.6617V20.1518ZM123.745 35H98.0422V0.839755H123.04C129.712 0.839755 134.129 3.84698 134.129 9.67349C134.129 13.9964 131.92 16.1578 129.383 16.9566C132.484 17.9434 134.74 20.6687 134.74 24.6626C134.74 30.912 130.417 35 123.745 35ZM123.51 20.1518H108.333V15.1241H123.087C126.47 15.1241 128.067 13.9494 128.067 10.9892C128.067 7.37108 125.201 6.80723 120.784 6.80723H104.01V29.0795H121.301C125.577 29.0795 128.678 27.9048 128.678 24.5687C128.678 21.7494 126.846 20.1518 123.51 20.1518Z" fill="#5A5A5A"/>
<path d="M34.9671 33.5904L35.411 33.3602L35.4096 33.3577L34.9671 33.5904ZM29.7044 23.5819L30.147 23.3492L29.7064 22.5113L29.2627 23.3476L29.7044 23.5819ZM24.3948 33.5904L23.9531 33.356L23.9509 33.3602L24.3948 33.5904ZM18.2394 33.5904L17.7993 33.8278L17.8023 33.8332L18.2394 33.5904ZM0.571894 0.839755V0.339755H-0.265947L0.131841 1.07714L0.571894 0.839755ZM7.71406 0.839755L8.15659 0.607013L8.01603 0.339755H7.71406V0.839755ZM21.5285 27.106L21.086 27.3388L21.5165 28.1573L21.9656 27.3488L21.5285 27.106ZM26.6972 17.8024L27.1343 18.0452L27.2653 17.8095L27.1402 17.5705L26.6972 17.8024ZM17.8165 0.839755V0.339755H16.9903L17.3735 1.07167L17.8165 0.839755ZM25.0056 0.839755L25.4524 0.61519L25.3139 0.339755H25.0056V0.839755ZM38.2092 27.106L37.7625 27.3306L38.1977 28.1963L38.6511 27.34L38.2092 27.106ZM52.1177 0.839755V0.339755H51.8167L51.6758 0.605775L52.1177 0.839755ZM58.79 0.839755L59.23 1.07714L59.6278 0.339755H58.79V0.839755ZM41.1225 33.5904L41.5596 33.8332L41.5626 33.8278L41.1225 33.5904ZM35.4096 33.3577L30.147 23.3492L29.2619 23.8146L34.5245 33.8231L35.4096 33.3577ZM29.2627 23.3476L23.9531 33.356L24.8365 33.8247L30.1461 23.8163L29.2627 23.3476ZM23.9509 33.3602C23.384 34.4535 22.3866 34.9699 21.3406 34.9699V35.9699C22.7379 35.9699 24.0899 35.2646 24.8387 33.8205L23.9509 33.3602ZM21.3406 34.9699C20.2105 34.9699 19.2951 34.4611 18.6764 33.3475L17.8023 33.8332C18.5933 35.257 19.8393 35.9699 21.3406 35.9699V34.9699ZM18.6794 33.353L1.01195 0.602367L0.131841 1.07714L17.7993 33.8278L18.6794 33.353ZM0.571894 1.33976H7.71406V0.339755H0.571894V1.33976ZM7.27154 1.0725L21.086 27.3388L21.971 26.8733L8.15659 0.607013L7.27154 1.0725ZM21.9656 27.3488L27.1343 18.0452L26.2601 17.5596L21.0914 26.8632L21.9656 27.3488ZM27.1402 17.5705L18.2594 0.607844L17.3735 1.07167L26.2542 18.0343L27.1402 17.5705ZM17.8165 1.33976H25.0056V0.339755H17.8165V1.33976ZM24.5589 1.06432L37.7625 27.3306L38.656 26.8815L25.4524 0.61519L24.5589 1.06432ZM38.6511 27.34L52.5596 1.07374L51.6758 0.605775L37.7674 26.872L38.6511 27.34ZM52.1177 1.33976H58.79V0.339755H52.1177V1.33976ZM58.3499 0.602367L40.6824 33.353L41.5626 33.8278L59.23 1.07714L58.3499 0.602367ZM40.6854 33.3475C40.0687 34.4577 39.1081 34.9699 38.0213 34.9699V35.9699C39.4718 35.9699 40.7667 35.2603 41.5596 33.8332L40.6854 33.3475ZM38.0213 34.9699C36.9322 34.9699 35.9796 34.4568 35.411 33.3602L34.5232 33.8205C35.2702 35.2612 36.573 35.9699 38.0213 35.9699V34.9699ZM92.9774 35V35.5H93.4774V35H92.9774ZM62.4352 35H61.9352V35.5H62.4352V35ZM62.4352 0.839755V0.339755H61.9352V0.839755H62.4352ZM92.9304 0.839755H93.4304V0.339755H92.9304V0.839755ZM92.9304 6.80723V7.30723H93.4304V6.80723H92.9304ZM68.3557 6.80723V6.30723H67.8557V6.80723H68.3557ZM68.3557 29.0325H67.8557V29.5325H68.3557V29.0325ZM92.9774 29.0325H93.4774V28.5325H92.9774V29.0325ZM91.6617 20.1518V20.6518H92.1617V20.1518H91.6617ZM72.7256 20.1518H72.2256V20.6518H72.7256V20.1518ZM72.7256 15.1241V14.6241H72.2256V15.1241H72.7256ZM91.6617 15.1241H92.1617V14.6241H91.6617V15.1241ZM92.9774 34.5H62.4352V35.5H92.9774V34.5ZM62.9352 35V0.839755H61.9352V35H62.9352ZM62.4352 1.33976H92.9304V0.339755H62.4352V1.33976ZM92.4304 0.839755V6.80723H93.4304V0.839755H92.4304ZM92.9304 6.30723H68.3557V7.30723H92.9304V6.30723ZM67.8557 6.80723V29.0325H68.8557V6.80723H67.8557ZM68.3557 29.5325H92.9774V28.5325H68.3557V29.5325ZM92.4774 29.0325V35H93.4774V29.0325H92.4774ZM91.6617 19.6518H72.7256V20.6518H91.6617V19.6518ZM73.2256 20.1518V15.1241H72.2256V20.1518H73.2256ZM72.7256 15.6241H91.6617V14.6241H72.7256V15.6241ZM91.1617 15.1241V20.1518H92.1617V15.1241H91.1617ZM98.0422 35H97.5422V35.5H98.0422V35ZM98.0422 0.839755V0.339755H97.5422V0.839755H98.0422ZM129.383 16.9566L129.233 16.4797L127.726 16.9541L129.232 17.4331L129.383 16.9566ZM108.333 20.1518H107.833V20.6518H108.333V20.1518ZM108.333 15.1241V14.6241H107.833V15.1241H108.333ZM104.01 6.80723V6.30723H103.51V6.80723H104.01ZM104.01 29.0795H103.51V29.5795H104.01V29.0795ZM123.745 34.5H98.0422V35.5H123.745V34.5ZM98.5422 35V0.839755H97.5422V35H98.5422ZM98.0422 1.33976H123.04V0.339755H98.0422V1.33976ZM123.04 1.33976C126.31 1.33976 128.961 2.07778 130.783 3.46907C132.586 4.84601 133.629 6.90138 133.629 9.67349H134.629C134.629 6.6191 133.463 4.2576 131.39 2.6743C129.335 1.10534 126.442 0.339755 123.04 0.339755V1.33976ZM133.629 9.67349C133.629 11.7473 133.1 13.2596 132.305 14.3401C131.508 15.422 130.417 16.1068 129.233 16.4797L129.533 17.4336C130.886 17.0076 132.168 16.2123 133.11 14.9331C134.053 13.6524 134.629 11.9226 134.629 9.67349H133.629ZM129.232 17.4331C132.124 18.3536 134.24 20.8856 134.24 24.6626H135.24C135.24 20.4517 132.844 17.5332 129.535 16.4802L129.232 17.4331ZM134.24 24.6626C134.24 27.6674 133.204 30.1138 131.401 31.8108C129.596 33.5107 126.979 34.5 123.745 34.5V35.5C127.183 35.5 130.063 34.4454 132.087 32.5389C134.114 30.6296 135.24 27.9073 135.24 24.6626H134.24ZM123.51 19.6518H108.333V20.6518H123.51V19.6518ZM108.833 20.1518V15.1241H107.833V20.1518H108.833ZM108.333 15.6241H123.087V14.6241H108.333V15.6241ZM123.087 15.6241C124.817 15.6241 126.204 15.3276 127.16 14.5558C128.141 13.7638 128.567 12.5578 128.567 10.9892H127.567C127.567 12.3808 127.195 13.2422 126.532 13.7776C125.843 14.3333 124.74 14.6241 123.087 14.6241V15.6241ZM128.567 10.9892C128.567 10.0193 128.375 9.2104 127.979 8.55169C127.581 7.88963 127.001 7.41899 126.294 7.08848C124.912 6.44246 122.986 6.30723 120.784 6.30723V7.30723C123 7.30723 124.715 7.45392 125.87 7.99434C126.432 8.25707 126.845 8.60577 127.122 9.06701C127.401 9.53162 127.567 10.15 127.567 10.9892H128.567ZM120.784 6.30723H104.01V7.30723H120.784V6.30723ZM103.51 6.80723V29.0795H104.51V6.80723H103.51ZM104.01 29.5795H121.301V28.5795H104.01V29.5795ZM121.301 29.5795C123.469 29.5795 125.413 29.2845 126.832 28.5146C127.548 28.1257 128.141 27.6103 128.552 26.9435C128.965 26.2754 129.178 25.4831 129.178 24.5687H128.178C128.178 25.3224 128.004 25.9279 127.701 26.4183C127.398 26.9101 126.948 27.3139 126.355 27.6357C125.154 28.2872 123.409 28.5795 121.301 28.5795V29.5795ZM129.178 24.5687C129.178 23.0451 128.679 21.7895 127.671 20.9237C126.675 20.068 125.25 19.6518 123.51 19.6518V20.6518C125.105 20.6518 126.265 21.0344 127.019 21.6823C127.762 22.3202 128.178 23.273 128.178 24.5687H129.178Z" fill="#5A5A5A" mask="url(#path-1-outside-1_1261_12)"/>
</svg>
