<svg width="100" height="100" viewBox="0 0 100 100" fill="none" xmlns="http://www.w3.org/2000/svg">
<path fill-rule="evenodd" clip-rule="evenodd" d="M24.4623 28.2049C25.9043 29.6469 25.9043 31.9849 24.4623 33.4269L8.91679 48.9723C8.33999 49.5491 8.33999 50.4843 8.91679 51.0611L24.4623 66.6066C25.9043 68.0486 25.9043 70.3865 24.4623 71.8285C23.0203 73.2705 20.6823 73.2705 19.2403 71.8285L3.69486 56.283C0.234066 52.8222 0.234066 47.2112 3.69486 43.7504L19.2403 28.2049C20.6823 26.7629 23.0203 26.7629 24.4623 28.2049Z" fill="white"/>
<path fill-rule="evenodd" clip-rule="evenodd" d="M75.3659 71.8285C73.9239 70.3865 73.9239 68.0486 75.3659 66.6066L90.9113 51.0611C91.4881 50.4843 91.4881 49.5492 90.9113 48.9724L75.3659 33.4269C73.9239 31.9849 73.9239 29.647 75.3659 28.205C76.8079 26.763 79.1458 26.763 80.5878 28.205L96.1332 43.7504C99.594 47.2112 99.594 52.8223 96.1332 56.2831L80.5878 71.8285C79.1458 73.2705 76.8078 73.2705 75.3659 71.8285Z" fill="white"/>
<path d="M61.8662 22.1978C62.8858 20.4317 65.1441 19.8266 66.9102 20.8462C68.6763 21.8659 69.2814 24.1242 68.2617 25.8902L38.2166 77.93C37.1969 79.696 34.9386 80.3011 33.1726 79.2815C31.4065 78.2619 30.8014 76.0036 31.821 74.2375L61.8662 22.1978Z" fill="white"/>
</svg>
