<svg width="187" height="36" viewBox="0 0 187 36" fill="none" xmlns="http://www.w3.org/2000/svg">
<mask id="path-1-outside-1_1262_20" maskUnits="userSpaceOnUse" x="-1" y="0" width="188" height="36" fill="black">
<rect fill="#5A5A5A" x="-1" width="188" height="36"/>
<path d="M31.5024 19.9169V0.839755H37.3289V19.9169C37.3289 30.4892 32.1133 35.4699 18.8627 35.4699C5.70602 35.4699 0.443374 30.4892 0.443374 19.9169V0.839755H6.5988V19.9169C6.5988 26.7771 9.65301 29.5964 19.0506 29.5964C28.4482 29.5964 31.5024 26.7771 31.5024 19.9169ZM85.4292 35H77.0653L62.734 21.0446L48.5436 35H40.7906L59.1159 17.2386L42.1063 0.839755H50.3292L63.3448 13.4795L76.1725 0.839755H83.9256L66.9159 17.2386L85.4292 35ZM105.115 35H100.98L117.049 0.839755H120.949L105.115 35ZM168.749 19.9169V0.839755H174.576V19.9169C174.576 30.4892 169.36 35.4699 156.11 35.4699C142.953 35.4699 137.69 30.4892 137.69 19.9169V0.839755H143.846V19.9169C143.846 26.7771 146.9 29.5964 156.298 29.5964C165.695 29.5964 168.749 26.7771 168.749 19.9169ZM186.261 35H180.293V0.839755H186.261V35Z"/>
</mask>
<path d="M31.5024 19.9169V0.839755H37.3289V19.9169C37.3289 30.4892 32.1133 35.4699 18.8627 35.4699C5.70602 35.4699 0.443374 30.4892 0.443374 19.9169V0.839755H6.5988V19.9169C6.5988 26.7771 9.65301 29.5964 19.0506 29.5964C28.4482 29.5964 31.5024 26.7771 31.5024 19.9169ZM85.4292 35H77.0653L62.734 21.0446L48.5436 35H40.7906L59.1159 17.2386L42.1063 0.839755H50.3292L63.3448 13.4795L76.1725 0.839755H83.9256L66.9159 17.2386L85.4292 35ZM105.115 35H100.98L117.049 0.839755H120.949L105.115 35ZM168.749 19.9169V0.839755H174.576V19.9169C174.576 30.4892 169.36 35.4699 156.11 35.4699C142.953 35.4699 137.69 30.4892 137.69 19.9169V0.839755H143.846V19.9169C143.846 26.7771 146.9 29.5964 156.298 29.5964C165.695 29.5964 168.749 26.7771 168.749 19.9169ZM186.261 35H180.293V0.839755H186.261V35Z" fill="#5A5A5A"/>
<path d="M31.5024 0.839755V0.339755H31.0024V0.839755H31.5024ZM37.3289 0.839755H37.8289V0.339755H37.3289V0.839755ZM0.443374 0.839755V0.339755H-0.0566264V0.839755H0.443374ZM6.5988 0.839755H7.0988V0.339755H6.5988V0.839755ZM32.0024 19.9169V0.839755H31.0024V19.9169H32.0024ZM31.5024 1.33976H37.3289V0.339755H31.5024V1.33976ZM36.8289 0.839755V19.9169H37.8289V0.839755H36.8289ZM36.8289 19.9169C36.8289 25.1269 35.5448 28.8458 32.7372 31.2802C29.9122 33.7296 25.4434 34.9699 18.8627 34.9699V35.9699C25.5325 35.9699 30.2968 34.7198 33.3923 32.0358C36.5052 29.3367 37.8289 25.2791 37.8289 19.9169H36.8289ZM18.8627 34.9699C12.3297 34.9699 7.87217 33.73 5.04683 31.2802C2.2386 28.8453 0.943374 25.1258 0.943374 19.9169H-0.0566264C-0.0566264 25.2803 1.27948 29.3372 4.39173 32.0358C7.48686 34.7194 12.2389 35.9699 18.8627 35.9699V34.9699ZM0.943374 19.9169V0.839755H-0.0566264V19.9169H0.943374ZM0.443374 1.33976H6.5988V0.339755H0.443374V1.33976ZM6.0988 0.839755V19.9169H7.0988V0.839755H6.0988ZM6.0988 19.9169C6.0988 23.4102 6.8761 26.0171 8.98682 27.7185C11.0658 29.3942 14.3293 30.0964 19.0506 30.0964V29.0964C14.3743 29.0964 11.412 28.3889 9.61439 26.9399C7.8486 25.5166 7.0988 23.2838 7.0988 19.9169H6.0988ZM19.0506 30.0964C23.7719 30.0964 27.0355 29.3942 29.1144 27.7185C31.2251 26.0171 32.0024 23.4102 32.0024 19.9169H31.0024C31.0024 23.2838 30.2526 25.5166 28.4868 26.9399C26.6893 28.3889 23.7269 29.0964 19.0506 29.0964V30.0964ZM85.4292 35V35.5H86.6726L85.7753 34.6392L85.4292 35ZM77.0653 35L76.7165 35.3582L76.8621 35.5H77.0653V35ZM62.734 21.0446L63.0828 20.6864L62.7323 20.345L62.3834 20.6881L62.734 21.0446ZM48.5436 35V35.5H48.7483L48.8942 35.3565L48.5436 35ZM40.7906 35L40.4426 34.641L39.5563 35.5H40.7906V35ZM59.1159 17.2386L59.4639 17.5976L59.8353 17.2376L59.4629 16.8786L59.1159 17.2386ZM42.1063 0.839755V0.339755H40.8673L41.7592 1.19971L42.1063 0.839755ZM50.3292 0.839755L50.6775 0.48106L50.532 0.339755H50.3292V0.839755ZM63.3448 13.4795L62.9965 13.8382L63.3474 14.179L63.6958 13.8357L63.3448 13.4795ZM76.1725 0.839755V0.339755H75.9676L75.8216 0.483602L76.1725 0.839755ZM83.9256 0.839755L84.2726 1.19971L85.1646 0.339755H83.9256V0.839755ZM66.9159 17.2386L66.5689 16.8786L66.1946 17.2394L66.5698 17.5994L66.9159 17.2386ZM85.4292 34.5H77.0653V35.5H85.4292V34.5ZM77.4141 34.6418L63.0828 20.6864L62.3852 21.4028L76.7165 35.3582L77.4141 34.6418ZM62.3834 20.6881L48.193 34.6435L48.8942 35.3565L63.0846 21.4011L62.3834 20.6881ZM48.5436 34.5H40.7906V35.5H48.5436V34.5ZM41.1386 35.359L59.4639 17.5976L58.7679 16.8795L40.4426 34.641L41.1386 35.359ZM59.4629 16.8786L42.4533 0.479798L41.7592 1.19971L58.7689 17.5985L59.4629 16.8786ZM42.1063 1.33976H50.3292V0.339755H42.1063V1.33976ZM49.9808 1.19845L62.9965 13.8382L63.6932 13.1208L50.6775 0.48106L49.9808 1.19845ZM63.6958 13.8357L76.5235 1.19591L75.8216 0.483602L62.9939 13.1234L63.6958 13.8357ZM76.1725 1.33976H83.9256V0.339755H76.1725V1.33976ZM83.5785 0.479798L66.5689 16.8786L67.2629 17.5985L84.2726 1.19971L83.5785 0.479798ZM66.5698 17.5994L85.083 35.3608L85.7753 34.6392L67.2621 16.8777L66.5698 17.5994ZM105.115 35V35.5H105.434L105.568 35.2103L105.115 35ZM100.98 35L100.527 34.7872L100.192 35.5H100.98V35ZM117.049 0.839755V0.339755H116.732L116.597 0.626917L117.049 0.839755ZM120.949 0.839755L121.403 1.05004L121.732 0.339755H120.949V0.839755ZM105.115 34.5H100.98V35.5H105.115V34.5ZM101.432 35.2128L117.502 1.05259L116.597 0.626917L100.527 34.7872L101.432 35.2128ZM117.049 1.33976H120.949V0.339755H117.049V1.33976ZM120.496 0.629475L104.661 34.7897L105.568 35.2103L121.403 1.05004L120.496 0.629475ZM168.749 0.839755V0.339755H168.249V0.839755H168.749ZM174.576 0.839755H175.076V0.339755H174.576V0.839755ZM137.69 0.839755V0.339755H137.19V0.839755H137.69ZM143.846 0.839755H144.346V0.339755H143.846V0.839755ZM169.249 19.9169V0.839755H168.249V19.9169H169.249ZM168.749 1.33976H174.576V0.339755H168.749V1.33976ZM174.076 0.839755V19.9169H175.076V0.839755H174.076ZM174.076 19.9169C174.076 25.1269 172.792 28.8458 169.984 31.2802C167.159 33.7296 162.69 34.9699 156.11 34.9699V35.9699C162.78 35.9699 167.544 34.7198 170.639 32.0358C173.752 29.3367 175.076 25.2791 175.076 19.9169H174.076ZM156.11 34.9699C149.577 34.9699 145.119 33.73 142.294 31.2802C139.486 28.8453 138.19 25.1258 138.19 19.9169H137.19C137.19 25.2803 138.527 29.3372 141.639 32.0358C144.734 34.7194 149.486 35.9699 156.11 35.9699V34.9699ZM138.19 19.9169V0.839755H137.19V19.9169H138.19ZM137.69 1.33976H143.846V0.339755H137.69V1.33976ZM143.346 0.839755V19.9169H144.346V0.839755H143.346ZM143.346 19.9169C143.346 23.4102 144.123 26.0171 146.234 27.7185C148.313 29.3942 151.576 30.0964 156.298 30.0964V29.0964C151.621 29.0964 148.659 28.3889 146.861 26.9399C145.096 25.5166 144.346 23.2838 144.346 19.9169H143.346ZM156.298 30.0964C161.019 30.0964 164.282 29.3942 166.361 27.7185C168.472 26.0171 169.249 23.4102 169.249 19.9169H168.249C168.249 23.2838 167.5 25.5166 165.734 26.9399C163.936 28.3889 160.974 29.0964 156.298 29.0964V30.0964ZM186.261 35V35.5H186.761V35H186.261ZM180.293 35H179.793V35.5H180.293V35ZM180.293 0.839755V0.339755H179.793V0.839755H180.293ZM186.261 0.839755H186.761V0.339755H186.261V0.839755ZM186.261 34.5H180.293V35.5H186.261V34.5ZM180.793 35V0.839755H179.793V35H180.793ZM180.293 1.33976H186.261V0.339755H180.293V1.33976ZM185.761 0.839755V35H186.761V0.839755H185.761Z" fill="#5A5A5A" mask="url(#path-1-outside-1_1262_20)"/>
</svg>
