<svg width="77" height="35" viewBox="0 0 77 35" fill="none" xmlns="http://www.w3.org/2000/svg">
<mask id="path-1-outside-1_1258_4" maskUnits="userSpaceOnUse" x="-1.08594" y="0" width="78" height="36" fill="black">
<rect fill="#5A5A5A" x="-1.08594" width="78" height="36"/>
<path d="M23.4755 35H0.0755085V29.0325H22.0189C25.7779 29.0325 28.4092 27.4819 28.4092 24.5217C28.4092 21.7024 26.5767 20.1518 23.2406 20.1518H8.15744V15.1241H22.8177C26.2008 15.1241 27.7984 13.9494 27.7984 10.9892C27.7984 7.84096 25.59 6.76024 21.643 6.76024H0.216472V0.839755H22.8177C29.443 0.839755 33.8129 3.84698 33.8129 9.67349C33.8129 13.9964 31.6514 16.1578 29.1141 16.9566C32.2153 17.9434 34.4707 20.6687 34.4707 24.6626C34.4707 30.8651 30.1478 35 23.4755 35ZM59.5222 35H39.7403V0.839755H59.5222C69.1548 0.839755 76.156 7.65301 76.156 17.5675C76.156 27.4819 69.1548 35 59.5222 35ZM45.6608 29.0325H59.5222C65.6777 29.0325 70.1885 24.2867 70.1885 17.8494C70.1885 11.412 65.6777 6.80723 59.5222 6.80723H45.6608V29.0325Z"/>
</mask>
<path d="M23.4755 35H0.0755085V29.0325H22.0189C25.7779 29.0325 28.4092 27.4819 28.4092 24.5217C28.4092 21.7024 26.5767 20.1518 23.2406 20.1518H8.15744V15.1241H22.8177C26.2008 15.1241 27.7984 13.9494 27.7984 10.9892C27.7984 7.84096 25.59 6.76024 21.643 6.76024H0.216472V0.839755H22.8177C29.443 0.839755 33.8129 3.84698 33.8129 9.67349C33.8129 13.9964 31.6514 16.1578 29.1141 16.9566C32.2153 17.9434 34.4707 20.6687 34.4707 24.6626C34.4707 30.8651 30.1478 35 23.4755 35ZM59.5222 35H39.7403V0.839755H59.5222C69.1548 0.839755 76.156 7.65301 76.156 17.5675C76.156 27.4819 69.1548 35 59.5222 35ZM45.6608 29.0325H59.5222C65.6777 29.0325 70.1885 24.2867 70.1885 17.8494C70.1885 11.412 65.6777 6.80723 59.5222 6.80723H45.6608V29.0325Z" fill="#5A5A5A"/>
<path d="M0.0755085 35H-0.424491V35.5H0.0755085V35ZM0.0755085 29.0325V28.5325H-0.424491V29.0325H0.0755085ZM8.15744 20.1518H7.65744V20.6518H8.15744V20.1518ZM8.15744 15.1241V14.6241H7.65744V15.1241H8.15744ZM0.216472 6.76024H-0.283528V7.26024H0.216472V6.76024ZM0.216472 0.839755V0.339755H-0.283528V0.839755H0.216472ZM29.1141 16.9566L28.9639 16.4797L27.457 16.9541L28.9625 17.4331L29.1141 16.9566ZM23.4755 34.5H0.0755085V35.5H23.4755V34.5ZM0.575509 35V29.0325H-0.424491V35H0.575509ZM0.0755085 29.5325H22.0189V28.5325H0.0755085V29.5325ZM22.0189 29.5325C23.9572 29.5325 25.6642 29.1343 26.9025 28.3022C28.1631 27.4553 28.9092 26.1747 28.9092 24.5217H27.9092C27.9092 25.8289 27.3397 26.8038 26.3449 27.4722C25.3278 28.1555 23.8396 28.5325 22.0189 28.5325V29.5325ZM28.9092 24.5217C28.9092 22.9976 28.4091 21.752 27.3988 20.8977C26.4019 20.0547 24.9778 19.6518 23.2406 19.6518V20.6518C24.8395 20.6518 25.9997 21.0242 26.7531 21.6613C27.4932 22.2871 27.9092 23.2265 27.9092 24.5217H28.9092ZM23.2406 19.6518H8.15744V20.6518H23.2406V19.6518ZM8.65744 20.1518V15.1241H7.65744V20.1518H8.65744ZM8.15744 15.6241H22.8177V14.6241H8.15744V15.6241ZM22.8177 15.6241C24.5478 15.6241 25.9345 15.3276 26.8908 14.5558C27.872 13.7638 28.2984 12.5578 28.2984 10.9892H27.2984C27.2984 12.3808 26.926 13.2422 26.2627 13.7776C25.5743 14.3333 24.4707 14.6241 22.8177 14.6241V15.6241ZM28.2984 10.9892C28.2984 9.27855 27.6858 8.04457 26.4688 7.272C25.2995 6.52973 23.6413 6.26024 21.643 6.26024V7.26024C23.5917 7.26024 25.0111 7.53111 25.9328 8.11625C26.8068 8.67109 27.2984 9.55156 27.2984 10.9892H28.2984ZM21.643 6.26024H0.216472V7.26024H21.643V6.26024ZM0.716472 6.76024V0.839755H-0.283528V6.76024H0.716472ZM0.216472 1.33976H22.8177V0.339755H0.216472V1.33976ZM22.8177 1.33976C26.0635 1.33976 28.6905 2.07748 30.4946 3.46773C32.2802 4.84385 33.3129 6.89936 33.3129 9.67349H34.3129C34.3129 6.62111 33.1605 4.25976 31.105 2.67564C29.0677 1.10564 26.1972 0.339755 22.8177 0.339755V1.33976ZM33.3129 9.67349C33.3129 11.7497 32.795 13.2627 32.0104 14.3427C31.2255 15.4234 30.1471 16.1072 28.9639 16.4797L29.2642 17.4336C30.6184 17.0072 31.8894 16.2109 32.8195 14.9304C33.75 13.6494 34.3129 11.9202 34.3129 9.67349H33.3129ZM28.9625 17.4331C31.8554 18.3536 33.9707 20.8856 33.9707 24.6626H34.9707C34.9707 20.4517 32.5751 17.5332 29.2657 16.4802L28.9625 17.4331ZM33.9707 24.6626C33.9707 27.6431 32.935 30.0902 31.1318 31.7938C29.3261 33.4998 26.7081 34.5 23.4755 34.5V35.5C26.9152 35.5 29.7948 34.4327 31.8186 32.5207C33.8449 30.6062 34.9707 27.8846 34.9707 24.6626H33.9707ZM39.7403 35H39.2403V35.5H39.7403V35ZM39.7403 0.839755V0.339755H39.2403V0.839755H39.7403ZM45.6608 29.0325H45.1608V29.5325H45.6608V29.0325ZM45.6608 6.80723V6.30723H45.1608V6.80723H45.6608ZM59.5222 34.5H39.7403V35.5H59.5222V34.5ZM40.2403 35V0.839755H39.2403V35H40.2403ZM39.7403 1.33976H59.5222V0.339755H39.7403V1.33976ZM59.5222 1.33976C64.2179 1.33976 68.2457 2.99855 71.0985 5.83995C73.9507 8.68081 75.656 12.7315 75.656 17.5675H76.656C76.656 12.489 74.8607 8.17581 71.8042 5.13143C68.7482 2.08759 64.4592 0.339755 59.5222 0.339755V1.33976ZM75.656 17.5675C75.656 27.2317 68.8535 34.5 59.5222 34.5V35.5C69.4561 35.5 76.656 27.7322 76.656 17.5675H75.656ZM45.6608 29.5325H59.5222V28.5325H45.6608V29.5325ZM59.5222 29.5325C65.9763 29.5325 70.6885 24.5398 70.6885 17.8494H69.6885C69.6885 24.0337 65.379 28.5325 59.5222 28.5325V29.5325ZM70.6885 17.8494C70.6885 11.1504 65.9681 6.30723 59.5222 6.30723V7.30723C65.3873 7.30723 69.6885 11.6737 69.6885 17.8494H70.6885ZM59.5222 6.30723H45.6608V7.30723H59.5222V6.30723ZM45.1608 6.80723V29.0325H46.1608V6.80723H45.1608Z" fill="#5A5A5A" mask="url(#path-1-outside-1_1258_4)"/>
</svg>
