<svg width="302" height="36" viewBox="0 0 302 36" fill="none" xmlns="http://www.w3.org/2000/svg">
<mask id="path-1-outside-1_1250_2" maskUnits="userSpaceOnUse" x="-0.0859375" y="-1" width="302" height="37" fill="black">
<rect fill="#5A5A5A" x="-0.0859375" y="-1" width="302" height="37"/>
<path d="M38.102 35H17.4743C7.93575 35 0.887557 27.4819 0.887557 17.5675C0.887557 7.51205 7.93575 0.839755 17.4743 0.839755H35.9876V6.80723H17.4743C11.3659 6.80723 6.85503 11.3651 6.85503 17.8494C6.85503 24.2867 11.3189 29.0325 17.4743 29.0325H32.0876V20.1518H16.6755V15.1241H38.102V35ZM83.76 35H75.3022L66.6564 25.5084H53.8757V20.2458H68.113C72.3889 20.2458 74.6443 17.8024 74.6443 13.3855C74.6443 8.96867 72.201 6.80723 68.113 6.80723H49.5058V35H43.5853V0.839755H68.113C75.913 0.839755 80.5178 5.67952 80.5178 13.2916C80.5178 18.9301 77.8865 22.9241 73.4696 24.6157L83.76 35ZM129.662 35H122.473L117.352 26.4012H101.188L104.007 21.5614H114.485L106.873 8.78072L91.3673 35H84.554L104.195 2.29638C104.9 1.12169 105.793 0.369876 107.108 0.369876C108.424 0.369876 109.27 1.12169 109.974 2.29638L129.662 35ZM157.35 25.5084H143.63V19.7289H157.35C161.532 19.7289 164.023 17.0976 164.023 13.2446C164.023 9.29759 161.532 6.80723 157.35 6.80723H139.26V35H133.34V0.839755H157.35C165.244 0.839755 169.849 5.58554 169.849 13.0566C169.849 20.4337 165.244 25.5084 157.35 25.5084ZM207.542 35.141H201.575V20.2928H184.377V14.9831H201.575V0.839755H207.542V35.141ZM180.054 35.141H174.087V0.839755H180.054V35.141ZM219.754 35H213.787V0.839755H219.754V35ZM260.098 35H241.585C232.046 35 224.998 27.4819 224.998 17.5675C224.998 7.51205 232.046 0.839755 241.585 0.839755H260.098V6.80723H241.585C235.476 6.80723 230.966 11.3651 230.966 17.8494C230.966 24.2867 235.429 29.0325 241.585 29.0325H260.098V35ZM290.551 35H264.943V29.0325H290.551C293.746 29.0325 295.532 27.247 295.532 24.5687C295.532 21.6554 293.746 20.1518 290.551 20.1518H274.857C268.42 20.1518 264.426 16.0639 264.426 10.4253C264.426 4.92771 268.138 0.839755 274.951 0.839755H299.479V6.80723H274.951C272.226 6.80723 270.628 8.40482 270.628 10.9892C270.628 13.5735 272.273 15.1241 274.904 15.1241H290.551C297.458 15.1241 301.17 18.3663 301.17 24.9916C301.17 30.7241 297.693 35 290.551 35Z"/>
</mask>
<path d="M38.102 35H17.4743C7.93575 35 0.887557 27.4819 0.887557 17.5675C0.887557 7.51205 7.93575 0.839755 17.4743 0.839755H35.9876V6.80723H17.4743C11.3659 6.80723 6.85503 11.3651 6.85503 17.8494C6.85503 24.2867 11.3189 29.0325 17.4743 29.0325H32.0876V20.1518H16.6755V15.1241H38.102V35ZM83.76 35H75.3022L66.6564 25.5084H53.8757V20.2458H68.113C72.3889 20.2458 74.6443 17.8024 74.6443 13.3855C74.6443 8.96867 72.201 6.80723 68.113 6.80723H49.5058V35H43.5853V0.839755H68.113C75.913 0.839755 80.5178 5.67952 80.5178 13.2916C80.5178 18.9301 77.8865 22.9241 73.4696 24.6157L83.76 35ZM129.662 35H122.473L117.352 26.4012H101.188L104.007 21.5614H114.485L106.873 8.78072L91.3673 35H84.554L104.195 2.29638C104.9 1.12169 105.793 0.369876 107.108 0.369876C108.424 0.369876 109.27 1.12169 109.974 2.29638L129.662 35ZM157.35 25.5084H143.63V19.7289H157.35C161.532 19.7289 164.023 17.0976 164.023 13.2446C164.023 9.29759 161.532 6.80723 157.35 6.80723H139.26V35H133.34V0.839755H157.35C165.244 0.839755 169.849 5.58554 169.849 13.0566C169.849 20.4337 165.244 25.5084 157.35 25.5084ZM207.542 35.141H201.575V20.2928H184.377V14.9831H201.575V0.839755H207.542V35.141ZM180.054 35.141H174.087V0.839755H180.054V35.141ZM219.754 35H213.787V0.839755H219.754V35ZM260.098 35H241.585C232.046 35 224.998 27.4819 224.998 17.5675C224.998 7.51205 232.046 0.839755 241.585 0.839755H260.098V6.80723H241.585C235.476 6.80723 230.966 11.3651 230.966 17.8494C230.966 24.2867 235.429 29.0325 241.585 29.0325H260.098V35ZM290.551 35H264.943V29.0325H290.551C293.746 29.0325 295.532 27.247 295.532 24.5687C295.532 21.6554 293.746 20.1518 290.551 20.1518H274.857C268.42 20.1518 264.426 16.0639 264.426 10.4253C264.426 4.92771 268.138 0.839755 274.951 0.839755H299.479V6.80723H274.951C272.226 6.80723 270.628 8.40482 270.628 10.9892C270.628 13.5735 272.273 15.1241 274.904 15.1241H290.551C297.458 15.1241 301.17 18.3663 301.17 24.9916C301.17 30.7241 297.693 35 290.551 35Z" fill="#5A5A5A"/>
<path d="M38.102 35V35.5H38.602V35H38.102ZM35.9876 0.839755H36.4876V0.339755H35.9876V0.839755ZM35.9876 6.80723V7.30723H36.4876V6.80723H35.9876ZM32.0876 29.0325V29.5325H32.5876V29.0325H32.0876ZM32.0876 20.1518H32.5876V19.6518H32.0876V20.1518ZM16.6755 20.1518H16.1755V20.6518H16.6755V20.1518ZM16.6755 15.1241V14.6241H16.1755V15.1241H16.6755ZM38.102 15.1241H38.602V14.6241H38.102V15.1241ZM38.102 34.5H17.4743V35.5H38.102V34.5ZM17.4743 34.5C8.23707 34.5 1.38756 27.2317 1.38756 17.5675H0.387557C0.387557 27.7322 7.63443 35.5 17.4743 35.5V34.5ZM1.38756 17.5675C1.38756 12.6605 3.1049 8.61066 5.95576 5.78814C8.8077 2.96455 12.8238 1.33976 17.4743 1.33976V0.339755C12.5862 0.339755 8.30898 2.05111 5.25219 5.07751C2.19431 8.105 0.387557 12.419 0.387557 17.5675H1.38756ZM17.4743 1.33976H35.9876V0.339755H17.4743V1.33976ZM35.4876 0.839755V6.80723H36.4876V0.839755H35.4876ZM35.9876 6.30723H17.4743V7.30723H35.9876V6.30723ZM17.4743 6.30723C11.0754 6.30723 6.35503 11.1034 6.35503 17.8494H7.35503C7.35503 11.6267 11.6563 7.30723 17.4743 7.30723V6.30723ZM6.35503 17.8494C6.35503 24.5368 11.0174 29.5325 17.4743 29.5325V28.5325C11.6204 28.5325 7.35503 24.0367 7.35503 17.8494H6.35503ZM17.4743 29.5325H32.0876V28.5325H17.4743V29.5325ZM32.5876 29.0325V20.1518H31.5876V29.0325H32.5876ZM32.0876 19.6518H16.6755V20.6518H32.0876V19.6518ZM17.1755 20.1518V15.1241H16.1755V20.1518H17.1755ZM16.6755 15.6241H38.102V14.6241H16.6755V15.6241ZM37.602 15.1241V35H38.602V15.1241H37.602ZM83.76 35V35.5H84.9594L84.1151 34.6481L83.76 35ZM75.3022 35L74.9325 35.3367L75.0813 35.5H75.3022V35ZM66.6564 25.5084L67.026 25.1717L66.8773 25.0084H66.6564V25.5084ZM53.8757 25.5084H53.3757V26.0084H53.8757V25.5084ZM53.8757 20.2458V19.7458H53.3757V20.2458H53.8757ZM49.5058 6.80723V6.30723H49.0058V6.80723H49.5058ZM49.5058 35V35.5H50.0058V35H49.5058ZM43.5853 35H43.0853V35.5H43.5853V35ZM43.5853 0.839755V0.339755H43.0853V0.839755H43.5853ZM73.4696 24.6157L73.2908 24.1487L72.5748 24.423L73.1145 24.9676L73.4696 24.6157ZM83.76 34.5H75.3022V35.5H83.76V34.5ZM75.6718 34.6633L67.026 25.1717L66.2867 25.8451L74.9325 35.3367L75.6718 34.6633ZM66.6564 25.0084H53.8757V26.0084H66.6564V25.0084ZM54.3757 25.5084V20.2458H53.3757V25.5084H54.3757ZM53.8757 20.7458H68.113V19.7458H53.8757V20.7458ZM68.113 20.7458C70.3457 20.7458 72.127 20.1056 73.3456 18.8153C74.5598 17.5297 75.1443 15.6736 75.1443 13.3855H74.1443C74.1443 15.5143 73.6011 17.0884 72.6186 18.1287C71.6406 19.1642 70.1562 19.7458 68.113 19.7458V20.7458ZM75.1443 13.3855C75.1443 11.0868 74.5068 9.29554 73.2605 8.08185C72.0166 6.87049 70.2408 6.30723 68.113 6.30723V7.30723C70.0732 7.30723 71.5631 7.82469 72.5628 8.79827C73.5602 9.76951 74.1443 11.2675 74.1443 13.3855H75.1443ZM68.113 6.30723H49.5058V7.30723H68.113V6.30723ZM49.0058 6.80723V35H50.0058V6.80723H49.0058ZM49.5058 34.5H43.5853V35.5H49.5058V34.5ZM44.0853 35V0.839755H43.0853V35H44.0853ZM43.5853 1.33976H68.113V0.339755H43.5853V1.33976ZM68.113 1.33976C71.908 1.33976 74.8703 2.51474 76.884 4.56178C78.8989 6.61007 80.0178 9.58635 80.0178 13.2916H81.0178C81.0178 9.38473 79.8344 6.1351 77.5969 3.86051C75.3581 1.58465 72.1181 0.339755 68.113 0.339755V1.33976ZM80.0178 13.2916C80.0178 18.7554 77.4856 22.5422 73.2908 24.1487L73.6485 25.0826C78.2874 23.306 81.0178 19.1048 81.0178 13.2916H80.0178ZM73.1145 24.9676L83.4048 35.3519L84.1151 34.6481L73.8248 24.2637L73.1145 24.9676ZM129.662 35V35.5H130.547L130.091 34.7421L129.662 35ZM122.473 35L122.044 35.2559L122.189 35.5H122.473V35ZM117.352 26.4012L117.781 26.1453L117.636 25.9012H117.352V26.4012ZM101.188 26.4012L100.756 26.1495L100.318 26.9012H101.188V26.4012ZM104.007 21.5614V21.0614H103.72L103.575 21.3098L104.007 21.5614ZM114.485 21.5614V22.0614H115.365L114.915 21.3056L114.485 21.5614ZM106.873 8.78072L107.303 8.52487L106.872 7.80105L106.443 8.5262L106.873 8.78072ZM91.3673 35V35.5H91.6525L91.7976 35.2545L91.3673 35ZM84.554 35L84.1254 34.7426L83.6705 35.5H84.554V35ZM104.195 2.29638L104.624 2.55381L104.624 2.55363L104.195 2.29638ZM109.974 2.29638L109.546 2.55363L109.546 2.55426L109.974 2.29638ZM129.662 34.5H122.473V35.5H129.662V34.5ZM122.903 34.7441L117.781 26.1453L116.922 26.6571L122.044 35.2559L122.903 34.7441ZM117.352 25.9012H101.188V26.9012H117.352V25.9012ZM101.62 26.6529L104.439 21.8131L103.575 21.3098L100.756 26.1495L101.62 26.6529ZM104.007 22.0614H114.485V21.0614H104.007V22.0614ZM114.915 21.3056L107.303 8.52487L106.444 9.03657L114.056 21.8173L114.915 21.3056ZM106.443 8.5262L90.9369 34.7455L91.7976 35.2545L107.304 9.03524L106.443 8.5262ZM91.3673 34.5H84.554V35.5H91.3673V34.5ZM84.9826 35.2574L104.624 2.55381L103.766 2.03895L84.1254 34.7426L84.9826 35.2574ZM104.624 2.55363C105.28 1.45968 106.037 0.869876 107.108 0.869876V-0.130124C105.548 -0.130124 104.519 0.783693 103.766 2.03913L104.624 2.55363ZM107.108 0.869876C108.172 0.869876 108.884 1.45054 109.546 2.55363L110.403 2.03913C109.655 0.792835 108.675 -0.130124 107.108 -0.130124V0.869876ZM109.546 2.55426L129.234 35.2579L130.091 34.7421L110.403 2.0385L109.546 2.55426ZM143.63 25.5084H143.13V26.0084H143.63V25.5084ZM143.63 19.7289V19.2289H143.13V19.7289H143.63ZM139.26 6.80723V6.30723H138.76V6.80723H139.26ZM139.26 35V35.5H139.76V35H139.26ZM133.34 35H132.84V35.5H133.34V35ZM133.34 0.839755V0.339755H132.84V0.839755H133.34ZM157.35 25.0084H143.63V26.0084H157.35V25.0084ZM144.13 25.5084V19.7289H143.13V25.5084H144.13ZM143.63 20.2289H157.35V19.2289H143.63V20.2289ZM157.35 20.2289C159.548 20.2289 161.352 19.5353 162.607 18.2861C163.863 17.0372 164.523 15.2803 164.523 13.2446H163.523C163.523 15.0618 162.938 16.5471 161.902 17.5772C160.867 18.6069 159.335 19.2289 157.35 19.2289V20.2289ZM164.523 13.2446C164.523 11.1641 163.864 9.41558 162.604 8.18767C161.345 6.96104 159.541 6.30723 157.35 6.30723V7.30723C159.342 7.30723 160.874 7.8986 161.906 8.9039C162.936 9.90791 163.523 11.378 163.523 13.2446H164.523ZM157.35 6.30723H139.26V7.30723H157.35V6.30723ZM138.76 6.80723V35H139.76V6.80723H138.76ZM139.26 34.5H133.34V35.5H139.26V34.5ZM133.84 35V0.839755H132.84V35H133.84ZM133.34 1.33976H157.35V0.339755H133.34V1.33976ZM157.35 1.33976C161.197 1.33976 164.184 2.49399 166.208 4.50155C168.232 6.50891 169.349 9.42462 169.349 13.0566H170.349C170.349 9.21754 169.164 6.02482 166.912 3.79152C164.661 1.55841 161.398 0.339755 157.35 0.339755V1.33976ZM169.349 13.0566C169.349 16.641 168.232 19.6196 166.202 21.6997C164.174 23.7778 161.187 25.0084 157.35 25.0084V26.0084C161.408 26.0084 164.67 24.7017 166.918 22.3982C169.164 20.0967 170.349 16.8494 170.349 13.0566H169.349ZM207.542 35.141V35.641H208.042V35.141H207.542ZM201.575 35.141H201.075V35.641H201.575V35.141ZM201.575 20.2928H202.075V19.7928H201.575V20.2928ZM184.377 20.2928H183.877V20.7928H184.377V20.2928ZM184.377 14.9831V14.4831H183.877V14.9831H184.377ZM201.575 14.9831V15.4831H202.075V14.9831H201.575ZM201.575 0.839755V0.339755H201.075V0.839755H201.575ZM207.542 0.839755H208.042V0.339755H207.542V0.839755ZM180.054 35.141V35.641H180.554V35.141H180.054ZM174.087 35.141H173.587V35.641H174.087V35.141ZM174.087 0.839755V0.339755H173.587V0.839755H174.087ZM180.054 0.839755H180.554V0.339755H180.054V0.839755ZM207.542 34.641H201.575V35.641H207.542V34.641ZM202.075 35.141V20.2928H201.075V35.141H202.075ZM201.575 19.7928H184.377V20.7928H201.575V19.7928ZM184.877 20.2928V14.9831H183.877V20.2928H184.877ZM184.377 15.4831H201.575V14.4831H184.377V15.4831ZM202.075 14.9831V0.839755H201.075V14.9831H202.075ZM201.575 1.33976H207.542V0.339755H201.575V1.33976ZM207.042 0.839755V35.141H208.042V0.839755H207.042ZM180.054 34.641H174.087V35.641H180.054V34.641ZM174.587 35.141V0.839755H173.587V35.141H174.587ZM174.087 1.33976H180.054V0.339755H174.087V1.33976ZM179.554 0.839755V35.141H180.554V0.839755H179.554ZM219.754 35V35.5H220.254V35H219.754ZM213.787 35H213.287V35.5H213.787V35ZM213.787 0.839755V0.339755H213.287V0.839755H213.787ZM219.754 0.839755H220.254V0.339755H219.754V0.839755ZM219.754 34.5H213.787V35.5H219.754V34.5ZM214.287 35V0.839755H213.287V35H214.287ZM213.787 1.33976H219.754V0.339755H213.787V1.33976ZM219.254 0.839755V35H220.254V0.839755H219.254ZM260.098 35V35.5H260.598V35H260.098ZM260.098 0.839755H260.598V0.339755H260.098V0.839755ZM260.098 6.80723V7.30723H260.598V6.80723H260.098ZM260.098 29.0325H260.598V28.5325H260.098V29.0325ZM260.098 34.5H241.585V35.5H260.098V34.5ZM241.585 34.5C232.348 34.5 225.498 27.2317 225.498 17.5675H224.498C224.498 27.7322 231.745 35.5 241.585 35.5V34.5ZM225.498 17.5675C225.498 12.6605 227.215 8.61066 230.066 5.78814C232.918 2.96455 236.934 1.33976 241.585 1.33976V0.339755C236.697 0.339755 232.419 2.05111 229.363 5.07751C226.305 8.105 224.498 12.419 224.498 17.5675H225.498ZM241.585 1.33976H260.098V0.339755H241.585V1.33976ZM259.598 0.839755V6.80723H260.598V0.839755H259.598ZM260.098 6.30723H241.585V7.30723H260.098V6.30723ZM241.585 6.30723C235.186 6.30723 230.466 11.1034 230.466 17.8494H231.466C231.466 11.6267 235.767 7.30723 241.585 7.30723V6.30723ZM230.466 17.8494C230.466 24.5368 235.128 29.5325 241.585 29.5325V28.5325C235.731 28.5325 231.466 24.0367 231.466 17.8494H230.466ZM241.585 29.5325H260.098V28.5325H241.585V29.5325ZM259.598 29.0325V35H260.598V29.0325H259.598ZM264.943 35H264.443V35.5H264.943V35ZM264.943 29.0325V28.5325H264.443V29.0325H264.943ZM299.479 0.839755H299.979V0.339755H299.479V0.839755ZM299.479 6.80723V7.30723H299.979V6.80723H299.479ZM290.551 34.5H264.943V35.5H290.551V34.5ZM265.443 35V29.0325H264.443V35H265.443ZM264.943 29.5325H290.551V28.5325H264.943V29.5325ZM290.551 29.5325C292.24 29.5325 293.618 29.0597 294.579 28.1723C295.544 27.281 296.032 26.0228 296.032 24.5687H295.032C295.032 25.7929 294.627 26.7666 293.9 27.4377C293.17 28.1126 292.058 28.5325 290.551 28.5325V29.5325ZM296.032 24.5687C296.032 23.0065 295.549 21.7493 294.569 20.8915C293.6 20.0435 292.219 19.6518 290.551 19.6518V20.6518C292.078 20.6518 293.188 21.0119 293.91 21.6441C294.622 22.2664 295.032 23.2176 295.032 24.5687H296.032ZM290.551 19.6518H274.857V20.6518H290.551V19.6518ZM274.857 19.6518C271.746 19.6518 269.269 18.6657 267.573 17.0419C265.879 15.419 264.926 13.1228 264.926 10.4253H263.926C263.926 13.3663 264.97 15.9334 266.882 17.7641C268.792 19.5939 271.531 20.6518 274.857 20.6518V19.6518ZM264.926 10.4253C264.926 7.79141 265.813 5.53271 267.48 3.93155C269.148 2.32971 271.645 1.33976 274.951 1.33976V0.339755C271.444 0.339755 268.679 1.39378 266.787 3.21031C264.895 5.02752 263.926 7.5616 263.926 10.4253H264.926ZM274.951 1.33976H299.479V0.339755H274.951V1.33976ZM298.979 0.839755V6.80723H299.979V0.839755H298.979ZM299.479 6.30723H274.951V7.30723H299.479V6.30723ZM274.951 6.30723C273.491 6.30723 272.273 6.73674 271.418 7.57128C270.562 8.40711 270.128 9.59268 270.128 10.9892H271.128C271.128 9.80129 271.493 8.8959 272.117 8.28685C272.742 7.67651 273.686 7.30723 274.951 7.30723V6.30723ZM270.128 10.9892C270.128 12.39 270.577 13.564 271.433 14.3864C272.287 15.2063 273.491 15.6241 274.904 15.6241V14.6241C273.686 14.6241 272.752 14.2666 272.126 13.6651C271.502 13.0662 271.128 12.1726 271.128 10.9892H270.128ZM274.904 15.6241H290.551V14.6241H274.904V15.6241ZM290.551 15.6241C293.935 15.6241 296.448 16.419 298.113 17.9423C299.771 19.4582 300.67 21.7714 300.67 24.9916H301.67C301.67 21.5864 300.714 18.9659 298.788 17.2044C296.871 15.4503 294.074 14.6241 290.551 14.6241V15.6241ZM300.67 24.9916C300.67 27.7579 299.833 30.1226 298.183 31.7943C296.536 33.4637 294.021 34.5 290.551 34.5V35.5C294.223 35.5 297.018 34.3983 298.895 32.4967C300.769 30.5973 301.67 27.9578 301.67 24.9916H300.67Z" fill="#5A5A5A" mask="url(#path-1-outside-1_1250_2)"/>
</svg>
