<svg width="195" height="36" viewBox="0 0 195 36" fill="none" xmlns="http://www.w3.org/2000/svg">
<mask id="path-1-outside-1_1263_260" maskUnits="userSpaceOnUse" x="-0.808105" y="-0.0437012" width="197" height="36" fill="black">
<rect fill="#5A5A5A" x="-0.808105" y="-0.0437012" width="197" height="36"/>
<path d="M25.069 34.9563H16.7521C7.21358 34.9563 0.165389 27.4382 0.165389 17.5238C0.165389 7.46834 7.21358 0.796054 16.7521 0.796054H25.069C34.9365 0.796054 41.7967 7.60931 41.7967 17.5238C41.7967 27.4382 34.7955 34.9563 25.069 34.9563ZM16.7521 28.9888H25.069C31.3654 28.9888 35.8292 24.243 35.8292 17.8057C35.8292 11.3683 31.3654 6.76353 25.069 6.76353H16.7521C10.6437 6.76353 6.13286 11.3214 6.13286 17.8057C6.13286 24.243 10.5967 28.9888 16.7521 28.9888ZM62.7614 34.9563H56.7939V6.76353H43.8253V0.796054H75.7301V6.76353H62.7614V34.9563ZM113.12 35.0973H107.152V20.2491H89.9546V14.9394H107.152V0.796054H113.12V35.0973ZM85.6317 35.0973H79.6642V0.796054H85.6317V35.0973ZM149.577 34.9563H119.035V0.796054H149.53V6.76353H124.955V28.9888H149.577V34.9563ZM148.262 20.1081H129.325V15.0804H148.262V20.1081ZM194.864 34.9563H186.406L177.76 25.4647H164.979V20.2021H179.217C183.493 20.2021 185.748 17.7587 185.748 13.3418C185.748 8.92497 183.305 6.76353 179.217 6.76353H160.609V34.9563H154.689V0.796054H179.217C187.017 0.796054 191.621 5.63582 191.621 13.2479C191.621 18.8864 188.99 22.8804 184.573 24.572L194.864 34.9563Z"/>
</mask>
<path d="M25.069 34.9563H16.7521C7.21358 34.9563 0.165389 27.4382 0.165389 17.5238C0.165389 7.46834 7.21358 0.796054 16.7521 0.796054H25.069C34.9365 0.796054 41.7967 7.60931 41.7967 17.5238C41.7967 27.4382 34.7955 34.9563 25.069 34.9563ZM16.7521 28.9888H25.069C31.3654 28.9888 35.8292 24.243 35.8292 17.8057C35.8292 11.3683 31.3654 6.76353 25.069 6.76353H16.7521C10.6437 6.76353 6.13286 11.3214 6.13286 17.8057C6.13286 24.243 10.5967 28.9888 16.7521 28.9888ZM62.7614 34.9563H56.7939V6.76353H43.8253V0.796054H75.7301V6.76353H62.7614V34.9563ZM113.12 35.0973H107.152V20.2491H89.9546V14.9394H107.152V0.796054H113.12V35.0973ZM85.6317 35.0973H79.6642V0.796054H85.6317V35.0973ZM149.577 34.9563H119.035V0.796054H149.53V6.76353H124.955V28.9888H149.577V34.9563ZM148.262 20.1081H129.325V15.0804H148.262V20.1081ZM194.864 34.9563H186.406L177.76 25.4647H164.979V20.2021H179.217C183.493 20.2021 185.748 17.7587 185.748 13.3418C185.748 8.92497 183.305 6.76353 179.217 6.76353H160.609V34.9563H154.689V0.796054H179.217C187.017 0.796054 191.621 5.63582 191.621 13.2479C191.621 18.8864 188.99 22.8804 184.573 24.572L194.864 34.9563Z" fill="#5A5A5A"/>
<path d="M25.069 34.4563H16.7521V35.4563H25.069V34.4563ZM16.7521 34.4563C7.5149 34.4563 0.665389 27.188 0.665389 17.5238H-0.334611C-0.334611 27.6885 6.91226 35.4563 16.7521 35.4563V34.4563ZM0.665389 17.5238C0.665389 12.6168 2.38274 8.56696 5.23359 5.74444C8.08553 2.92085 12.1017 1.29605 16.7521 1.29605V0.296054C11.864 0.296054 7.58681 2.00741 4.53002 5.03381C1.47214 8.0613 -0.334611 12.3753 -0.334611 17.5238H0.665389ZM16.7521 1.29605H25.069V0.296054H16.7521V1.29605ZM25.069 1.29605C29.8848 1.29605 33.935 2.95659 36.78 5.79589C39.6248 8.63504 41.2967 12.685 41.2967 17.5238H42.2967C42.2967 12.4481 40.5385 8.13418 37.4864 5.08808C34.4343 2.04214 30.1207 0.296054 25.069 0.296054V1.29605ZM41.2967 17.5238C41.2967 27.186 34.496 34.4563 25.069 34.4563V35.4563C35.095 35.4563 42.2967 27.6904 42.2967 17.5238H41.2967ZM16.7521 29.4888H25.069V28.4888H16.7521V29.4888ZM25.069 29.4888C31.6626 29.4888 36.3292 24.4976 36.3292 17.8057H35.3292C35.3292 23.9885 31.0682 28.4888 25.069 28.4888V29.4888ZM36.3292 17.8057C36.3292 11.1052 31.6544 6.26353 25.069 6.26353V7.26353C31.0764 7.26353 35.3292 11.6315 35.3292 17.8057H36.3292ZM25.069 6.26353H16.7521V7.26353H25.069V6.26353ZM16.7521 6.26353C10.3533 6.26353 5.63286 11.0597 5.63286 17.8057H6.63286C6.63286 11.583 10.9341 7.26353 16.7521 7.26353V6.26353ZM5.63286 17.8057C5.63286 24.4931 10.2952 29.4888 16.7521 29.4888V28.4888C10.8982 28.4888 6.63286 23.993 6.63286 17.8057H5.63286ZM62.7614 34.9563V35.4563H63.2614V34.9563H62.7614ZM56.7939 34.9563H56.2939V35.4563H56.7939V34.9563ZM56.7939 6.76353H57.2939V6.26353H56.7939V6.76353ZM43.8253 6.76353H43.3253V7.26353H43.8253V6.76353ZM43.8253 0.796054V0.296054H43.3253V0.796054H43.8253ZM75.7301 0.796054H76.2301V0.296054H75.7301V0.796054ZM75.7301 6.76353V7.26353H76.2301V6.76353H75.7301ZM62.7614 6.76353V6.26353H62.2614V6.76353H62.7614ZM62.7614 34.4563H56.7939V35.4563H62.7614V34.4563ZM57.2939 34.9563V6.76353H56.2939V34.9563H57.2939ZM56.7939 6.26353H43.8253V7.26353H56.7939V6.26353ZM44.3253 6.76353V0.796054H43.3253V6.76353H44.3253ZM43.8253 1.29605H75.7301V0.296054H43.8253V1.29605ZM75.2301 0.796054V6.76353H76.2301V0.796054H75.2301ZM75.7301 6.26353H62.7614V7.26353H75.7301V6.26353ZM62.2614 6.76353V34.9563H63.2614V6.76353H62.2614ZM113.12 35.0973V35.5973H113.62V35.0973H113.12ZM107.152 35.0973H106.652V35.5973H107.152V35.0973ZM107.152 20.2491H107.652V19.7491H107.152V20.2491ZM89.9546 20.2491H89.4546V20.7491H89.9546V20.2491ZM89.9546 14.9394V14.4394H89.4546V14.9394H89.9546ZM107.152 14.9394V15.4394H107.652V14.9394H107.152ZM107.152 0.796054V0.296054H106.652V0.796054H107.152ZM113.12 0.796054H113.62V0.296054H113.12V0.796054ZM85.6317 35.0973V35.5973H86.1317V35.0973H85.6317ZM79.6642 35.0973H79.1642V35.5973H79.6642V35.0973ZM79.6642 0.796054V0.296054H79.1642V0.796054H79.6642ZM85.6317 0.796054H86.1317V0.296054H85.6317V0.796054ZM113.12 34.5973H107.152V35.5973H113.12V34.5973ZM107.652 35.0973V20.2491H106.652V35.0973H107.652ZM107.152 19.7491H89.9546V20.7491H107.152V19.7491ZM90.4546 20.2491V14.9394H89.4546V20.2491H90.4546ZM89.9546 15.4394H107.152V14.4394H89.9546V15.4394ZM107.652 14.9394V0.796054H106.652V14.9394H107.652ZM107.152 1.29605H113.12V0.296054H107.152V1.29605ZM112.62 0.796054V35.0973H113.62V0.796054H112.62ZM85.6317 34.5973H79.6642V35.5973H85.6317V34.5973ZM80.1642 35.0973V0.796054H79.1642V35.0973H80.1642ZM79.6642 1.29605H85.6317V0.296054H79.6642V1.29605ZM85.1317 0.796054V35.0973H86.1317V0.796054H85.1317ZM149.577 34.9563V35.4563H150.077V34.9563H149.577ZM119.035 34.9563H118.535V35.4563H119.035V34.9563ZM119.035 0.796054V0.296054H118.535V0.796054H119.035ZM149.53 0.796054H150.03V0.296054H149.53V0.796054ZM149.53 6.76353V7.26353H150.03V6.76353H149.53ZM124.955 6.76353V6.26353H124.455V6.76353H124.955ZM124.955 28.9888H124.455V29.4888H124.955V28.9888ZM149.577 28.9888H150.077V28.4888H149.577V28.9888ZM148.262 20.1081V20.6081H148.762V20.1081H148.262ZM129.325 20.1081H128.825V20.6081H129.325V20.1081ZM129.325 15.0804V14.5804H128.825V15.0804H129.325ZM148.262 15.0804H148.762V14.5804H148.262V15.0804ZM149.577 34.4563H119.035V35.4563H149.577V34.4563ZM119.535 34.9563V0.796054H118.535V34.9563H119.535ZM119.035 1.29605H149.53V0.296054H119.035V1.29605ZM149.03 0.796054V6.76353H150.03V0.796054H149.03ZM149.53 6.26353H124.955V7.26353H149.53V6.26353ZM124.455 6.76353V28.9888H125.455V6.76353H124.455ZM124.955 29.4888H149.577V28.4888H124.955V29.4888ZM149.077 28.9888V34.9563H150.077V28.9888H149.077ZM148.262 19.6081H129.325V20.6081H148.262V19.6081ZM129.825 20.1081V15.0804H128.825V20.1081H129.825ZM129.325 15.5804H148.262V14.5804H129.325V15.5804ZM147.762 15.0804V20.1081H148.762V15.0804H147.762ZM194.864 34.9563V35.4563H196.063L195.219 34.6044L194.864 34.9563ZM186.406 34.9563L186.036 35.293L186.185 35.4563H186.406V34.9563ZM177.76 25.4647L178.13 25.128L177.981 24.9647H177.76V25.4647ZM164.979 25.4647H164.479V25.9647H164.979V25.4647ZM164.979 20.2021V19.7021H164.479V20.2021H164.979ZM160.609 6.76353V6.26353H160.109V6.76353H160.609ZM160.609 34.9563V35.4563H161.109V34.9563H160.609ZM154.689 34.9563H154.189V35.4563H154.689V34.9563ZM154.689 0.796054V0.296054H154.189V0.796054H154.689ZM184.573 24.572L184.394 24.105L183.678 24.3793L184.218 24.9239L184.573 24.572ZM194.864 34.4563H186.406V35.4563H194.864V34.4563ZM186.775 34.6196L178.13 25.128L177.39 25.8014L186.036 35.293L186.775 34.6196ZM177.76 24.9647H164.979V25.9647H177.76V24.9647ZM165.479 25.4647V20.2021H164.479V25.4647H165.479ZM164.979 20.7021H179.217V19.7021H164.979V20.7021ZM179.217 20.7021C181.449 20.7021 183.231 20.0619 184.449 18.7716C185.663 17.486 186.248 15.6299 186.248 13.3418H185.248C185.248 15.4706 184.705 17.0447 183.722 18.085C182.744 19.1205 181.26 19.7021 179.217 19.7021V20.7021ZM186.248 13.3418C186.248 11.043 185.61 9.25184 184.364 8.03815C183.12 6.82679 181.344 6.26353 179.217 6.26353V7.26353C181.177 7.26353 182.667 7.78099 183.666 8.75457C184.664 9.72581 185.248 11.2238 185.248 13.3418H186.248ZM179.217 6.26353H160.609V7.26353H179.217V6.26353ZM160.109 6.76353V34.9563H161.109V6.76353H160.109ZM160.609 34.4563H154.689V35.4563H160.609V34.4563ZM155.189 34.9563V0.796054H154.189V34.9563H155.189ZM154.689 1.29605H179.217V0.296054H154.689V1.29605ZM179.217 1.29605C183.012 1.29605 185.974 2.47104 187.988 4.51808C190.003 6.56637 191.121 9.54265 191.121 13.2479H192.121C192.121 9.34103 190.938 6.0914 188.701 3.81681C186.462 1.54095 183.222 0.296054 179.217 0.296054V1.29605ZM191.121 13.2479C191.121 18.7117 188.589 22.4985 184.394 24.105L184.752 25.0389C189.391 23.2623 192.121 19.0611 192.121 13.2479H191.121ZM184.218 24.9239L194.508 35.3082L195.219 34.6044L184.928 24.22L184.218 24.9239Z" fill="#5A5A5A" mask="url(#path-1-outside-1_1263_260)"/>
</svg>
