<svg width="407" height="36" viewBox="0 0 407 36" fill="none" xmlns="http://www.w3.org/2000/svg">
<mask id="path-1-outside-1_1258_3" maskUnits="userSpaceOnUse" x="-1.08594" y="-1" width="409" height="37" fill="black">
<rect fill="#5A5A5A" x="-1.08594" y="-1" width="409" height="37"/>
<path d="M6.17069 35H0.203219V0.839755H6.17069V35ZM41.3459 35H12.4014V0.839755H18.3688V29.0325H41.3459V35ZM74.5679 35H45.6233V0.839755H51.5908V29.0325H74.5679V35ZM109.387 19.9169V0.839755H115.214V19.9169C115.214 30.4892 109.998 35.4699 96.7477 35.4699C83.591 35.4699 78.3284 30.4892 78.3284 19.9169V0.839755H84.4838V19.9169C84.4838 26.7771 87.538 29.5964 96.9356 29.5964C106.333 29.5964 109.387 26.7771 109.387 19.9169ZM146.211 35H120.602V29.0325H146.211C149.406 29.0325 151.191 27.247 151.191 24.5687C151.191 21.6554 149.406 20.1518 146.211 20.1518H130.517C124.079 20.1518 120.085 16.0639 120.085 10.4253C120.085 4.92771 123.797 0.839755 130.611 0.839755H155.138V6.80723H130.611C127.885 6.80723 126.288 8.40482 126.288 10.9892C126.288 13.5735 127.932 15.1241 130.564 15.1241H146.211C153.118 15.1241 156.83 18.3663 156.83 24.9916C156.83 30.7241 153.353 35 146.211 35ZM178.862 35H172.894V6.80723H159.926V0.839755H191.83V6.80723H178.862V35ZM235.939 35H227.481L218.836 25.5084H206.055V20.2458H220.292C224.568 20.2458 226.824 17.8024 226.824 13.3855C226.824 8.96867 224.38 6.80723 220.292 6.80723H201.685V35H195.765V0.839755H220.292C228.092 0.839755 232.697 5.67952 232.697 13.2916C232.697 18.9301 230.066 22.9241 225.649 24.6157L235.939 35ZM281.842 35H274.653L269.531 26.4012H253.367L256.186 21.5614H266.665L259.053 8.78072L243.546 35H236.733L256.374 2.29638C257.079 1.12169 257.972 0.369876 259.287 0.369876C260.603 0.369876 261.449 1.12169 262.154 2.29638L281.842 35ZM296.377 35H290.41V6.80723H277.441V0.839755H309.346V6.80723H296.377V35ZM319.577 35H313.609V0.839755H319.577V35ZM349.724 35H341.407C331.869 35 324.821 27.4819 324.821 17.5675C324.821 7.51205 331.869 0.839755 341.407 0.839755H349.724C359.592 0.839755 366.452 7.65301 366.452 17.5675C366.452 27.4819 359.451 35 349.724 35ZM341.407 29.0325H349.724C356.021 29.0325 360.484 24.2867 360.484 17.8494C360.484 11.412 356.021 6.80723 349.724 6.80723H341.407C335.299 6.80723 330.788 11.3651 330.788 17.8494C330.788 24.2867 335.252 29.0325 341.407 29.0325ZM400.836 34.1542L376.826 10.0024V35H371.14V3.98795C371.14 1.77952 372.315 0.416864 374.194 0.416864C375.087 0.416864 375.839 0.745781 376.732 1.63855L400.836 25.5554V0.557828H406.522V31.8518C406.522 34.1072 405.3 35.4229 403.562 35.4229C402.575 35.4229 401.682 35 400.836 34.1542Z"/>
</mask>
<path d="M6.17069 35H0.203219V0.839755H6.17069V35ZM41.3459 35H12.4014V0.839755H18.3688V29.0325H41.3459V35ZM74.5679 35H45.6233V0.839755H51.5908V29.0325H74.5679V35ZM109.387 19.9169V0.839755H115.214V19.9169C115.214 30.4892 109.998 35.4699 96.7477 35.4699C83.591 35.4699 78.3284 30.4892 78.3284 19.9169V0.839755H84.4838V19.9169C84.4838 26.7771 87.538 29.5964 96.9356 29.5964C106.333 29.5964 109.387 26.7771 109.387 19.9169ZM146.211 35H120.602V29.0325H146.211C149.406 29.0325 151.191 27.247 151.191 24.5687C151.191 21.6554 149.406 20.1518 146.211 20.1518H130.517C124.079 20.1518 120.085 16.0639 120.085 10.4253C120.085 4.92771 123.797 0.839755 130.611 0.839755H155.138V6.80723H130.611C127.885 6.80723 126.288 8.40482 126.288 10.9892C126.288 13.5735 127.932 15.1241 130.564 15.1241H146.211C153.118 15.1241 156.83 18.3663 156.83 24.9916C156.83 30.7241 153.353 35 146.211 35ZM178.862 35H172.894V6.80723H159.926V0.839755H191.83V6.80723H178.862V35ZM235.939 35H227.481L218.836 25.5084H206.055V20.2458H220.292C224.568 20.2458 226.824 17.8024 226.824 13.3855C226.824 8.96867 224.38 6.80723 220.292 6.80723H201.685V35H195.765V0.839755H220.292C228.092 0.839755 232.697 5.67952 232.697 13.2916C232.697 18.9301 230.066 22.9241 225.649 24.6157L235.939 35ZM281.842 35H274.653L269.531 26.4012H253.367L256.186 21.5614H266.665L259.053 8.78072L243.546 35H236.733L256.374 2.29638C257.079 1.12169 257.972 0.369876 259.287 0.369876C260.603 0.369876 261.449 1.12169 262.154 2.29638L281.842 35ZM296.377 35H290.41V6.80723H277.441V0.839755H309.346V6.80723H296.377V35ZM319.577 35H313.609V0.839755H319.577V35ZM349.724 35H341.407C331.869 35 324.821 27.4819 324.821 17.5675C324.821 7.51205 331.869 0.839755 341.407 0.839755H349.724C359.592 0.839755 366.452 7.65301 366.452 17.5675C366.452 27.4819 359.451 35 349.724 35ZM341.407 29.0325H349.724C356.021 29.0325 360.484 24.2867 360.484 17.8494C360.484 11.412 356.021 6.80723 349.724 6.80723H341.407C335.299 6.80723 330.788 11.3651 330.788 17.8494C330.788 24.2867 335.252 29.0325 341.407 29.0325ZM400.836 34.1542L376.826 10.0024V35H371.14V3.98795C371.14 1.77952 372.315 0.416864 374.194 0.416864C375.087 0.416864 375.839 0.745781 376.732 1.63855L400.836 25.5554V0.557828H406.522V31.8518C406.522 34.1072 405.3 35.4229 403.562 35.4229C402.575 35.4229 401.682 35 400.836 34.1542Z" fill="#5A5A5A"/>
<path d="M6.17069 35V35.5H6.67069V35H6.17069ZM0.203219 35H-0.296781V35.5H0.203219V35ZM0.203219 0.839755V0.339755H-0.296781V0.839755H0.203219ZM6.17069 0.839755H6.67069V0.339755H6.17069V0.839755ZM6.17069 34.5H0.203219V35.5H6.17069V34.5ZM0.703219 35V0.839755H-0.296781V35H0.703219ZM0.203219 1.33976H6.17069V0.339755H0.203219V1.33976ZM5.67069 0.839755V35H6.67069V0.839755H5.67069ZM41.3459 35V35.5H41.8459V35H41.3459ZM12.4014 35H11.9014V35.5H12.4014V35ZM12.4014 0.839755V0.339755H11.9014V0.839755H12.4014ZM18.3688 0.839755H18.8688V0.339755H18.3688V0.839755ZM18.3688 29.0325H17.8688V29.5325H18.3688V29.0325ZM41.3459 29.0325H41.8459V28.5325H41.3459V29.0325ZM41.3459 34.5H12.4014V35.5H41.3459V34.5ZM12.9014 35V0.839755H11.9014V35H12.9014ZM12.4014 1.33976H18.3688V0.339755H12.4014V1.33976ZM17.8688 0.839755V29.0325H18.8688V0.839755H17.8688ZM18.3688 29.5325H41.3459V28.5325H18.3688V29.5325ZM40.8459 29.0325V35H41.8459V29.0325H40.8459ZM74.5679 35V35.5H75.0679V35H74.5679ZM45.6233 35H45.1233V35.5H45.6233V35ZM45.6233 0.839755V0.339755H45.1233V0.839755H45.6233ZM51.5908 0.839755H52.0908V0.339755H51.5908V0.839755ZM51.5908 29.0325H51.0908V29.5325H51.5908V29.0325ZM74.5679 29.0325H75.0679V28.5325H74.5679V29.0325ZM74.5679 34.5H45.6233V35.5H74.5679V34.5ZM46.1233 35V0.839755H45.1233V35H46.1233ZM45.6233 1.33976H51.5908V0.339755H45.6233V1.33976ZM51.0908 0.839755V29.0325H52.0908V0.839755H51.0908ZM51.5908 29.5325H74.5679V28.5325H51.5908V29.5325ZM74.0679 29.0325V35H75.0679V29.0325H74.0679ZM109.387 0.839755V0.339755H108.887V0.839755H109.387ZM115.214 0.839755H115.714V0.339755H115.214V0.839755ZM78.3284 0.839755V0.339755H77.8284V0.839755H78.3284ZM84.4838 0.839755H84.9838V0.339755H84.4838V0.839755ZM109.887 19.9169V0.839755H108.887V19.9169H109.887ZM109.387 1.33976H115.214V0.339755H109.387V1.33976ZM114.714 0.839755V19.9169H115.714V0.839755H114.714ZM114.714 19.9169C114.714 25.1269 113.43 28.8458 110.622 31.2802C107.797 33.7296 103.328 34.9699 96.7477 34.9699V35.9699C103.418 35.9699 108.182 34.7198 111.277 32.0358C114.39 29.3367 115.714 25.2791 115.714 19.9169H114.714ZM96.7477 34.9699C90.2148 34.9699 85.7572 33.73 82.9319 31.2802C80.1236 28.8453 78.8284 25.1258 78.8284 19.9169H77.8284C77.8284 25.2803 79.1645 29.3372 82.2768 32.0358C85.3719 34.7194 90.124 35.9699 96.7477 35.9699V34.9699ZM78.8284 19.9169V0.839755H77.8284V19.9169H78.8284ZM78.3284 1.33976H84.4838V0.339755H78.3284V1.33976ZM83.9838 0.839755V19.9169H84.9838V0.839755H83.9838ZM83.9838 19.9169C83.9838 23.4102 84.7611 26.0171 86.8718 27.7185C88.9508 29.3942 92.2144 30.0964 96.9356 30.0964V29.0964C92.2593 29.0964 89.297 28.3889 87.4994 26.9399C85.7336 25.5166 84.9838 23.2838 84.9838 19.9169H83.9838ZM96.9356 30.0964C101.657 30.0964 104.92 29.3942 106.999 27.7185C109.11 26.0171 109.887 23.4102 109.887 19.9169H108.887C108.887 23.2838 108.138 25.5166 106.372 26.9399C104.574 28.3889 101.612 29.0964 96.9356 29.0964V30.0964ZM120.602 35H120.102V35.5H120.602V35ZM120.602 29.0325V28.5325H120.102V29.0325H120.602ZM155.138 0.839755H155.638V0.339755H155.138V0.839755ZM155.138 6.80723V7.30723H155.638V6.80723H155.138ZM146.211 34.5H120.602V35.5H146.211V34.5ZM121.102 35V29.0325H120.102V35H121.102ZM120.602 29.5325H146.211V28.5325H120.602V29.5325ZM146.211 29.5325C147.899 29.5325 149.278 29.0597 150.238 28.1723C151.203 27.281 151.691 26.0228 151.691 24.5687H150.691C150.691 25.7929 150.286 26.7666 149.56 27.4377C148.829 28.1126 147.717 28.5325 146.211 28.5325V29.5325ZM151.691 24.5687C151.691 23.0065 151.209 21.7493 150.228 20.8915C149.259 20.0435 147.878 19.6518 146.211 19.6518V20.6518C147.738 20.6518 148.847 21.0119 149.57 21.6441C150.281 22.2664 150.691 23.2176 150.691 24.5687H151.691ZM146.211 19.6518H130.517V20.6518H146.211V19.6518ZM130.517 19.6518C127.405 19.6518 124.928 18.6657 123.233 17.0419C121.538 15.419 120.585 13.1228 120.585 10.4253H119.585C119.585 13.3663 120.629 15.9334 122.541 17.7641C124.452 19.5939 127.191 20.6518 130.517 20.6518V19.6518ZM120.585 10.4253C120.585 7.79141 121.472 5.53271 123.139 3.93155C124.807 2.32971 127.305 1.33976 130.611 1.33976V0.339755C127.103 0.339755 124.338 1.39378 122.447 3.21031C120.554 5.02752 119.585 7.5616 119.585 10.4253H120.585ZM130.611 1.33976H155.138V0.339755H130.611V1.33976ZM154.638 0.839755V6.80723H155.638V0.839755H154.638ZM155.138 6.30723H130.611V7.30723H155.138V6.30723ZM130.611 6.30723C129.151 6.30723 127.933 6.73674 127.078 7.57128C126.222 8.40711 125.788 9.59268 125.788 10.9892H126.788C126.788 9.80129 127.153 8.8959 127.776 8.28685C128.402 7.67651 129.345 7.30723 130.611 7.30723V6.30723ZM125.788 10.9892C125.788 12.39 126.236 13.564 127.093 14.3864C127.946 15.2063 129.151 15.6241 130.564 15.6241V14.6241C129.345 14.6241 128.412 14.2666 127.785 13.6651C127.162 13.0662 126.788 12.1726 126.788 10.9892H125.788ZM130.564 15.6241H146.211V14.6241H130.564V15.6241ZM146.211 15.6241C149.595 15.6241 152.108 16.419 153.773 17.9423C155.43 19.4582 156.33 21.7714 156.33 24.9916H157.33C157.33 21.5864 156.374 18.9659 154.448 17.2044C152.53 15.4503 149.734 14.6241 146.211 14.6241V15.6241ZM156.33 24.9916C156.33 27.7579 155.492 30.1226 153.843 31.7943C152.195 33.4637 149.68 34.5 146.211 34.5V35.5C149.883 35.5 152.678 34.3983 154.554 32.4967C156.429 30.5973 157.33 27.9578 157.33 24.9916H156.33ZM178.862 35V35.5H179.362V35H178.862ZM172.894 35H172.394V35.5H172.894V35ZM172.894 6.80723H173.394V6.30723H172.894V6.80723ZM159.926 6.80723H159.426V7.30723H159.926V6.80723ZM159.926 0.839755V0.339755H159.426V0.839755H159.926ZM191.83 0.839755H192.33V0.339755H191.83V0.839755ZM191.83 6.80723V7.30723H192.33V6.80723H191.83ZM178.862 6.80723V6.30723H178.362V6.80723H178.862ZM178.862 34.5H172.894V35.5H178.862V34.5ZM173.394 35V6.80723H172.394V35H173.394ZM172.894 6.30723H159.926V7.30723H172.894V6.30723ZM160.426 6.80723V0.839755H159.426V6.80723H160.426ZM159.926 1.33976H191.83V0.339755H159.926V1.33976ZM191.33 0.839755V6.80723H192.33V0.839755H191.33ZM191.83 6.30723H178.862V7.30723H191.83V6.30723ZM178.362 6.80723V35H179.362V6.80723H178.362ZM235.939 35V35.5H237.139L236.294 34.6481L235.939 35ZM227.481 35L227.112 35.3367L227.26 35.5H227.481V35ZM218.836 25.5084L219.205 25.1717L219.056 25.0084H218.836V25.5084ZM206.055 25.5084H205.555V26.0084H206.055V25.5084ZM206.055 20.2458V19.7458H205.555V20.2458H206.055ZM201.685 6.80723V6.30723H201.185V6.80723H201.685ZM201.685 35V35.5H202.185V35H201.685ZM195.765 35H195.265V35.5H195.765V35ZM195.765 0.839755V0.339755H195.265V0.839755H195.765ZM225.649 24.6157L225.47 24.1487L224.754 24.423L225.294 24.9676L225.649 24.6157ZM235.939 34.5H227.481V35.5H235.939V34.5ZM227.851 34.6633L219.205 25.1717L218.466 25.8451L227.112 35.3367L227.851 34.6633ZM218.836 25.0084H206.055V26.0084H218.836V25.0084ZM206.555 25.5084V20.2458H205.555V25.5084H206.555ZM206.055 20.7458H220.292V19.7458H206.055V20.7458ZM220.292 20.7458C222.525 20.7458 224.306 20.1056 225.525 18.8153C226.739 17.5297 227.324 15.6736 227.324 13.3855H226.324C226.324 15.5143 225.78 17.0884 224.798 18.1287C223.82 19.1642 222.335 19.7458 220.292 19.7458V20.7458ZM227.324 13.3855C227.324 11.0868 226.686 9.29554 225.44 8.08185C224.196 6.87049 222.42 6.30723 220.292 6.30723V7.30723C222.252 7.30723 223.742 7.82469 224.742 8.79827C225.739 9.76951 226.324 11.2675 226.324 13.3855H227.324ZM220.292 6.30723H201.685V7.30723H220.292V6.30723ZM201.185 6.80723V35H202.185V6.80723H201.185ZM201.685 34.5H195.765V35.5H201.685V34.5ZM196.265 35V0.839755H195.265V35H196.265ZM195.765 1.33976H220.292V0.339755H195.765V1.33976ZM220.292 1.33976C224.087 1.33976 227.05 2.51474 229.063 4.56178C231.078 6.61007 232.197 9.58635 232.197 13.2916H233.197C233.197 9.38473 232.014 6.1351 229.776 3.86051C227.537 1.58465 224.297 0.339755 220.292 0.339755V1.33976ZM232.197 13.2916C232.197 18.7554 229.665 22.5422 225.47 24.1487L225.828 25.0826C230.467 23.306 233.197 19.1048 233.197 13.2916H232.197ZM225.294 24.9676L235.584 35.3519L236.294 34.6481L226.004 24.2637L225.294 24.9676ZM281.842 35V35.5H282.726L282.27 34.7421L281.842 35ZM274.653 35L274.223 35.2559L274.368 35.5H274.653V35ZM269.531 26.4012L269.96 26.1453L269.815 25.9012H269.531V26.4012ZM253.367 26.4012L252.935 26.1495L252.497 26.9012H253.367V26.4012ZM256.186 21.5614V21.0614H255.899L255.754 21.3098L256.186 21.5614ZM266.665 21.5614V22.0614H267.544L267.094 21.3056L266.665 21.5614ZM259.053 8.78072L259.482 8.52487L259.051 7.80105L258.622 8.5262L259.053 8.78072ZM243.546 35V35.5H243.832L243.977 35.2545L243.546 35ZM236.733 35L236.305 34.7426L235.85 35.5H236.733V35ZM256.374 2.29638L256.803 2.55381L256.803 2.55363L256.374 2.29638ZM262.154 2.29638L261.725 2.55363L261.725 2.55426L262.154 2.29638ZM281.842 34.5H274.653V35.5H281.842V34.5ZM275.082 34.7441L269.96 26.1453L269.101 26.6571L274.223 35.2559L275.082 34.7441ZM269.531 25.9012H253.367V26.9012H269.531V25.9012ZM253.799 26.6529L256.618 21.8131L255.754 21.3098L252.935 26.1495L253.799 26.6529ZM256.186 22.0614H266.665V21.0614H256.186V22.0614ZM267.094 21.3056L259.482 8.52487L258.623 9.03657L266.235 21.8173L267.094 21.3056ZM258.622 8.5262L243.116 34.7455L243.977 35.2545L259.483 9.03524L258.622 8.5262ZM243.546 34.5H236.733V35.5H243.546V34.5ZM237.162 35.2574L256.803 2.55381L255.946 2.03895L236.305 34.7426L237.162 35.2574ZM256.803 2.55363C257.459 1.45968 258.216 0.869876 259.287 0.869876V-0.130124C257.728 -0.130124 256.699 0.783693 255.945 2.03913L256.803 2.55363ZM259.287 0.869876C260.352 0.869876 261.063 1.45054 261.725 2.55363L262.582 2.03913C261.835 0.792835 260.855 -0.130124 259.287 -0.130124V0.869876ZM261.725 2.55426L281.413 35.2579L282.27 34.7421L262.582 2.0385L261.725 2.55426ZM296.377 35V35.5H296.877V35H296.377ZM290.41 35H289.91V35.5H290.41V35ZM290.41 6.80723H290.91V6.30723H290.41V6.80723ZM277.441 6.80723H276.941V7.30723H277.441V6.80723ZM277.441 0.839755V0.339755H276.941V0.839755H277.441ZM309.346 0.839755H309.846V0.339755H309.346V0.839755ZM309.346 6.80723V7.30723H309.846V6.80723H309.346ZM296.377 6.80723V6.30723H295.877V6.80723H296.377ZM296.377 34.5H290.41V35.5H296.377V34.5ZM290.91 35V6.80723H289.91V35H290.91ZM290.41 6.30723H277.441V7.30723H290.41V6.30723ZM277.941 6.80723V0.839755H276.941V6.80723H277.941ZM277.441 1.33976H309.346V0.339755H277.441V1.33976ZM308.846 0.839755V6.80723H309.846V0.839755H308.846ZM309.346 6.30723H296.377V7.30723H309.346V6.30723ZM295.877 6.80723V35H296.877V6.80723H295.877ZM319.577 35V35.5H320.077V35H319.577ZM313.609 35H313.109V35.5H313.609V35ZM313.609 0.839755V0.339755H313.109V0.839755H313.609ZM319.577 0.839755H320.077V0.339755H319.577V0.839755ZM319.577 34.5H313.609V35.5H319.577V34.5ZM314.109 35V0.839755H313.109V35H314.109ZM313.609 1.33976H319.577V0.339755H313.609V1.33976ZM319.077 0.839755V35H320.077V0.839755H319.077ZM349.724 34.5H341.407V35.5H349.724V34.5ZM341.407 34.5C332.17 34.5 325.321 27.2317 325.321 17.5675H324.321C324.321 27.7322 331.567 35.5 341.407 35.5V34.5ZM325.321 17.5675C325.321 12.6605 327.038 8.61066 329.889 5.78814C332.741 2.96455 336.757 1.33976 341.407 1.33976V0.339755C336.519 0.339755 332.242 2.05111 329.185 5.07751C326.127 8.105 324.321 12.419 324.321 17.5675H325.321ZM341.407 1.33976H349.724V0.339755H341.407V1.33976ZM349.724 1.33976C354.54 1.33976 358.59 3.0003 361.435 5.8396C364.28 8.67874 365.952 12.7287 365.952 17.5675H366.952C366.952 12.4918 365.194 8.17788 362.142 5.13178C359.09 2.08584 354.776 0.339755 349.724 0.339755V1.33976ZM365.952 17.5675C365.952 27.2297 359.151 34.5 349.724 34.5V35.5C359.75 35.5 366.952 27.7341 366.952 17.5675H365.952ZM341.407 29.5325H349.724V28.5325H341.407V29.5325ZM349.724 29.5325C356.318 29.5325 360.984 24.5413 360.984 17.8494H359.984C359.984 24.0322 355.723 28.5325 349.724 28.5325V29.5325ZM360.984 17.8494C360.984 11.1489 356.31 6.30723 349.724 6.30723V7.30723C355.732 7.30723 359.984 11.6752 359.984 17.8494H360.984ZM349.724 6.30723H341.407V7.30723H349.724V6.30723ZM341.407 6.30723C335.008 6.30723 330.288 11.1034 330.288 17.8494H331.288C331.288 11.6267 335.589 7.30723 341.407 7.30723V6.30723ZM330.288 17.8494C330.288 24.5368 334.95 29.5325 341.407 29.5325V28.5325C335.553 28.5325 331.288 24.0367 331.288 17.8494H330.288ZM400.836 34.1542L400.482 34.5067L400.483 34.5078L400.836 34.1542ZM376.826 10.0024L377.18 9.64989L376.326 8.79029V10.0024H376.826ZM376.826 35V35.5H377.326V35H376.826ZM371.14 35H370.64V35.5H371.14V35ZM376.732 1.63855L376.378 1.99211L376.379 1.99349L376.732 1.63855ZM400.836 25.5554L400.484 25.9104L401.336 26.7559V25.5554H400.836ZM400.836 0.557828V0.0578284H400.336V0.557828H400.836ZM406.522 0.557828H407.022V0.0578284H406.522V0.557828ZM401.191 33.8017L377.18 9.64989L376.471 10.3549L400.482 34.5067L401.191 33.8017ZM376.326 10.0024V35H377.326V10.0024H376.326ZM376.826 34.5H371.14V35.5H376.826V34.5ZM371.64 35V3.98795H370.64V35H371.64ZM371.64 3.98795C371.64 2.96822 371.911 2.20237 372.342 1.69964C372.765 1.2058 373.384 0.916864 374.194 0.916864V-0.0831364C373.125 -0.0831364 372.217 0.309251 371.583 1.04885C370.956 1.77955 370.64 2.79925 370.64 3.98795H371.64ZM374.194 0.916864C374.922 0.916864 375.553 1.1673 376.378 1.9921L377.085 1.285C376.124 0.324265 375.252 -0.0831364 374.194 -0.0831364V0.916864ZM376.379 1.99349L400.484 25.9104L401.189 25.2005L377.084 1.28362L376.379 1.99349ZM401.336 25.5554V0.557828H400.336V25.5554H401.336ZM400.836 1.05783H406.522V0.0578284H400.836V1.05783ZM406.022 0.557828V31.8518H407.022V0.557828H406.022ZM406.022 31.8518C406.022 32.8924 405.741 33.6595 405.314 34.158C404.894 34.6494 404.297 34.9229 403.562 34.9229V35.9229C404.566 35.9229 405.449 35.5386 406.074 34.8082C406.693 34.0851 407.022 33.0666 407.022 31.8518H406.022ZM403.562 34.9229C402.738 34.9229 401.966 34.5767 401.19 33.8007L400.483 34.5078C401.398 35.4233 402.412 35.9229 403.562 35.9229V34.9229Z" fill="#5A5A5A" mask="url(#path-1-outside-1_1258_3)"/>
</svg>
